<?xml version="1.0" encoding="utf-8"?>
<!-- Generator: Adobe Illustrator 19.2.1, SVG Export Plug-In . SVG Version: 6.00 Build 0)  -->
<svg version="1.1" id="Layer_1" xmlns="http://www.w3.org/2000/svg" xmlns:xlink="http://www.w3.org/1999/xlink" x="0px" y="0px"
	 viewBox="0 0 60 20" style="enable-background:new 0 0 60 20;" xml:space="preserve">
<style type="text/css">
	.st0{fill:#2E5126;}
	.st1{fill:#D1D3D4;}
</style>
<polygon class="st0" points="9.2,4.5 11,8.2 15.1,8.8 12.1,11.7 12.8,15.8 9.2,13.9 5.5,15.8 6.2,11.7 3.2,8.8 7.3,8.2 "/>
<polygon class="st1" points="30.3,4.5 32.1,8.2 36.3,8.8 33.3,11.7 34,15.8 30.3,13.9 26.6,15.8 27.3,11.7 24.3,8.8 28.5,8.2 "/>
<polygon class="st1" points="51.4,4.5 53.3,8.2 57.4,8.8 54.4,11.7 55.1,15.8 51.4,13.9 47.8,15.8 48.5,11.7 45.5,8.8 49.6,8.2 "/>
</svg>
