<?xml version="1.0" encoding="utf-8"?>
<!-- Generator: Adobe Illustrator 19.2.1, SVG Export Plug-In . SVG Version: 6.00 Build 0)  -->
<svg version="1.1" id="Layer_1" xmlns="http://www.w3.org/2000/svg" xmlns:xlink="http://www.w3.org/1999/xlink" x="0px" y="0px"
	 viewBox="0 0 400 224" style="enable-background:new 0 0 400 224;" xml:space="preserve">
<style type="text/css">
	.st0{fill:none;stroke:#3C2415;stroke-width:1.5781;stroke-miterlimit:10;}
	.st1{fill:#3C2415;}
</style>
<path class="st0" d="M12.5,198.5V190c24.1-1.2,25.8-3.1,25.8-17.8V63.8h-26v-7.7l10.4-1.9c21.9-3.9,33-10.6,43.8-27h7.5v145
	c0,14.7,2.4,16.4,24.6,17.8v8.4H12.5z M101.7,112.5c0-51.2,27-85.5,68.2-85.5c41.2,0,68.5,34.4,68.5,85.5
	c0,51.2-27.2,85.5-68.5,85.5C128.7,198,101.7,163.7,101.7,112.5z M200.9,112.5c0-39.6-6.2-77-31-77c-24.9,0-31,37.4-31,77
	c0,39.6,6.2,77,31,77C194.8,189.5,200.9,152.1,200.9,112.5z M252.9,112.5c0-51.2,27-85.5,68.2-85.5c41.2,0,68.5,34.4,68.5,85.5
	c0,51.2-27.2,85.5-68.5,85.5C279.9,198,252.9,163.7,252.9,112.5z M352.1,112.5c0-39.6-6.2-77-31-77c-24.9,0-31,37.4-31,77
	c0,39.6,6.2,77,31,77C346,189.5,352.1,152.1,352.1,112.5z"/>
<g>
	<path class="st1" d="M261.2,69.2c1.7,1,3.6,1.8,5.4,2.6c0.7,0.3,1.4,0.6,2,0.9c0.7,0.3,1.5,0.8,2.2,1.2c0.9,0.5,1.8,1.1,2.7,1.4
		c2,0.7,3.4,1.5,5.2,3.1c1.3,1.1,2.5,2.3,3.7,3.5c2.4,2.4,4.8,4.8,7.8,6.5c0.2,0.1,0.4,0.3,0.7,0.4c0-0.2,0-0.4,0-0.6
		c-0.2-0.1-0.3-0.2-0.4-0.3c-2.9-1.7-5.3-4.1-7.7-6.4c-1.2-1.2-2.5-2.5-3.8-3.6c-1.9-1.7-3.4-2.5-5.5-3.3c-0.9-0.3-1.7-0.8-2.6-1.4
		c-0.7-0.5-1.5-0.9-2.3-1.3c-0.7-0.3-1.3-0.6-2-0.9c-1.8-0.8-3.7-1.6-5.3-2.5c-0.1-0.1-0.3-0.2-0.4-0.3c-0.1,0.2-0.1,0.3-0.2,0.5
		C260.9,69,261,69.1,261.2,69.2z"/>
	<path class="st1" d="M149.1,38.6c3.5-2.8,5.8-5.5,8.1-9.6c0.2-0.3,0.3-0.6,0.4-0.9c-0.3,0-0.5,0.1-0.8,0.1
		c-0.1,0.2-0.1,0.3-0.2,0.5c-2.2,4-4.5,6.7-8,9.5c-3.8,3-7.6,5-13.2,6.8c-4.2,1.3-8.2,2.2-12.7,2.7c-0.2,0.2-0.3,0.4-0.5,0.6
		c4.8-0.5,9.1-1.4,13.5-2.8C141.4,43.7,145.2,41.7,149.1,38.6z"/>
	<path class="st1" d="M115.4,70.6c3.3-3,7.6-5.3,11.3-7.1c5.5-2.7,11.8-5.5,19-6.1c0.1-0.2,0.1-0.4,0.2-0.6
		c-7.4,0.6-13.9,3.4-19.5,6.2c-3.8,1.9-8.1,4.2-11.4,7.2c-2.1,1.9-4.4,3.4-6.8,4.9c-0.4,0.2-0.7,0.5-1.1,0.7
		c-0.1,0.3-0.2,0.6-0.3,0.9c0.6-0.4,1.2-0.8,1.8-1.1C111,74,113.3,72.5,115.4,70.6z"/>
	<path class="st1" d="M260.1,90.6c1.8,1.1,2.3,2.1,3.1,3.4c0.2,0.5,0.5,0.9,0.8,1.5c1.3,2.1,4.1,3.6,6.3,4.7
		c2.7,1.3,5.2,2.2,7.9,3.3c0.9,0.3,1.7,0.7,2.6,1c1.5,0.6,3,1.2,4.5,1.7c1.6,0.6,3.2,1.2,4.8,1.8c0-0.2,0-0.4,0-0.5
		c-1.5-0.6-3.1-1.2-4.6-1.8c-1.5-0.6-3-1.1-4.4-1.7c-0.9-0.3-1.8-0.7-2.6-1c-2.7-1-5.2-2-7.8-3.2c-2-0.9-4.8-2.4-6-4.4
		c-0.3-0.5-0.6-1-0.8-1.4c-0.7-1.4-1.4-2.6-3.3-3.7c-1.7-1-3.5-1.7-5.2-2.4c0,0.2-0.1,0.3-0.1,0.5C256.8,89,258.5,89.6,260.1,90.6z"
		/>
	<path class="st1" d="M121.3,49.8c2.2-0.1,4.6-0.2,6.8-0.5c6.6-0.7,12.2-1.9,18.1-3.9c3.3-1.1,6.1-2.3,8.6-3.7
		c2-1.9,4.1-3.5,6.6-4.5c3.4-2.8,4.2-6.2,4.8-10.1c-0.2,0-0.4,0-0.6,0c-0.6,3.8-1.4,7-4.6,9.7c-4.4,3.6-8.7,6-15,8.1
		c-5.9,2-11.4,3.2-18,3.9c-2.2,0.2-4.4,0.3-6.6,0.5c-0.2,0.2-0.3,0.4-0.5,0.6C121.1,49.9,121.2,49.9,121.3,49.8z"/>
	<path class="st1" d="M73,151.2c0.1-0.1,0.1-0.2,0.2-0.3c0.3-0.3,0.5-0.5,0.8-0.8v-1.2c-0.3,0.6-0.7,1.1-1.2,1.6
		c-0.1,0.1-0.2,0.3-0.3,0.4c-0.5,1,0.2,2.7,1.5,4.7v-1C73.1,153.1,72.6,151.9,73,151.2z"/>
	<path class="st1" d="M43.8,185.8c-3.4-1.6-4.9-3.6-5.9-6c-0.1,0.3-0.1,0.6-0.2,0.9c1.1,2.1,2.7,4,5.9,5.5c3.4,1.6,7.3,3.6,11.3,6.5
		c4,2.9,7.4,4.6,10.4,5.7h1.6c-3.2-1-7-2.7-11.6-6.1C51.2,189.5,47.2,187.5,43.8,185.8z"/>
	<path class="st1" d="M60.1,191.2c-1.8-1.1-3.4-2.2-5-3c-0.7-0.4-1.5-0.7-2.3-1.1c-3.9-1.8-8.4-3.9-10.2-7.3c-1.2-2.3-2.2-4.7-3-7
		c-0.4-1-0.8-2.1-1.2-3.1v2.5c0,0.5,0,0.9,0,1.3c0.8,2.2,1.7,4.5,2.9,6.7c2.1,3.8,6.8,6.1,11,8c0.8,0.4,1.6,0.7,2.3,1.1
		c1.5,0.8,3.1,1.8,4.9,2.9c3.6,2.2,7.2,4.6,10.9,5.1c2.3,0.3,4.2,0.7,5.8,1.2h3.4c-2-1.1-5.1-1.9-9.2-2.5
		C67,195.6,63.5,193.4,60.1,191.2z"/>
	<path class="st1" d="M87.4,195.2c-7-1.5-12.1-4.8-17.5-8.3c-3.1-2-6.3-4.1-9.9-5.8c-1-0.5-2-1-3-1.4c-3.7-1.7-7.5-3.5-10.4-6
		c-3-2.6-3.9-5.8-4.7-9.2c-0.5-2-1.1-4.2-2.2-6.1c-0.5-0.8-0.9-1.7-1.3-2.5v1.2c0.2,0.5,0.5,1,0.8,1.5c1.1,1.9,1.6,4,2.1,6
		c0.9,3.3,1.7,6.7,4.9,9.5c3,2.6,6.9,4.4,10.6,6.1c1,0.5,2,0.9,3,1.4c3.6,1.7,6.8,3.8,9.8,5.8c5.5,3.5,10.7,6.9,17.8,8.4l0.1,0
		c2,0.4,6.3,1.3,9.6,2.8h1.1c-3.4-1.8-8.3-2.8-10.7-3.3L87.4,195.2z"/>
	<path class="st1" d="M12.5,194.2c0.4-1.5,0.8-3,1-4.2c-0.3,0-0.7,0-1,0.1V194.2z"/>
	<path class="st1" d="M261.3,141.7c-2-0.5-3.8-0.9-5.5-1.4c0,0.2,0.1,0.4,0.1,0.6c1.5,0.4,3.3,0.9,5.3,1.3c8.2,2,19.3,4.8,25.4,8.7
		c3.2,2.1,5.5,3.9,7.1,5.5c-0.1-0.3-0.1-0.6-0.2-0.9c-1.7-1.6-3.9-3.2-6.6-5C280.8,146.5,269.5,143.8,261.3,141.7z"/>
	<path class="st1" d="M232.4,121.4c-4.9,2.2-9.2,5.1-13.3,7.8c-1.5,1-3.1,2.1-4.8,3.1c-2.5,1.6-9.9,1.9-14.1,2c0,0.2,0,0.3,0,0.5
		c4.4-0.1,11.9-0.3,14.6-2c1.6-1,3.2-2.1,4.8-3.2c4.3-2.9,8.4-5.6,13.2-7.8c1.8-0.8,3.6-0.3,5.3,0.8c0-0.2,0-0.4,0-0.6
		C236.3,121.1,234.4,120.5,232.4,121.4z"/>
	<path class="st1" d="M212.2,114.9c1.5-1.6,4.3-1.6,7.3-1.5c2.9,0.1,6,0.2,7.7-1.5c1.1-1,2.3-1.5,3.7-1.4c1.9,0.1,4,1.2,6.2,3.1
		c0.4,0.3,0.8,0.7,1.2,1c0-0.2,0-0.4,0-0.6c-0.3-0.2-0.6-0.4-0.8-0.7c-1.6-1.4-4-3.1-6.6-3.3c-1.6-0.1-3,0.4-4.1,1.5
		c-1.6,1.5-4.5,1.4-7.3,1.4c-3-0.1-6.1-0.2-7.7,1.6c-1.8,2-6.2,4.6-10.9,6.7c0,0.2,0,0.4,0,0.7C205.8,119.7,210.4,117,212.2,114.9z"
		/>
	<path class="st1" d="M207.1,183.2c-3.5,0-7.2-1.1-10.9-2.1c-2.8-0.8-5.5-1.6-7.7-1.7c-0.1,0-0.1,0-0.2,0c-0.1,0.2-0.2,0.3-0.4,0.5
		c0.2,0,0.4,0,0.7,0c2.2,0.1,4.8,0.9,7.6,1.7c3.7,1,7.5,2.1,11,2.1c1,0,2.1,0,3.2,0.1c0.2-0.2,0.4-0.3,0.6-0.5
		C209.7,183.3,208.4,183.2,207.1,183.2z"/>
	<path class="st1" d="M203.7,153.1c5.3,0.1,12.4,0.2,18.1-3.6c0.3-0.2,0.6-0.4,1-0.7c2.2-1.6,5.4-3.9,11.5-4.3
		c0-0.2,0.1-0.4,0.2-0.5c-6.5,0.4-9.8,2.8-12.1,4.4c-0.3,0.2-0.6,0.5-0.9,0.7c-5.5,3.8-12.6,3.6-17.8,3.5c-2.3,0-4.3-0.1-5.7,0.2
		c0,0.2-0.1,0.4-0.1,0.6C199.2,153,201.3,153.1,203.7,153.1z"/>
	<path class="st1" d="M109.3,118.1c3.9-0.3,7.7-0.5,9.5-0.1c4.1,1,7.6-0.4,11.2-1.8c2.8-1.1,5.6-2.2,8.9-2.3c0-0.2,0-0.4,0-0.5
		c-3.4,0.1-6.3,1.2-9.2,2.4c-3.6,1.4-7,2.7-10.8,1.8c-1.9-0.5-5.7-0.2-9.7,0.1c-2.5,0.2-5.1,0.4-7.3,0.4c0,0.2,0,0.3,0,0.5
		C104.1,118.5,106.7,118.3,109.3,118.1z"/>
	<path class="st1" d="M117.8,143.6c1.3-2.7,4.4-3.1,8.7-3.6c3.4-0.4,7.7-1,12.2-3c0.4-0.2,0.8-0.3,1.2-0.5c0-0.2,0-0.4,0-0.6
		c-0.5,0.2-1,0.4-1.4,0.6c-4.4,2-8.6,2.5-12,3c-4.3,0.5-7.7,1-9.1,3.9c-0.6,1.2-1.7,2.8-2.9,4.6c-1.5,2.1-3.1,4.5-4.1,6.7l0,0
		c-0.2,0.5-0.4,0.9-0.6,1.4c0.1,0.3,0.2,0.6,0.4,0.9c0.2-0.6,0.4-1.2,0.8-2l0,0c1-2.1,2.7-4.5,4.1-6.6
		C116,146.5,117.2,144.8,117.8,143.6z"/>
	<path class="st1" d="M275.3,112.3c-11.6-5-17.5-9.9-20.1-12.5l-0.1-0.1c-0.4-0.4-1-0.8-1.6-1.1c0,0.2,0,0.4,0,0.5
		c0.5,0.3,0.9,0.5,1.3,0.9l0.1,0.1c2.6,2.5,8.6,7.6,20.3,12.6c1.8,0.8,5.9,1.6,10.6,2.5c1.4,0.3,2.9,0.6,4.4,0.9c0-0.2,0-0.3,0-0.5
		c-1.5-0.3-2.9-0.6-4.3-0.9C281.1,113.9,277,113.1,275.3,112.3z"/>
	<path class="st1" d="M288.1,175.8c1.2-1.6,2.6-3,4-4.4c1.7-1.7,3.3-3.4,4.3-5c-0.1-0.3-0.2-0.5-0.3-0.8c-1,1.8-2.7,3.6-4.5,5.5
		c-1.4,1.4-2.8,2.9-4,4.5c-0.6,0.7-1.1,1.5-1.6,2.2c-1.6,2.5-3.2,4.8-6.3,5.4c0.2,0.1,0.3,0.3,0.5,0.4c3.1-0.7,4.8-3.1,6.3-5.5
		C287.1,177.3,287.6,176.5,288.1,175.8z"/>
	<path class="st1" d="M267.9,128.9c-4.1-1-10.3-3.5-14.6-6c0,0.2,0,0.4,0.1,0.6c4.4,2.5,10.3,4.8,14.5,5.9c4,1,9,1.2,13.8,1.4
		c3.3,0.1,6.6,0.3,9,0.7c0-0.2,0-0.3,0-0.5c-2.5-0.4-5.7-0.5-9.1-0.7C276.8,130,271.8,129.8,267.9,128.9z"/>
	<path class="st1" d="M44.1,51.1c6.6-0.9,12.3,2,19,5.3c2.9,1.4,5.8,2.9,9,4.2c0.6,0.2,1.2,0.4,1.8,0.5v-0.5
		c-0.6-0.1-1.1-0.2-1.6-0.4c-3.2-1.3-6.1-2.7-9-4.2c-6.8-3.4-12.6-6.3-19.4-5.4c-1.5,0.2-4.3,0.5-7.2,0.2c-0.4,0.1-0.8,0.2-1.1,0.4
		C38.8,51.7,42.1,51.4,44.1,51.1z"/>
	<path class="st1" d="M282.4,44.2c1.1,1.3,2.1,2.6,3.1,3.9c3,3.8,5.9,7.5,10.7,11.3c0.1-0.2,0.1-0.3,0.2-0.5
		c-4.6-3.7-7.4-7.3-10.4-11.1c-1-1.3-2-2.6-3.1-3.9c-0.6-0.7-1.3-1.7-2-2.9c-0.1,0.1-0.3,0.2-0.4,0.4
		C281.1,42.5,281.8,43.5,282.4,44.2z"/>
	<path class="st1" d="M329.3,192.5c0.4,0.7,0.9,2.9,1.1,4.9c0.2,0,0.4-0.1,0.6-0.1c-0.2-2-0.7-4.2-1.2-5c-0.7-1.3-1.2-2.7-1.6-4
		c-0.2,0.1-0.4,0.1-0.5,0.2C328.1,189.8,328.6,191.2,329.3,192.5z"/>
	<path class="st1" d="M346.7,168.5c-0.2,0.4-0.9,0.6-2,0.7c-0.2,0.5-0.3,0.9-0.5,1.3c2-0.1,3.4-0.4,3.9-1.3c0.5-1.1-0.6-2.5-2.1-3.7
		c-0.1,0.4-0.3,0.9-0.4,1.3C346.6,167.6,346.9,168.2,346.7,168.5z"/>
	<path class="st1" d="M358.9,62.3c2.8,1.8,5.9,3.1,8.9,4.3c3.1,1.3,6.2,2.6,9.1,4.4c2.3,1.5,4.8,3.2,7.3,5c-0.1-0.3-0.2-0.5-0.3-0.8
		c-2.3-1.7-4.6-3.2-6.7-4.6c-2.9-1.9-6.1-3.2-9.2-4.5c-2.9-1.2-6-2.5-8.8-4.2c-4.4-2.8-8.8-6.3-13.8-11.1c-1.8-1.7-3.7-3.3-5.7-4.7
		c0.3,0.4,0.6,0.8,0.9,1.3c1.5,1.2,3,2.4,4.4,3.7C350.1,55.9,354.5,59.5,358.9,62.3z"/>
	<path class="st1" d="M362.1,182.7c-3,0.9-5.8,1.7-8.9,0.6c-1.6-0.6-3.5-1.6-5.5-2.7c-2.3-1.3-4.6-2.5-6.8-3.3
		c-0.1,0.1-0.2,0.3-0.3,0.4c2.2,0.7,4.5,2,6.8,3.3c2,1.1,3.9,2.2,5.6,2.8c3.2,1.2,6.3,0.3,9.3-0.5c0,0,0,0,0,0
		c0.3-0.3,0.7-0.6,1-0.9C363,182.4,362.6,182.5,362.1,182.7z"/>
	<path class="st1" d="M356.8,186.2c-2.3,0.1-4.6-1-7-2.3c-2.1-1.1-4.3-2.2-6.5-2.3c-2.7-0.2-7.6,1.8-8.6,4.2
		c-0.2,0.5-0.4,0.9-0.7,1.3c-0.7,1.3-1.3,2.6-1.2,4.3c0.1,1.8,0.4,3.7,0.8,5.5c0.2,0,0.4-0.1,0.6-0.1c-0.4-1.8-0.7-3.6-0.7-5.3
		c-0.1-1.7,0.5-2.9,1.2-4.1c0.2-0.4,0.4-0.9,0.7-1.4c1-2.1,5.6-4.1,8.1-3.9c2.1,0.2,4.2,1.2,6.2,2.3c2.4,1.2,4.9,2.5,7.4,2.3
		c0.4,0,0.7,0,1.1,0c0.2-0.2,0.5-0.4,0.7-0.5C358,186.1,357.4,186.2,356.8,186.2z"/>
	<path class="st1" d="M336.1,187.9c0.9-2.1,4.7-4.7,7.3-4.5c2.1,0.2,4.6,1.5,7,2.7c1.7,0.9,3.4,1.7,5.1,2.3c0.2-0.1,0.4-0.2,0.5-0.4
		c-1.7-0.5-3.6-1.5-5.4-2.4c-2.5-1.3-5.1-2.6-7.3-2.8c-2.8-0.2-6.8,2.5-7.8,4.8c-0.2,0.4-0.3,0.7-0.5,1c-0.6,1.4-1.1,2.4-1.1,4.3
		c0,1.2,0.2,2.5,0.5,3.8c0.2,0,0.4-0.1,0.6-0.1c-0.2-1.2-0.4-2.4-0.4-3.6c-0.1-1.8,0.4-2.8,1-4.2C335.8,188.5,336,188.2,336.1,187.9
		z"/>
	<path class="st1" d="M313.6,32c-1.6-1-3.3-2.4-5-3.8c-0.2,0-0.4,0.1-0.6,0.1c1.8,1.5,3.7,3,5.4,4.1c1.9,1.3,4,2.3,6.1,3.2
		c0.4,0,0.7,0,1.1-0.1C318.1,34.5,315.7,33.4,313.6,32z"/>
	<path class="st1" d="M39.7,127.7c-0.4-0.6-0.9-1.2-1.4-1.8v0.8c0.3,0.4,0.6,0.8,0.9,1.2c1.1,1.7,1.1,3.4,1,5.2c0,1.6-0.1,3.3,0.8,5
		c1.1,2.2,3.2,4,5.1,5.8c1.7,1.6,3.5,3.2,4.6,5c0.9,1.5,0.6,2.3,0.2,3.2c-0.2,0.5-0.5,1.1-0.6,1.9c-0.3,2.2,1.6,4.2,3.3,6
		c0.1,0.1,0.3,0.3,0.4,0.4c5.9,6.3,11.9,12.7,20,16.1c0-0.2,0-0.4,0-0.6c-7.8-3.3-13.8-9.7-19.5-15.8c-0.1-0.1-0.3-0.3-0.4-0.4
		c-1.6-1.7-3.4-3.6-3.1-5.6c0.1-0.7,0.3-1.2,0.6-1.8c0.5-1,0.9-2-0.2-3.7c-1.2-1.9-3-3.5-4.7-5.1c-2-1.8-3.9-3.5-5-5.6
		c-0.8-1.5-0.8-3.1-0.7-4.7C40.8,131.4,40.9,129.6,39.7,127.7z"/>
	<path class="st1" d="M200.1,190.7c-2.2-1.2-11.8-1.7-17.1,0c-1,0.3-1.6,0.8-2,1.5c-0.2,0.5-0.3,1-0.4,1.4c-0.1,0.4-0.1,0.8-0.3,1.1
		c-0.3,0.7-1.2,1.2-5.4,0.2c-2.4-0.6-3.5-1.8-4.6-3.1c-1-1.2-2-2.3-4-2.4c-1.5,0-4.3,0.2-7.6,0.4c-5.4,0.4-12.2,0.8-14.5,0.3
		c-1.8-0.4-3.7-0.4-5.4-0.5c-0.3,0-0.6,0-0.9,0c0.3,0.2,0.6,0.4,0.9,0.5c0,0,0.1,0,0.1,0c1.7,0,3.5,0,5.3,0.4
		c2.5,0.5,9,0.1,14.7-0.3c3.3-0.2,6.1-0.4,7.5-0.4c1.7,0,2.5,1,3.5,2.1c1.1,1.3,2.3,2.7,5,3.3c3.7,0.9,5.5,0.7,6-0.5
		c0.2-0.4,0.2-0.8,0.3-1.2c0.1-0.4,0.1-0.9,0.3-1.3c0.3-0.6,0.8-1,1.7-1.3c5.1-1.6,14.2-1.1,16.4-0.1c0.2-0.1,0.4-0.2,0.6-0.3
		C200.1,190.7,200.1,190.7,200.1,190.7z"/>
	<path class="st1" d="M22.9,191.7c0.1-0.8,0.2-1.4,0.2-1.7c0-0.2,0.1-0.4,0.2-0.7c-0.2,0-0.4,0-0.7,0.1c-0.1,0.2-0.1,0.5-0.1,0.6
		c0,0.3-0.1,0.9-0.2,1.6c-0.3,1.9-0.7,4.7-0.4,6.9h0.6C22.2,196.3,22.6,193.4,22.9,191.7z"/>
	<path class="st1" d="M316.3,191.6c0.5,2,1,4.1,0.8,6c0,0.1,0,0.2-0.1,0.3c0.2,0,0.4,0,0.6,0c0-0.1,0-0.2,0-0.2
		c0.2-2-0.3-4.1-0.8-6.2c-0.2-0.9-0.4-1.7-0.6-2.5c-0.2,0-0.4-0.1-0.6-0.2C315.9,189.7,316.1,190.7,316.3,191.6z"/>
	<path class="st1" d="M45.8,198.4c0-0.3,0.1-0.5,0.2-0.8c0.3-0.7,1.1-1,2-0.9c0.8,0.1,1.7,0.6,2.5,1.1c0.3,0.2,0.6,0.3,0.9,0.5
		c0.1,0.1,0.2,0.1,0.4,0.2h1.7c-0.6-0.1-1.2-0.3-1.8-0.6c-0.3-0.1-0.6-0.3-0.9-0.4c-0.9-0.5-1.9-1-2.8-1.2c-1.2-0.2-2.1,0.2-2.5,1.1
		c-0.1,0.3-0.2,0.6-0.2,0.9c0,0.1,0,0.1,0,0.2L45.8,198.4C45.8,198.5,45.8,198.4,45.8,198.4z"/>
	<path class="st1" d="M15,198.5c0.4-1.5,0.7-3.2,0.9-4.8c0.2-1.3,0.4-2.6,0.7-3.9c-0.2,0-0.4,0-0.6,0c-0.3,1.2-0.5,2.5-0.7,3.7
		c-0.3,1.7-0.6,3.3-1,4.9H15z"/>
	<path class="st1" d="M309.5,186.1c-0.1,1.5,0,2.8,0,3.9c0.1,1.8,0.2,3.3-0.6,5c-0.3,0.6-0.7,1.1-1.1,1.7c0.6,0.1,1.1,0.2,1.7,0.3
		c0.3-0.5,0.6-0.9,0.8-1.4c0.9-1.9,0.8-3.7,0.7-5.5c-0.1-1-0.1-2-0.1-3.2C310.5,186.8,310,186.5,309.5,186.1z"/>
	<path class="st1" d="M50.2,194.2c-2.2-1.9-4.2-3-6.8-4c-2.5-0.9-4.5-1.7-6.8-3.4c-0.5-0.4-1-0.8-1.4-1.3c-0.1,0.1-0.2,0.2-0.4,0.3
		c0.4,0.5,0.8,0.9,1.4,1.3c2.3,1.8,4.6,2.7,7,3.5c2.5,0.9,4.4,2,6.6,3.9c2,1.7,4.8,3,6.9,3.9h1.6c-0.6-0.2-1.1-0.3-1.4-0.4
		C54.9,197.1,52.2,195.8,50.2,194.2z"/>
	<path class="st1" d="M267.4,64.5c2.1,1.9,4.3,3.8,7,5.4c4.1,2.4,6.1,2.6,7.9,2.7c1.4,0.1,2.7,0.2,4.8,1.1c0.5,0.2,2.7,1.2,5.2,2.4
		c0-0.2,0.1-0.3,0.1-0.5c-2.5-1.2-4.6-2.1-5.1-2.3c-2.3-1-3.7-1.1-5.1-1.2c-1.9-0.1-3.7-0.3-7.6-2.6c-2.6-1.5-4.9-3.5-6.9-5.3
		c-1.1-1-2.2-1.9-3.3-2.9c-0.1,0.2-0.2,0.3-0.2,0.5C265.3,62.7,266.4,63.6,267.4,64.5z"/>
	<path class="st1" d="M353,128.5c0.1,0.3,0.2,0.7,0.3,1c1.2,4.4,2.2,7.8,5.9,11.8c1.6,1.7,2.9,3.6,4.2,5.4c1.7,2.5,3.5,5,6,7.1
		l0.1,0.1c2.4,2.1,6.5,5.5,10.1,6.4c0.1-0.2,0.2-0.3,0.2-0.5c-3.5-0.8-7.5-4.2-9.9-6.2l-0.1-0.1c-2.4-2.1-4.2-4.6-5.9-7
		c-1.3-1.9-2.6-3.8-4.3-5.5c-3.6-3.8-4.5-7.2-5.7-11.5c-0.1-0.3-0.2-0.7-0.3-1c-0.8-3-0.7-5.7-0.5-8.5c0.1-1.8,0.2-3.7,0-5.7
		c-0.1-1.4-0.4-3.1-0.9-4.7c0,0.8,0,1.6,0,2.4c0.2,0.8,0.3,1.6,0.3,2.3c0.2,2,0.1,3.8,0,5.6C352.3,122.6,352.1,125.4,353,128.5z"/>
	<path class="st1" d="M203.4,176.2c4.8,0.6,9.2,1.2,13.4,1.5c0.1-0.2,0.3-0.3,0.4-0.5c-4.4-0.4-8.9-0.9-13.9-1.6
		c-0.7-0.1-1.4-0.2-2.3-0.3c-2.8-0.3-6.3-0.8-9.6-1.5c-0.1,0.2-0.2,0.3-0.2,0.5c3.3,0.8,7,1.2,9.9,1.6
		C201.9,176.1,202.7,176.1,203.4,176.2z"/>
	<path class="st1" d="M335.1,32.2c0.9,0.3,1.8,0.7,2.7,1c4.1,1.5,8,2.9,11.2,6c0.8,0.8,1.5,1.6,2.2,2.3c0.9,0.9,1.7,1.9,2.7,2.8
		c0.6,0.5,1.2,1.1,1.7,1.6c1.3,1.2,2.6,2.4,3.8,3.7c3.3,3.7,7.9,6.1,12.3,6.4c1.2,0.1,2.3,0.3,3.5,0.7c-0.1-0.2-0.3-0.4-0.4-0.6
		c-1-0.3-2.1-0.5-3.1-0.6c-4.2-0.3-8.6-2.6-11.8-6.2c-1.2-1.3-2.6-2.6-3.9-3.7c-0.6-0.5-1.2-1-1.7-1.6c-0.9-0.9-1.8-1.8-2.7-2.8
		c-0.7-0.8-1.5-1.6-2.2-2.4c-3.3-3.3-7.3-4.7-11.4-6.2c-0.9-0.3-1.8-0.6-2.7-1c-0.4-0.2-1.3-0.4-2.5-0.7c-3.1-0.8-8.4-2.1-12.6-4.1
		c-0.4,0-0.7,0-1.1,0c4.4,2.3,10.2,3.7,13.6,4.5C333.8,31.9,334.7,32.1,335.1,32.2z"/>
	<path class="st1" d="M374.2,160.7c-1.3-0.9-2.5-1.8-3.7-2.4c-1.8-1-3.6-1.8-5.5-2.6c-2-0.9-4.1-1.8-6-2.9c-1.4-0.9-2.3-2-3.2-3.1
		c-0.5-0.7-1.1-1.4-1.8-2.1c-1.1-1.1-2.4-2.1-3.6-3c0,0-0.1,0-0.1-0.1c0,0.2,0,0.4-0.1,0.6c1.1,0.9,2.3,1.8,3.3,2.8
		c0.7,0.7,1.2,1.4,1.7,2c0.9,1.2,1.8,2.4,3.4,3.3c1.9,1.2,4,2.1,6.1,3c1.8,0.8,3.7,1.6,5.4,2.6c1.2,0.7,2.3,1.5,3.6,2.4
		c1.3,0.9,2.7,1.9,4,2.7c0.1-0.1,0.2-0.3,0.2-0.4C376.7,162.6,375.4,161.6,374.2,160.7z"/>
	<path class="st1" d="M48.8,105.1c-0.1,0-5.2,0.3-10.5,1.3v0.5c5.3-1.1,10.5-1.4,10.6-1.4c4.2-0.2,7.7-0.5,11.1-0.7
		c4.4-0.3,8.6-0.7,14-0.7v-0.5c-5.4,0.1-9.7,0.4-14.1,0.7C56.5,104.6,53,104.9,48.8,105.1z"/>
	<path class="st1" d="M287.3,59.8c-2.8-2.3-5.6-4.8-8.8-6.8c-1.6-1-2.7-2.3-3.9-3.6c-0.3-0.4-0.7-0.8-1.1-1.2
		c-0.1,0.1-0.2,0.3-0.3,0.4c0.3,0.4,0.6,0.7,1,1.1c1.2,1.4,2.3,2.7,4.1,3.8c3.1,2,6,4.4,8.7,6.7c2,1.7,4.1,3.5,6.3,5.1
		c0.4,0.3,0.8,0.5,1.1,0.8c0-0.2,0.1-0.4,0.1-0.5c-0.3-0.2-0.6-0.4-0.9-0.7C291.4,63.2,289.3,61.5,287.3,59.8z"/>
	<path class="st1" d="M355.5,67.3c3.1,2,6.4,3.8,9.6,5.5c5.9,3.2,12.1,6.6,17,11.2c1.8,1.7,3.6,3.5,5.6,5.6
		c-0.1-0.3-0.1-0.6-0.2-0.9c-1.8-1.8-3.4-3.4-5-5c-5-4.7-11.1-8.1-17.1-11.3c-3.2-1.7-6.4-3.5-9.5-5.5c-3.5-2.3-6.6-5.1-9.5-7.8
		c-0.1-0.1-0.3-0.3-0.4-0.4c0.1,0.3,0.2,0.6,0.3,1C349,62.4,352,65.1,355.5,67.3z"/>
	<path class="st1" d="M358.5,161.1c6,1.7,12.1,3.5,16.8,7.1c0.1-0.1,0.2-0.3,0.3-0.4c-4.7-3.6-10.9-5.4-16.9-7.1
		c-2.2-0.6-4.3-1.2-6.3-1.9c-1.4-0.5-2.7-1-4.1-1.5c0,0.2-0.1,0.3-0.1,0.5c1.3,0.5,2.7,1,4,1.5C354.2,159.9,356.3,160.5,358.5,161.1
		z"/>
	<path class="st1" d="M60.3,122.5c0,0.1-0.1,0.1-0.1,0.2c-1,2.7,5.1,10.5,6.9,12.2c2.4,2.2,5.6,5.7,6.8,9.2v-1.4
		c-1.5-3.1-4.3-6.1-6.4-8.1c-2-1.9-7.6-9.3-6.7-11.7c0.7-2,6.3-4.4,13.2-5.8v-0.6C67,117.9,61.3,120.4,60.3,122.5z"/>
	<path class="st1" d="M155,194c3.6-0.6,7-1.1,10.6-0.1c1.4,0.4,2.1,0.9,2.9,1.6c0.9,0.8,2,1.7,4.3,2.4c0.5,0,1,0,1.5-0.1
		c-3.2-0.8-4.4-1.8-5.5-2.7c-0.8-0.7-1.6-1.4-3.2-1.8c-3.8-1-7.4-0.4-10.9,0.1c-1.4,0.2-2.9,0.5-4.4,0.6c-1.1,0.1-2.1,0.1-3.1,0
		c0.5,0.2,1,0.4,1.5,0.6c0.6,0,1.1,0,1.7-0.1C152,194.5,153.5,194.3,155,194z"/>
	<path class="st1" d="M373.6,105.4c-1.4-1.8-2.4-3.7-3.5-5.6c-1.5-2.8-3-5.6-5.6-8c-2.7-2.6-6-4.5-9.2-6.3c-1.5-0.9-3.1-1.8-4.6-2.7
		c0,0-0.1,0-0.1-0.1c0.1,0.5,0.1,1,0.2,1.6c1.3,0.8,2.6,1.6,3.9,2.3c3.1,1.8,6.3,3.6,8.8,6c2.3,2.2,3.7,4.8,5.2,7.6
		c1.1,2,2.2,4,3.6,5.8c4.5,5.8,10.8,10.2,16.9,14.5c0,0,0,0,0,0c0-0.5,0.1-1,0.1-1.5C383.6,115,377.8,110.8,373.6,105.4z"/>
	<path class="st1" d="M187.5,195.2c-2.5-0.8-3.7,0.5-4.8,1.6c0,0,0,0-0.1,0.1c0.4-0.1,0.7-0.1,1.1-0.2c0.9-0.9,1.9-1.6,3.7-1
		c0.1,0,0.2,0,0.3,0.1c0.3-0.1,0.6-0.2,1-0.3C188.3,195.4,187.9,195.3,187.5,195.2z"/>
	<path class="st1" d="M29.4,52.9c4.3,2.2,10.5,1.6,13.8,1.1c7.4-1.2,13.8,2,21.2,5.7c3,1.5,6.2,3.1,9.6,4.4v-0.5
		c-3.3-1.3-6.4-2.9-9.3-4.3c-7.5-3.8-14-7-21.7-5.8c-2.5,0.4-8.6,1.1-12.9-0.8C29.8,52.7,29.6,52.8,29.4,52.9
		C29.3,52.9,29.3,52.9,29.4,52.9z"/>
	<path class="st1" d="M13.2,62.2c0.5,0.5,0.9,1.1,1.3,1.6h0.7c-0.5-0.6-0.9-1.2-1.5-1.9c-0.5-0.6-1-1.3-1.4-2v1
		C12.6,61.4,12.9,61.8,13.2,62.2z"/>
	<path class="st1" d="M301.5,35.4c2,1.8,4.2,3.3,6.5,4.6c0.1-0.1,0.3-0.2,0.4-0.3c-2.3-1.3-4.5-2.8-6.5-4.6
		c-1.2-1.1-2.7-2.4-4.2-3.8c-0.2,0.1-0.3,0.1-0.5,0.2C298.6,32.8,300.1,34.1,301.5,35.4z"/>
	<path class="st1" d="M352.5,175.3c1.5-0.4,3-0.3,4.7-0.3c1.5,0.1,3,0.1,4.4-0.2c2.5-0.5,4-1.5,4.7-2.8c1.2-2.5-1.4-5.9-4.5-7.8
		c-3.3-2-8.6-3.4-14.2-4.6c0,0.2-0.1,0.3-0.1,0.5c5.5,1.2,10.8,2.5,14,4.5c2.9,1.8,5.3,4.9,4.2,7.1c-0.6,1.2-2,2.1-4.4,2.5
		c-1.4,0.3-2.8,0.2-4.3,0.2c-1.6-0.1-3.3-0.1-4.9,0.3c-2.1,0.6-6.3-0.1-9.5-1c-0.1,0.2-0.2,0.3-0.2,0.5
		C345.6,175.1,350.1,176,352.5,175.3z"/>
	<path class="st1" d="M351.5,187.7c-0.9-0.5-1.8-1-2.9-1.5c-1.9-0.9-3.4-1.3-5.2-1.5c-2.3-0.2-4.1,0.3-5.4,1.6
		c-2.5,2.4-2.6,6.8-2.2,10.2c0.5-0.1,1-0.2,1.4-0.3c-0.3-3.1-0.1-6.9,2-8.9c1.1-1,2.5-1.4,4.4-1.2c1.6,0.1,3,0.5,4.6,1.3
		c1,0.5,1.9,1,2.8,1.4c0.7,0.4,1.4,0.8,2.1,1.1c0.4-0.3,0.9-0.5,1.3-0.8C353.4,188.7,352.5,188.2,351.5,187.7z"/>
	<path class="st1" d="M69.1,42.9c1.5,0.1,3.2-0.1,4.9-0.4v-0.5c-1.7,0.4-3.4,0.5-4.9,0.5c-3.9-0.1-7.9-1.1-11.8-2.1
		c-0.4-0.1-0.9-0.2-1.3-0.3c-0.2,0.1-0.3,0.3-0.5,0.4c0.6,0.1,1.1,0.3,1.7,0.4C61.1,41.7,65.1,42.7,69.1,42.9z"/>
	<path class="st1" d="M294.2,32.6c-0.4,0.2-0.8,0.4-1.2,0.6c2.5,2.8,5.1,5.5,7.9,8.1c1,1,2.1,1.8,3.2,2.6c0.3-0.3,0.5-0.6,0.8-0.9
		c-1.1-0.7-2.1-1.5-3.1-2.4C299.2,38,296.6,35.3,294.2,32.6z"/>
	<path class="st1" d="M329.4,33.3c1.5,0.6,3,1,4.5,1.5c3.9,1.2,7.5,2.3,10.4,5.2c0.8,0.8,1.6,1.7,2.3,2.5c0.9,1,1.9,2.1,2.9,3.1
		c0.6,0.6,1.2,1.2,1.8,1.7c1.4,1.3,2.8,2.6,4,3.9c3.6,4.1,8.7,6.7,13.5,7c3.1,0.2,6,1.4,9,2.9c-0.3-0.6-0.7-1.3-1-1.9
		c-2.6-1.2-5.2-2.1-8.1-2.3c-4.4-0.3-8.9-2.7-12.2-6.4c-1.3-1.5-2.7-2.8-4.1-4.1c-0.6-0.6-1.2-1.1-1.8-1.7c-1-0.9-1.9-2-2.8-3
		c-0.8-0.9-1.6-1.7-2.4-2.6c-3.2-3.2-7.3-4.5-11.2-5.6c-1.4-0.4-2.9-0.9-4.4-1.4c-0.4-0.2-1.2-0.4-2.3-0.7c-3-0.8-8-2.2-12.2-4.2
		c-0.8,0.1-1.5,0.1-2.3,0.2c4.7,2.7,10.8,4.3,14.3,5.3C328.2,33,329,33.2,329.4,33.3z"/>
	<path class="st1" d="M72,82.7c-2.7,1.1-5.3,2.2-8.7,2c-5.1-0.3-10.1-1.2-15.2-2.7c-0.9-0.3-1.8-0.5-2.7-0.8
		c-2.3-0.7-4.8-1.3-7.1-2.1v0.5c2.3,0.8,4.7,1.5,7,2.1c0.9,0.3,1.8,0.5,2.7,0.8c5.2,1.5,10.2,2.4,15.4,2.7c3.5,0.2,6.1-0.9,8.9-2.1
		c0.4-0.2,0.9-0.4,1.4-0.6c0.1,0,0.2-0.1,0.3-0.1v-0.6c-0.2,0.1-0.4,0.1-0.6,0.2C72.9,82.3,72.4,82.5,72,82.7z"/>
	<path class="st1" d="M264.2,163.2c0.8,1.5,1.7,3,2.6,4.5c0.6,0.7,1,1.4,1.4,2.1c0.7,1.1,1.5,2.1,2.2,3.2c0-0.5-0.1-1.2-0.3-2.1
		C269.4,168.7,267.3,165.9,264.2,163.2z"/>
	<path class="st1" d="M278,166.1c-3-6.3-7.5-8.4-16.5-12.5c-0.6-0.3-1.3-0.6-1.9-0.9c0.1,0.2,0.2,0.4,0.2,0.7c0.5,0.2,1,0.5,1.5,0.7
		c8.8,4,13.2,6,16.2,12.1c1.2,2.5,2.5,9,1.1,12.1c-0.2,0.4-0.4,0.7-0.7,1c-0.4,0.4-0.9,0.6-1.5,0.7c0.2,0.2,0.3,0.3,0.5,0.5
		c0.5-0.1,1-0.4,1.4-0.7c0.3-0.3,0.6-0.6,0.8-1.1C280.6,175.4,279.2,168.7,278,166.1z"/>
	<path class="st1" d="M271.2,137.5c-6-1.2-11.6-2.3-16.7-4.6c0,0.2,0.1,0.4,0.1,0.6c5.1,2.2,10.7,3.3,16.6,4.5
		c7,1.4,14.2,2.9,20.6,6.3c0-0.2,0-0.4-0.1-0.6C285.3,140.4,278.1,138.9,271.2,137.5z"/>
	<path class="st1" d="M268.2,119.7c-1.6-0.6-4.3-2.7-7.2-5c-2.6-2.1-5.4-4.3-8.1-5.9c0,0.5,0,1,0,1.4c2.3,1.5,4.9,3.5,7.2,5.3
		c3.1,2.5,5.8,4.6,7.8,5.3c7.6,2.7,13.9,2,19.5,1.4c1-0.1,1.9-0.2,2.9-0.3c0-0.4,0-0.9,0-1.3c-1.1,0.1-2.2,0.2-3.3,0.3
		C281.5,121.6,275.4,122.2,268.2,119.7z"/>
	<path class="st1" d="M203,59.9c-0.6,1.2-1.1,2.5-1.6,3.7c-0.4,1.1-0.8,2.1-1.3,3l-0.1,0.2c-0.6,1.3-1.5,2.2-2.6,3.1
		c0,0.2,0.1,0.4,0.1,0.6c1.2-0.9,2.3-2,3-3.4l0.1-0.2c0.4-0.9,0.8-1.9,1.3-3c0.5-1.2,1-2.5,1.5-3.6c1.9-3.9,4.7-7.4,11.1-4.6
		c4.3,1.9,8.2,5.3,10.6,9.2c2,3.2,3.8,5.3,6.3,7.2c-0.1-0.3-0.2-0.6-0.3-0.9c-2.1-1.7-3.7-3.7-5.5-6.5c-2.4-4-6.4-7.5-10.9-9.5
		C207.9,52,204.9,56,203,59.9z"/>
	<path class="st1" d="M210.1,173.6c3.2,0.4,6.6,0.4,10,0.2c0.1-0.2,0.3-0.4,0.4-0.5c-3.5,0.1-7.1,0.3-10.4-0.2
		c-3.5-0.5-6.5-2.5-9.3-4.4c-1.9-1.3-3.8-2.5-5.8-3.4c0,0.2-0.1,0.3-0.1,0.5c1.9,0.8,3.8,2,5.7,3.3
		C203.4,171,206.5,173.1,210.1,173.6z"/>
	<path class="st1" d="M345.7,34.4c0.4,0.1,0.7,0.2,1.1,0.3c3.2,1,5.6,2.7,8.1,4.5c1.1,0.8,2.3,1.6,3.5,2.4c2.6,1.6,4.2,3.5,5.8,5.5
		c1.5,1.8,3.1,3.7,5.6,5.4c1.2,0.8,2.4,1.3,3.6,1.6c-0.2-0.2-0.3-0.4-0.5-0.7c-0.9-0.3-1.9-0.8-2.8-1.4c-2.4-1.6-4-3.5-5.5-5.3
		c-1.6-1.9-3.3-3.9-6-5.6c-1.2-0.8-2.4-1.6-3.5-2.3c-2.6-1.8-5-3.5-8.3-4.6c-0.3-0.1-0.7-0.2-1.1-0.3c-3.6-1.1-8.6-2.8-11.1-5.5
		c-0.3-0.1-0.5-0.1-0.8-0.2C336.4,31.4,341.9,33.1,345.7,34.4z"/>
	<path class="st1" d="M219.6,139.7c0.5-0.3,1.1-0.6,1.6-0.9c4.2-2.4,8.3-3.9,13.3-5.4c0.8-0.2,1.5-0.3,2.2-0.4
		c0-0.2,0.1-0.4,0.1-0.5c-0.8,0-1.7,0.1-2.6,0.4c-5,1.5-9.2,3-13.4,5.4c-0.5,0.3-1.1,0.6-1.6,0.9c-6.3,3.7-12.4,7.2-20.3,7.4
		c0,0.2,0,0.4-0.1,0.5C207.1,147,213.2,143.5,219.6,139.7z"/>
	<path class="st1" d="M204.8,163.5c1.4,1.2,3.2,2.6,5.4,3.7c4.5,2.2,9.1,2.8,12.6,3c0.1-0.2,0.2-0.3,0.3-0.5
		c-3.4-0.2-8.1-0.8-12.7-3c-2.1-1-3.8-2.5-5.2-3.6c-0.9-0.7-1.6-1.3-2.2-1.7c-2.9-1.6-4.8-2.9-5.9-3.9c0,0.2-0.1,0.4-0.1,0.6
		c1.3,1.2,3.3,2.4,5.8,3.8C203.2,162.2,203.9,162.8,204.8,163.5z"/>
	<path class="st1" d="M221,93.5c-2.2-0.4-3.5,1.5-4.4,3.4c0,0,0,0,0,0c-0.2,0.4-0.4,0.9-0.6,1.3c-0.2,0.4-0.4,0.8-0.5,1.1
		c-0.3,0.6-0.6,1.1-0.8,1.4c-0.6,0.7-2.5,0.7-4.4,0.7c-1.7,0-3.4-0.1-4.5,0.5c-1.6,0.8-2.6,1.6-4.2,2.7c-0.2,0.2-0.4,0.3-0.7,0.5
		c0,0.6,0,1.2,0,1.8c0.7-0.5,1.2-0.9,1.7-1.3c1.5-1.2,2.4-1.9,4-2.6c0.8-0.4,2.4-0.4,3.9-0.3c2.2,0,4.5,0.1,5.4-1.1
		c0.3-0.4,0.6-0.8,0.9-1.6c0.2-0.4,0.4-0.8,0.5-1.2c0.2-0.4,0.4-0.8,0.6-1.3c0,0,0,0,0,0c0.7-1.4,1.7-3.1,3-2.8
		c5.1,0.8,8.3,3,11.9,5.6c1.6,1.1,3.3,2.3,5.3,3.4c0-0.5-0.1-1-0.1-1.5c-1.6-1-3-2-4.3-2.9C230,96.8,226.5,94.4,221,93.5z"/>
	<path class="st1" d="M214.2,76c-0.9,0.2-1.6,0.9-2.2,2.1l0,0c-0.4,0.9-0.7,1.9-1,2.9c-0.3,1-0.6,1.9-1,2.7
		c-0.4,0.8-0.8,1.3-1.3,1.5c-2,0.9-3.9,2.9-5.8,5c-0.8,0.9-1.6,1.7-2.5,2.6c0,0.3,0,0.5,0.1,0.8c1-0.9,2-2,2.9-3
		c1.9-2.1,3.8-4,5.7-4.9c0.6-0.3,1.1-0.8,1.5-1.7c0.4-0.8,0.7-1.8,1-2.8c0.3-1,0.6-2,1-2.8l0,0c0.5-1.1,1.1-1.7,1.9-1.9
		c5.6-1.4,11.1,5.2,15.9,11c2.4,2.9,4.8,5.7,6.8,7c0-0.2-0.1-0.5-0.1-0.7c-1.9-1.4-4-3.9-6.3-6.6C225.9,81.3,220.2,74.5,214.2,76z"
		/>
	<path class="st1" d="M186.7,185c1.9-0.4,3.9-0.9,5.4-0.6c1.4,0.3,4.5,1.7,7.2,2.9c1.4,0.6,2.7,1.2,3.8,1.7c0.4-0.3,0.9-0.5,1.3-0.8
		c-1.2-0.5-2.9-1.2-4.7-2c-3-1.3-6-2.7-7.6-3.1c-1.8-0.4-4,0.1-6.1,0.5c-0.7,0.2-1.4,0.3-2,0.4c-0.6,0.6-1.3,1.1-1.9,1.5
		C183.5,185.7,185.1,185.4,186.7,185z"/>
	<path class="st1" d="M175.5,192c1.9,0.1,3.1-0.4,3.6-1.6c0.4-0.8,0.4-1.9,0.4-2.8c0-0.1,0-0.3,0-0.4c-0.5,0.2-1,0.5-1.5,0.7
		c0,0.7-0.1,1.3-0.3,1.8c-0.2,0.5-0.7,1-2.4,0.9c-0.7,0-1.5-0.6-2.2-1.5c-0.5,0.1-1,0.1-1.6,0.2C172.7,190.8,174,191.9,175.5,192z"
		/>
	<path class="st1" d="M305.4,182.7c-0.8,1.8-1.4,3.7-2,5.3c-0.5,1.5-1,2.9-1.5,3.9c-0.3,0.6-0.6,1-0.8,1.3c-0.8,0.8-1.7,1.1-2.7,1
		c0.4,0.2,0.8,0.3,1.2,0.5c0.7-0.1,1.3-0.5,1.9-1.1c0.3-0.3,0.6-0.8,0.9-1.4c0.5-1,1-2.4,1.5-3.9c0.5-1.6,1.1-3.3,1.9-5
		C305.7,183,305.6,182.8,305.4,182.7z"/>
	<path class="st1" d="M152.4,182.7c0.6,0,1.2,0,1.8-0.1c-0.4-0.4-0.8-0.8-1.2-1.3c-0.3,0-0.6,0-1,0c-6.4,0.2-13.1,0.4-19.2-0.7
		c-3.2-0.6-5.9-0.9-8.2-1.2c0.5,0.5,1,1,1.5,1.5c1.9,0.3,4.1,0.6,6.6,1C139.1,183.1,145.8,182.9,152.4,182.7z"/>
	<path class="st1" d="M131,171.4c2.2,1.1,7.6,0.9,13.3,0.7c1,0,2.1-0.1,3.1-0.1c-0.1-0.2-0.2-0.3-0.2-0.5c-1,0-2,0.1-3,0.1
		c-5.6,0.2-10.9,0.3-13-0.7c-0.8-0.4-2-0.8-3.6-1.3c-4.3-1.4-10.8-3.5-15-7.3c0.2,0.4,0.4,0.8,0.6,1.2c4.3,3.3,10.3,5.3,14.3,6.5
		C129.1,170.7,130.3,171.1,131,171.4z"/>
	<path class="st1" d="M299.6,174.2c-0.1-0.2-0.2-0.4-0.3-0.6c-2,1.8-3.6,3.7-4.5,5.5c-0.2,0.5-0.4,1-0.5,1.4
		c-0.9,4-4.3,6.1-10.1,6.1c0.2,0.2,0.5,0.3,0.8,0.5c4.8-0.2,7.9-1.7,9.3-4.7c0.3-0.5,0.5-1.1,0.6-1.8c0.1-0.4,0.3-0.9,0.5-1.3
		C296.2,177.7,297.8,175.9,299.6,174.2z"/>
	<path class="st1" d="M106.4,127.5c2-0.1,4.1-0.1,6.2-0.2c0.5,0,1.1,0,1.7-0.1c5.8-0.2,16.7-0.5,20.8-3.2c1-0.7,2.4-0.9,3.9-0.9
		c0-0.4,0-0.9,0-1.3c-1.9,0-3.6,0.3-4.9,1.2c-3.8,2.5-14.4,2.8-20.1,3c-0.6,0-1.2,0-1.7,0.1c-2.1,0.1-4.2,0.1-6.2,0.2
		c-1.3,0-2.5,0.1-3.7,0.1c0,0.4,0.1,0.9,0.2,1.3C103.8,127.6,105.1,127.5,106.4,127.5z"/>
	<path class="st1" d="M174.4,36c1.3-3,3-5.8,5.2-8.3c-0.2,0-0.5-0.1-0.7-0.1c-2.1,2.5-3.7,5.3-5.1,8.3C174,35.9,174.2,35.9,174.4,36
		z"/>
	<path class="st1" d="M106.5,105.3c4.1-0.7,8-2.1,11.8-3.5c1-0.4,2.1-0.8,3.1-1.1c2.5-0.9,4.7-1.9,6.6-2.9c0.8-0.5,1.6-1,2.4-1.6
		c1-0.8,2.1-1.6,3.3-2.1c1.2-0.5,3.3,0.2,5.7,1.4c0-0.2,0-0.4,0-0.5c-2.4-1.2-4.6-2-6-1.4c-1.3,0.5-2.4,1.3-3.4,2.1
		c-0.7,0.5-1.5,1.1-2.3,1.6c-1.9,1.1-4,2-6.6,2.9c-1,0.4-2.1,0.8-3.1,1.1c-3.7,1.4-7.6,2.8-11.6,3.5c-1.5,0.2-2.9,0.3-4.4,0.1
		c0,0.2,0,0.3,0,0.5C103.4,105.5,104.9,105.5,106.5,105.3z"/>
</g>
</svg>
