<?xml version="1.0" encoding="utf-8"?>
<!-- Generator: Adobe Illustrator 19.2.1, SVG Export Plug-In . SVG Version: 6.00 Build 0)  -->
<svg version="1.1" id="Layer_1" xmlns="http://www.w3.org/2000/svg" xmlns:xlink="http://www.w3.org/1999/xlink" x="0px" y="0px"
	 viewBox="0 0 20 136.7" style="enable-background:new 0 0 20 136.7;" xml:space="preserve">
<style type="text/css">
	.st0{fill:none;}
</style>
<path class="st0" d="M1,50.7c0-0.3,0-0.6,0.6-0.6h13.3V47c0-0.4,0.1-0.6,0.6-0.6H17c0.4,0,0.6,0.2,0.6,0.6v9.7
	c0,0.4-0.2,0.6-0.6,0.6h-1.5c-0.4,0-0.6-0.2-0.6-0.6v-3.3H4.3l0.6,3.3c0.1,0.4-0.1,0.6-0.5,0.6H2.8c-0.4,0-0.6-0.2-0.7-0.6L1,50.7z
	 M4.9,42.5c-2,0-3.9-1-3.9-5.2c0-4.2,1.9-5.2,3.9-5.2h1.6c1.2,0,2.1,0.5,2.6,1.8c0.5-1.4,1.4-2.1,2.6-2.1h2.2c2,0,3.9,1.3,3.9,5.5
	c0,4.2-1.9,5.5-3.9,5.5h-2.2c-1.2,0-2.1-0.7-2.6-2.1c-0.5,1.3-1.4,1.8-2.6,1.8H4.9z M12.2,35c-1.2,0-1.8,0.7-1.8,2.2
	c0,1.6,0.6,2.2,1.8,2.2h1.2c1.2,0,1.8-0.7,1.8-2.2c0-1.6-0.6-2.2-1.8-2.2H12.2z M5.4,35.2c-1.2,0-1.8,0.5-1.8,2c0,1.5,0.6,2,1.8,2H6
	c1.2,0,1.8-0.5,1.8-2c0-1.5-0.6-2-1.8-2H5.4z M1.2,17.1c0-0.4,0.1-0.6,0.6-0.6h1.5c0.2,0,0.3,0,0.5,0.1L17,22.5
	c0.3,0.1,0.6,0.3,0.6,0.8v2.4c0,0.4-0.2,0.6-0.6,0.4L3.9,20.2v7.4c0,0.4-0.2,0.6-0.6,0.6H1.8c-0.4,0-0.6-0.2-0.6-0.6V17.1z
	 M14.9,2.6c0-0.4,0.1-0.6,0.6-0.6H17c0.4,0,0.6,0.2,0.6,0.6v9.7c0,0.4-0.2,0.6-0.6,0.6h-4.4c-1.4,0-1.8-0.8-2.2-1.6l-2.1-5
	c-0.2-0.4-0.5-1-1.4-1H5.5c-1.2,0-1.8,0.8-1.8,2.4c0,1.6,0.6,2.3,1.8,2.3h0.9c0.4,0,0.6,0.1,0.6,0.6v2c0,0.4-0.2,0.6-0.6,0.6H4.9
	c-2,0-3.9-1.3-3.9-5.5s1.9-5.6,3.9-5.6h1.9c2.3,0,3.3,1.3,3.7,2.3l1.7,4.1c0.3,0.7,0.5,1.1,1.4,1.1h1.4V2.6z"/>
</svg>
