
<svg version="1.1" id="Layer_1" xmlns="http://www.w3.org/2000/svg" xmlns:xlink="http://www.w3.org/1999/xlink" x="0px" y="0px"
	 viewBox="0 0 20 136.7" style="enable-background:new 0 0 20 136.7;" xml:space="preserve">
<style type="text/css">
</style>
<g>
	<defs>
		<path id="1890" d="M1.8,90.6c-0.1-0.3,0-0.6,0.6-0.6h14v-3.3c0-0.5,0.2-0.6,0.6-0.6h1.6c0.5,0,0.6,0.2,0.6,0.6v10.2
			c0,0.4-0.2,0.6-0.6,0.6H17c-0.5,0-0.6-0.2-0.6-0.6v-3.5H5.2l0.6,3.4c0.1,0.4-0.1,0.7-0.5,0.7H3.6c-0.4,0-0.6-0.3-0.7-0.7L1.8,90.6
			z M5.9,82c-2.1,0-4.2-1-4.2-5.5c0-4.4,2-5.5,4.2-5.5h1.7c1.2,0,2.2,0.6,2.7,1.9c0.5-1.5,1.5-2.2,2.7-2.2h2.3
			c2.1,0,4.2,1.3,4.2,5.8c0,4.5-2,5.8-4.2,5.8H13c-1.3,0-2.2-0.7-2.7-2.2C9.7,81.4,8.8,82,7.6,82H5.9z M13.5,74.1
			c-1.3,0-1.9,0.7-1.9,2.4c0,1.7,0.6,2.4,1.9,2.4h1.3c1.3,0,1.9-0.7,1.9-2.4c0-1.7-0.6-2.4-1.9-2.4H13.5z M6.4,74.3
			c-1.3,0-1.9,0.5-1.9,2.1c0,1.6,0.6,2.1,1.9,2.1H7c1.3,0,1.9-0.5,1.9-2.1c0-1.6-0.6-2.1-1.9-2.1H6.4z M15.3,55.1
			c2.1,0,4.1,1.3,4.1,5.7c0,4.4-2.1,5.7-4.1,5.7h-0.7c-0.5,0-0.6-0.2-0.6-0.6v-2.1c0-0.4,0.2-0.6,0.6-0.6h0.2c1.2,0,1.9-0.6,1.9-2.3
			c0-1.7-0.7-2.3-1.9-2.3h-3.1c0.5,0.6,0.8,1.6,0.8,2.8c0,3.9-2,5.3-4.2,5.3H5.9c-2.1,0-4.2-1.3-4.2-5.8c0-4.4,2-5.8,4.2-5.8H15.3z
			 M6.4,58.5c-1.2,0-1.9,0.7-1.9,2.3c0,1.7,0.6,2.4,1.9,2.4h1.5c1.3,0,1.9-0.7,1.9-2.4c0-1.6-0.6-2.3-1.9-2.3H6.4z M5.9,51.2
			c-2.1,0-4.2-1.5-4.2-5.9c0-4.4,2-5.9,4.2-5.9h9.4c2.1,0,4.2,1.5,4.2,5.9c0,4.5-2,5.9-4.2,5.9H5.9z M6.5,42.8
			c-1.3,0-1.9,0.8-1.9,2.5c0,1.7,0.6,2.5,1.9,2.5h8.2c1.3,0,1.9-0.8,1.9-2.5c0-1.7-0.6-2.5-1.9-2.5H6.5z"/>
	</defs>
	<clipPath id="1890">
		<use xlink:href="#1890" style="overflow:visible;"/>
	</clipPath>
	<rect class="stroke" width="20" height="136.7"/>
</g>
</svg>