<?xml version="1.0" encoding="utf-8"?>
<!-- Generator: Adobe Illustrator 19.2.1, SVG Export Plug-In . SVG Version: 6.00 Build 0)  -->
<svg version="1.1" id="Layer_1" xmlns="http://www.w3.org/2000/svg" xmlns:xlink="http://www.w3.org/1999/xlink" x="0px" y="0px"
	 viewBox="0 0 20 136.7" style="enable-background:new 0 0 20 136.7;" xml:space="preserve">
<style type="text/css">
	.st0{fill:none;}
</style>
<path class="st0" d="M1.7,49.5c0-0.3,0-0.6,0.6-0.6h13v-3.1c0-0.4,0.1-0.6,0.6-0.6h1.5c0.4,0,0.6,0.2,0.6,0.6v9.5
	c0,0.4-0.2,0.6-0.6,0.6h-1.5c-0.4,0-0.6-0.2-0.6-0.6v-3.2H4.9l0.6,3.2c0.1,0.4-0.1,0.6-0.5,0.6H3.4c-0.4,0-0.6-0.2-0.6-0.6L1.7,49.5
	z M14.3,31.1c1.9,0,3.8,1.2,3.8,5.3s-1.9,5.2-3.8,5.2h-0.6c-0.4,0-0.6-0.2-0.6-0.6v-2c0-0.4,0.2-0.5,0.6-0.5h0.2
	c1.1,0,1.7-0.6,1.7-2.1c0-1.5-0.6-2.1-1.7-2.1H11c0.4,0.6,0.7,1.5,0.7,2.6c0,3.6-1.9,4.9-3.9,4.9H5.5c-2,0-3.8-1.2-3.8-5.4
	c0-4.1,1.9-5.3,3.8-5.3H14.3z M6,34.2c-1.2,0-1.7,0.7-1.7,2.2c0,1.6,0.6,2.2,1.8,2.2h1.4c1.2,0,1.7-0.7,1.7-2.2
	c0-1.5-0.6-2.2-1.7-2.2H6z M1.7,20.6c0-0.3,0-0.6,0.6-0.6h13V17c0-0.4,0.1-0.6,0.6-0.6h1.5c0.4,0,0.6,0.2,0.6,0.6v9.5
	c0,0.4-0.2,0.6-0.6,0.6h-1.5c-0.4,0-0.6-0.2-0.6-0.6v-3.2H4.9l0.6,3.2c0.1,0.4-0.1,0.6-0.5,0.6H3.4c-0.4,0-0.6-0.2-0.6-0.6L1.7,20.6
	z M14.3,2.2c1.9,0,3.8,1.2,3.8,5.3s-1.9,5.2-3.8,5.2h-0.6c-0.4,0-0.6-0.2-0.6-0.6v-2c0-0.4,0.2-0.5,0.6-0.5h0.2
	c1.1,0,1.7-0.6,1.7-2.1c0-1.5-0.6-2.1-1.7-2.1H11c0.4,0.6,0.7,1.5,0.7,2.6c0,3.6-1.9,4.9-3.9,4.9H5.5c-2,0-3.8-1.2-3.8-5.4
	c0-4.1,1.9-5.3,3.8-5.3H14.3z M6,5.4C4.8,5.4,4.2,6,4.2,7.5c0,1.6,0.6,2.2,1.8,2.2h1.4c1.2,0,1.7-0.7,1.7-2.2c0-1.5-0.6-2.2-1.7-2.2
	H6z"/>
</svg>
