<?xml version="1.0" encoding="utf-8"?>
<!-- Generator: Adobe Illustrator 19.2.1, SVG Export Plug-In . SVG Version: 6.00 Build 0)  -->
<svg version="1.1" id="Layer_1" xmlns="http://www.w3.org/2000/svg" xmlns:xlink="http://www.w3.org/1999/xlink" x="0px" y="0px"
	 viewBox="0 0 20 136.7" style="enable-background:new 0 0 20 136.7;" xml:space="preserve">
<style type="text/css">
	.st0{fill:none;}
</style>
<path class="st0" d="M1.7,50c0-0.3,0-0.6,0.6-0.6h13.1v-3.1c0-0.4,0.1-0.6,0.6-0.6h1.5c0.4,0,0.6,0.2,0.6,0.6v9.5
	c0,0.4-0.2,0.6-0.6,0.6h-1.5c-0.4,0-0.6-0.2-0.6-0.6v-3.2H4.9l0.6,3.2c0.1,0.4-0.1,0.6-0.5,0.6H3.4c-0.4,0-0.6-0.2-0.6-0.6L1.7,50z
	 M14.3,31.5c1.9,0,3.8,1.2,3.8,5.3s-1.9,5.3-3.8,5.3h-0.6c-0.4,0-0.6-0.2-0.6-0.6v-2c0-0.4,0.2-0.5,0.6-0.5h0.2
	c1.1,0,1.7-0.6,1.7-2.2c0-1.5-0.6-2.2-1.7-2.2H11c0.4,0.6,0.7,1.5,0.7,2.6c0,3.6-1.9,5-3.9,5H5.5c-2,0-3.9-1.3-3.9-5.4
	c0-4.1,1.9-5.4,3.9-5.4H14.3z M6,34.7c-1.2,0-1.8,0.7-1.8,2.2c0,1.6,0.6,2.3,1.8,2.3h1.4c1.2,0,1.8-0.7,1.8-2.3
	c0-1.5-0.6-2.2-1.7-2.2H6z M8.4,22.6c0-1.6-0.6-2.3-1.8-2.3H6c-1.2,0-1.8,0.6-1.8,2.2c0,1.6,0.6,2.2,1.8,2.2h0.3
	c0.4,0,0.6,0.2,0.6,0.6v2c0,0.4-0.2,0.5-0.6,0.5H5.5c-2,0-3.9-1.1-3.9-5.3c0-4.2,1.8-5.3,3.8-5.3h1.7c1.2,0,2,0.5,2.5,1.8
	c0.5-1.5,1.5-2,2.7-2h2.1c2,0,3.8,1.2,3.8,5.4c0,4.2-1.9,5.5-3.9,5.5h-0.8c-0.4,0-0.6-0.1-0.6-0.6v-2c0-0.4,0.2-0.6,0.6-0.6h0.3
	c1.2,0,1.8-0.8,1.8-2.4c0-1.6-0.6-2.3-1.8-2.3h-1.2c-1.2,0-1.7,0.7-1.7,2.3v1.8c0,0.4-0.2,0.6-0.6,0.6H9c-0.4,0-0.6-0.2-0.6-0.6
	V22.6z M10.9,10.4V5.9H2.5c-0.4,0-0.6-0.1-0.6-0.6V3.3c0-0.4,0.2-0.6,0.6-0.6h14.9c0.4,0,0.6,0.1,0.6,0.6v2.1c0,0.4-0.2,0.6-0.6,0.6
	h-3.8v7.2c0,0.4-0.1,0.6-0.6,0.6h-1.4c-0.2,0-0.4,0-0.5-0.1L2.5,11c-0.4-0.1-0.6-0.3-0.6-0.7V8.2c0-0.4,0.2-0.5,0.6-0.4L10.9,10.4z"
	/>
</svg>
