<?xml version="1.0" encoding="utf-8"?>
<!-- Generator: Adobe Illustrator 19.2.1, SVG Export Plug-In . SVG Version: 6.00 Build 0)  -->
<svg version="1.1" id="Layer_1" xmlns="http://www.w3.org/2000/svg" xmlns:xlink="http://www.w3.org/1999/xlink" x="0px" y="0px"
	 viewBox="0 0 20 136.7" style="enable-background:new 0 0 20 136.7;" xml:space="preserve">
<style type="text/css">
	.st0{fill:none;}
</style>
<path class="st0" d="M1.7,49.9c0-0.3,0-0.6,0.6-0.6h12.8v-3.1c0-0.4,0.1-0.6,0.6-0.6h1.5c0.4,0,0.6,0.2,0.6,0.6v9.4
	c0,0.4-0.2,0.6-0.6,0.6h-1.5c-0.4,0-0.6-0.2-0.6-0.6v-3.2H4.9l0.6,3.1c0.1,0.4-0.1,0.6-0.5,0.6H3.4c-0.4,0-0.6-0.2-0.6-0.6L1.7,49.9
	z M14.1,31.7c1.9,0,3.8,1.2,3.8,5.2s-1.9,5.2-3.8,5.2h-0.6c-0.4,0-0.6-0.2-0.6-0.6v-1.9c0-0.4,0.2-0.5,0.6-0.5h0.2
	c1.1,0,1.7-0.6,1.7-2.1c0-1.5-0.6-2.1-1.7-2.1h-2.8c0.4,0.6,0.7,1.4,0.7,2.6c0,3.5-1.9,4.9-3.8,4.9H5.5c-2,0-3.8-1.2-3.8-5.3
	c0-4.1,1.8-5.3,3.8-5.3H14.1z M5.9,34.8c-1.1,0-1.7,0.7-1.7,2.1c0,1.5,0.6,2.2,1.7,2.2h1.4c1.2,0,1.7-0.7,1.7-2.2
	c0-1.5-0.6-2.1-1.7-2.1H5.9z M8.3,23c0-1.6-0.6-2.3-1.7-2.3H5.9c-1.1,0-1.7,0.6-1.7,2.1c0,1.5,0.6,2.2,1.7,2.2h0.3
	c0.4,0,0.6,0.2,0.6,0.6v1.9c0,0.4-0.2,0.5-0.6,0.5H5.5c-2,0-3.8-1.1-3.8-5.2c0-4.1,1.8-5.2,3.7-5.2H7c1.2,0,2,0.4,2.4,1.7
	c0.5-1.5,1.5-2,2.7-2h2.1c1.9,0,3.7,1.2,3.7,5.4c0,4.2-1.8,5.4-3.8,5.4h-0.7c-0.4,0-0.6-0.1-0.6-0.6v-1.9c0-0.4,0.2-0.6,0.6-0.6h0.3
	c1.1,0,1.7-0.8,1.7-2.3c0-1.5-0.6-2.3-1.7-2.3h-1.1c-1.2,0-1.7,0.7-1.7,2.3v1.8c0,0.4-0.2,0.6-0.6,0.6H8.9c-0.4,0-0.6-0.2-0.6-0.6
	V23z M5.5,13.4c-2,0-3.8-1-3.8-5c0-4.1,1.8-5,3.8-5H7c1.1,0,2,0.5,2.5,1.7c0.5-1.4,1.3-2,2.5-2h2.1c2,0,3.8,1.2,3.8,5.3
	c0,4.1-1.8,5.3-3.8,5.3H12c-1.2,0-2-0.6-2.5-2C9,12.9,8.2,13.4,7,13.4H5.5z M12.5,6.2c-1.2,0-1.7,0.7-1.7,2.2c0,1.5,0.5,2.2,1.7,2.2
	h1.2c1.2,0,1.7-0.6,1.7-2.2c0-1.5-0.6-2.2-1.7-2.2H12.5z M5.9,6.4c-1.2,0-1.7,0.5-1.7,2c0,1.5,0.6,2,1.7,2h0.6c1.2,0,1.7-0.5,1.7-2
	c0-1.5-0.6-2-1.7-2H5.9z"/>
</svg>
