<?xml version="1.0" encoding="utf-8"?>
<!-- Generator: Adobe Illustrator 19.2.1, SVG Export Plug-In . SVG Version: 6.00 Build 0)  -->
<svg version="1.1" id="Layer_1" xmlns="http://www.w3.org/2000/svg" xmlns:xlink="http://www.w3.org/1999/xlink" x="0px" y="0px"
	 viewBox="0 0 20 136.7" style="enable-background:new 0 0 20 136.7;" xml:space="preserve">
<style type="text/css">
	.st0{fill:none;}
</style>
<path class="st0" d="M2.1,49.1c0-0.3,0-0.6,0.6-0.6h12.9v-3.1c0-0.4,0.1-0.6,0.6-0.6h1.5c0.4,0,0.6,0.2,0.6,0.6v9.4
	c0,0.4-0.2,0.6-0.6,0.6h-1.5c-0.4,0-0.6-0.2-0.6-0.6v-3.2H5.2l0.6,3.2c0.1,0.4-0.1,0.6-0.5,0.6H3.8c-0.4,0-0.6-0.2-0.6-0.6L2.1,49.1
	z M14.6,30.8c1.9,0,3.8,1.2,3.8,5.3s-1.9,5.2-3.8,5.2h-0.6c-0.4,0-0.6-0.2-0.6-0.6v-1.9c0-0.4,0.2-0.5,0.6-0.5h0.2
	c1.1,0,1.7-0.6,1.7-2.1c0-1.5-0.6-2.1-1.7-2.1h-2.8c0.4,0.6,0.7,1.5,0.7,2.6c0,3.6-1.9,4.9-3.8,4.9H5.9c-2,0-3.8-1.2-3.8-5.3
	c0-4.1,1.8-5.3,3.8-5.3H14.6z M6.3,34c-1.1,0-1.7,0.7-1.7,2.2c0,1.5,0.6,2.2,1.8,2.2h1.4c1.2,0,1.7-0.7,1.7-2.2
	c0-1.5-0.6-2.2-1.7-2.2H6.3z M2.2,17.5c0-0.4,0.1-0.6,0.6-0.6h1.5c0.4,0,0.6,0.2,0.6,0.6v5.9h3.1v-1.6c0-4,1.7-5.4,3.7-5.4h2.9
	c2,0,3.8,1.2,3.8,5.4s-1.8,5.4-3.8,5.4h-0.7c-0.4,0-0.6-0.1-0.6-0.6v-1.9c0-0.4,0.2-0.6,0.6-0.6h0.3c1.2,0,1.8-0.7,1.8-2.3
	c0-1.6-0.6-2.3-1.8-2.3h-2c-1.1,0-1.6,0.7-1.6,2.3V26c0,0.4-0.2,0.5-0.6,0.5h-7c-0.4,0-0.6-0.1-0.6-0.5V17.5z M5.9,12.8
	c-1.9,0-3.8-1.2-3.8-5.3S4,2.3,5.9,2.3h0.6C6.9,2.3,7,2.5,7,2.9v1.9c0,0.4-0.2,0.5-0.6,0.5H6.3C5.2,5.4,4.6,6,4.6,7.5
	c0,1.5,0.6,2.2,1.7,2.2h2.9C8.7,9,8.4,8.2,8.4,7c0-3.6,1.9-4.9,3.8-4.9h2.3c2,0,3.8,1.2,3.8,5.3c0,4.1-1.8,5.3-3.8,5.3H5.9z
	 M12.7,5.3c-1.2,0-1.7,0.7-1.7,2.2c0,1.4,0.6,2.2,1.6,2.2h1.5c1.2,0,1.8-0.7,1.8-2.2c0-1.5-0.6-2.2-1.8-2.2H12.7z"/>
</svg>
