<?xml version="1.0" encoding="utf-8"?>
<!-- Generator: Adobe Illustrator 19.2.1, SVG Export Plug-In . SVG Version: 6.00 Build 0)  -->
<svg version="1.1" id="Layer_1" xmlns="http://www.w3.org/2000/svg" xmlns:xlink="http://www.w3.org/1999/xlink" x="0px" y="0px"
	 viewBox="0 0 20 136.7" style="enable-background:new 0 0 20 136.7;" xml:space="preserve">
<style type="text/css">
	.st0{fill:none;}
</style>
<path class="st0" d="M1.7,50.5c0-0.3,0-0.6,0.6-0.6h13.1v-3.1c0-0.4,0.1-0.6,0.6-0.6h1.5c0.4,0,0.6,0.2,0.6,0.6v9.6
	c0,0.4-0.2,0.6-0.6,0.6H16c-0.4,0-0.6-0.2-0.6-0.6v-3.2H4.9l0.6,3.2c0.1,0.4-0.1,0.6-0.5,0.6H3.4c-0.4,0-0.6-0.2-0.6-0.6L1.7,50.5z
	 M14.4,31.8c1.9,0,3.9,1.2,3.9,5.4s-1.9,5.3-3.9,5.3h-0.6c-0.4,0-0.6-0.2-0.6-0.6v-2c0-0.4,0.2-0.5,0.6-0.5H14
	c1.1,0,1.7-0.6,1.7-2.2c0-1.6-0.6-2.2-1.7-2.2h-2.9c0.4,0.6,0.7,1.5,0.7,2.6c0,3.6-1.9,5-3.9,5H5.6c-2,0-3.9-1.3-3.9-5.4
	c0-4.2,1.9-5.4,3.9-5.4H14.4z M6,35c-1.2,0-1.8,0.7-1.8,2.2c0,1.6,0.6,2.3,1.8,2.3h1.4c1.2,0,1.8-0.7,1.8-2.3c0-1.5-0.6-2.2-1.7-2.2
	H6z M5.5,28c-1.9,0-3.9-1.2-3.9-5.4s1.9-5.3,3.9-5.3h0.6c0.4,0,0.6,0.2,0.6,0.6v2c0,0.4-0.2,0.5-0.6,0.5H6c-1.1,0-1.7,0.6-1.7,2.2
	c0,1.6,0.6,2.2,1.7,2.2h2.9c-0.4-0.6-0.7-1.5-0.7-2.7c0-3.7,1.9-5,3.9-5h2.3c2,0,3.9,1.3,3.9,5.4c0,4.2-1.9,5.4-3.9,5.4H5.5z
	 M12.5,20.3c-1.2,0-1.8,0.7-1.8,2.2c0,1.5,0.6,2.2,1.6,2.2h1.5c1.2,0,1.8-0.7,1.8-2.2c0-1.6-0.6-2.2-1.8-2.2H12.5z M14.4,2.6
	c1.9,0,3.9,1.2,3.9,5.4s-1.9,5.3-3.9,5.3h-0.6c-0.4,0-0.6-0.2-0.6-0.6v-2c0-0.4,0.2-0.5,0.6-0.5H14c1.1,0,1.7-0.6,1.7-2.2
	c0-1.6-0.6-2.2-1.7-2.2h-2.9c0.4,0.6,0.7,1.5,0.7,2.6c0,3.6-1.9,5-3.9,5H5.6c-2,0-3.9-1.3-3.9-5.4c0-4.2,1.9-5.4,3.9-5.4H14.4z
	 M6,5.8C4.8,5.8,4.2,6.4,4.2,8c0,1.6,0.6,2.3,1.8,2.3h1.4c1.2,0,1.8-0.7,1.8-2.3c0-1.5-0.6-2.2-1.7-2.2H6z"/>
</svg>
