<?xml version="1.0" encoding="utf-8"?>
<!-- Generator: Adobe Illustrator 19.2.1, SVG Export Plug-In . SVG Version: 6.00 Build 0)  -->
<svg version="1.1" id="Layer_1" xmlns="http://www.w3.org/2000/svg" xmlns:xlink="http://www.w3.org/1999/xlink" x="0px" y="0px"
	 viewBox="0 0 20 136.7" style="enable-background:new 0 0 20 136.7;" xml:space="preserve">
<style type="text/css">
	.st0{fill:none;}
</style>
<path class="st0" d="M1.5,50c0-0.3,0-0.6,0.6-0.6h13v-3.1c0-0.4,0.1-0.6,0.6-0.6h1.5c0.4,0,0.6,0.2,0.6,0.6v9.5
	c0,0.4-0.2,0.6-0.6,0.6h-1.5c-0.4,0-0.6-0.2-0.6-0.6v-3.2H4.7l0.6,3.2c0.1,0.4-0.1,0.6-0.5,0.6H3.2c-0.4,0-0.6-0.2-0.6-0.6L1.5,50z
	 M14.1,31.6c1.9,0,3.8,1.2,3.8,5.3s-1.9,5.2-3.8,5.2h-0.6c-0.4,0-0.6-0.2-0.6-0.6v-2c0-0.4,0.2-0.5,0.6-0.5h0.2
	c1.1,0,1.7-0.6,1.7-2.1c0-1.5-0.6-2.1-1.7-2.1h-2.9c0.4,0.6,0.7,1.5,0.7,2.6c0,3.6-1.9,4.9-3.9,4.9H5.3c-2,0-3.8-1.3-3.8-5.4
	c0-4.1,1.9-5.3,3.8-5.3H14.1z M5.8,34.7c-1.2,0-1.7,0.7-1.7,2.2c0,1.6,0.6,2.2,1.8,2.2h1.4c1.2,0,1.7-0.7,1.7-2.2
	c0-1.5-0.6-2.2-1.7-2.2H5.8z M5.3,27.5c-2,0-3.8-1-3.8-5.1c0-4.1,1.9-5.1,3.8-5.1h1.6c1.2,0,2,0.5,2.5,1.8c0.5-1.4,1.3-2,2.5-2h2.1
	c2,0,3.8,1.2,3.8,5.3c0,4.1-1.9,5.3-3.8,5.3h-2.1c-1.2,0-2-0.6-2.5-2c-0.5,1.2-1.3,1.8-2.5,1.8H5.3z M12.4,20.2
	c-1.2,0-1.7,0.7-1.7,2.2c0,1.6,0.5,2.2,1.7,2.2h1.2c1.2,0,1.8-0.6,1.8-2.2c0-1.5-0.6-2.2-1.8-2.2H12.4z M5.8,20.5
	c-1.2,0-1.8,0.5-1.8,2c0,1.5,0.6,2,1.8,2h0.6c1.2,0,1.8-0.5,1.8-2c0-1.5-0.6-2-1.8-2H5.8z M5.3,13.5c-2,0-3.8-1.4-3.8-5.5
	c0-4.1,1.9-5.5,3.8-5.5h8.7c2,0,3.8,1.4,3.8,5.5c0,4.1-1.9,5.5-3.8,5.5H5.3z M5.9,5.7C4.7,5.7,4.1,6.5,4.1,8c0,1.6,0.6,2.3,1.8,2.3
	h7.6c1.2,0,1.8-0.8,1.8-2.3c0-1.5-0.6-2.3-1.8-2.3H5.9z"/>
</svg>
