<?xml version="1.0" encoding="utf-8"?>
<!-- Generator: Adobe Illustrator 19.2.1, SVG Export Plug-In . SVG Version: 6.00 Build 0)  -->
<svg version="1.1" id="Layer_1" xmlns="http://www.w3.org/2000/svg" xmlns:xlink="http://www.w3.org/1999/xlink" x="0px" y="0px"
	 viewBox="0 0 20 136.7" style="enable-background:new 0 0 20 136.7;" xml:space="preserve">
<style type="text/css">
	.st0{fill:none;}
</style>
<path class="st0" d="M15,46.3c0-0.4,0.1-0.6,0.6-0.6H17c0.4,0,0.6,0.2,0.6,0.6v9.3c0,0.4-0.2,0.6-0.6,0.6h-4.3
	c-1.3,0-1.7-0.8-2.1-1.6l-2-4.8c-0.2-0.4-0.5-0.9-1.3-0.9H6c-1.2,0-1.7,0.7-1.7,2.3c0,1.5,0.6,2.3,1.7,2.3h0.9
	c0.4,0,0.6,0.1,0.6,0.5v1.9c0,0.4-0.2,0.6-0.6,0.6H5.4c-2,0-3.8-1.3-3.8-5.3c0-4,1.8-5.4,3.8-5.4h1.8c2.3,0,3.1,1.3,3.5,2.2l1.6,3.9
	c0.3,0.7,0.5,1.1,1.3,1.1H15V46.3z M5.4,42.4c-2,0-3.8-1.3-3.8-5.4c0-4,1.8-5.4,3.8-5.4H14c1.9,0,3.8,1.4,3.8,5.4
	c0,4.1-1.8,5.4-3.8,5.4H5.4z M6,34.7c-1.2,0-1.7,0.8-1.7,2.3c0,1.5,0.6,2.3,1.7,2.3h7.5c1.2,0,1.7-0.7,1.7-2.3
	c0-1.5-0.6-2.3-1.7-2.3H6z M1.7,21.4c0-0.3,0-0.6,0.6-0.6H15v-3c0-0.4,0.1-0.6,0.6-0.6H17c0.4,0,0.6,0.2,0.6,0.6v9.3
	c0,0.4-0.2,0.6-0.6,0.6h-1.5c-0.4,0-0.6-0.2-0.6-0.6V24H4.8l0.6,3.1c0.1,0.4-0.1,0.6-0.5,0.6H3.4c-0.4,0-0.6-0.2-0.6-0.6L1.7,21.4z
	 M5.4,13.8c-1.9,0-3.8-1.2-3.8-5.2s1.9-5.2,3.8-5.2H6c0.4,0,0.6,0.2,0.6,0.6v1.9c0,0.4-0.2,0.5-0.6,0.5H5.9C4.8,6.4,4.2,7,4.2,8.6
	c0,1.5,0.6,2.1,1.7,2.1h2.8C8.3,10.1,8,9.2,8,8.1c0-3.6,1.9-4.9,3.8-4.9H14c1.9,0,3.8,1.2,3.8,5.3c0,4-1.8,5.2-3.8,5.2H5.4z
	 M12.2,6.3c-1.2,0-1.7,0.6-1.7,2.2c0,1.4,0.6,2.2,1.6,2.2h1.5c1.2,0,1.7-0.7,1.7-2.2c0-1.5-0.6-2.2-1.7-2.2H12.2z"/>
</svg>
