<?xml version="1.0" encoding="utf-8"?>
<!-- Generator: Adobe Illustrator 19.2.1, SVG Export Plug-In . SVG Version: 6.00 Build 0)  -->
<svg version="1.1" id="Layer_1" xmlns="http://www.w3.org/2000/svg" xmlns:xlink="http://www.w3.org/1999/xlink" x="0px" y="0px"
	 viewBox="0 0 400 224" style="enable-background:new 0 0 400 224;" xml:space="preserve">
<style type="text/css">
	.st0{fill:#3C2415;}
	.st1{fill:none;stroke:#3C2415;stroke-width:1.2172;stroke-miterlimit:10;}
</style>
<g>
	<path class="st0" d="M208.1,59.5c-0.5-0.1-1-0.3-1.5-0.4c-3.3-1-5.9-1.8-9.1-0.5c-3.2,1.3-7.3,1.2-11.2-0.3c-1.9-0.7-4.1-2-6.4-3.8
		l-0.3,0.4c2.4,1.8,4.6,3.1,6.6,3.9c4,1.5,8.3,1.6,11.6,0.3c3-1.2,5.5-0.4,8.7,0.5c0.5,0.1,1,0.3,1.5,0.4c0.4,0.1,1,0.2,1.8,0.4
		c1.3,0.3,3,0.6,5,1.2v-0.5c-1.9-0.6-3.7-1-5-1.2C209.1,59.8,208.5,59.6,208.1,59.5z"/>
	<path class="st0" d="M159.7,97.5c-3.3-1.6-6.3-2.4-9.3-2.9l-0.8,1.1c3,0.4,6.1,1.2,9.4,2.7L159.7,97.5z"/>
	<path class="st0" d="M185.4,97.3c0.5,0.6,1.1,1.3,1.7,2.1c2,2.6,4.5,5.9,8,5c5-1.2,9.5-3.1,13.8-5c1.6-0.7,3.3-1.4,5-2.1
		c0.2-0.1,0.5-0.2,0.8-0.2v-0.5c-0.4,0.1-0.8,0.2-1.1,0.3c-1.7,0.7-3.4,1.4-5,2.1c-4.5,1.9-8.8,3.8-13.7,4.9
		c-3.2,0.8-5.4-2.2-7.4-4.8c-0.6-0.8-1.2-1.5-1.7-2.1c-0.4-0.4-0.8-0.9-1.3-1.3v0.7C184.8,96.7,185.1,97,185.4,97.3z"/>
	<path class="st0" d="M195.4,93.4c4.9-0.5,9.1-1.2,13.5-2.7c0.6-0.2,1.1-0.4,1.7-0.6c1.4-0.5,2.8-1,4.2-1.5v-0.6
		c-1.5,0.5-3,1-4.5,1.6c-0.5,0.2-1.1,0.4-1.7,0.6c-4.3,1.5-8.5,2.2-13.4,2.7c-4.4,0.5-7.5-2.4-10.7-5.4v0.6
		C187.7,91.2,190.9,93.9,195.4,93.4z"/>
	<path class="st0" d="M163.4,90.7c-2.4-1.1-5.2-1.9-8.2-2.7l-0.3,0.4c3,0.7,5.9,1.6,8.3,2.7c0.3,0.1,0.5,0.3,0.8,0.4l0.3-0.4
		C164,91,163.7,90.9,163.4,90.7z"/>
	<path class="st0" d="M171.8,79.9c-2.4-1.1-5.1-2.4-7.9-3.7l-0.3,0.4c2.8,1.4,5.5,2.6,8,3.8c0.2,0.1,0.4,0.2,0.5,0.3l0.3-0.4
		C172.3,80.1,172.1,80,171.8,79.9z"/>
	<path class="st0" d="M196.9,55.6c-1.8,0-3.5,0.1-5.2,0c-4-0.2-7.1-1.3-10.1-3.5l-0.3,0.4c3.1,2.2,6.3,3.4,10.4,3.6
		c1.7,0.1,3.4,0,5.2,0c3.6-0.1,7.2-0.2,10.7,0.6c2.3,0.5,4.7,0.9,7.1,1.2v-0.5c-2.4-0.3-4.8-0.7-7-1.2
		C204.2,55.5,200.5,55.6,196.9,55.6z"/>
	<path class="st0" d="M168.6,85.5l0.3-0.4c-2.3-1-4.6-2-7.1-3c-0.6-0.2-1.1-0.5-1.7-0.7l-0.3,0.4c0.6,0.3,1.2,0.5,1.9,0.8
		C164.1,83.5,166.4,84.4,168.6,85.5z"/>
	<path class="st0" d="M181.9,67.6l0.7-1c-2.8-1.7-5.3-3.7-7.3-5.8l-0.7,1C176.6,63.9,179.1,65.9,181.9,67.6z"/>
	<path class="st0" d="M208.9,80.6c-3,1.4-7.4,3.5-16.3,1.1c-3.7-1-5.8-2.5-8.2-4.5v0.6c2.3,1.9,4.4,3.4,8.1,4.4
		c9.1,2.5,13.6,0.3,16.6-1.1c0.4-0.2,0.7-0.3,1-0.5c1.5-0.6,3-1,4.5-1.2v-0.5c-1.6,0.2-3.2,0.6-4.8,1.3
		C209.6,80.2,209.3,80.4,208.9,80.6z"/>
	<path class="st0" d="M190.3,61.2c-3.3-0.1-6.5-0.2-10-3.9c-0.4-0.5-0.9-0.9-1.3-1.4l-0.7,1c0.4,0.4,0.7,0.8,1.1,1.2
		c4.1,4.3,7.9,4.4,11.2,4.5c3.5,0.1,6.9,0.2,10.7,4.9c0.5,0.7,0.6,1.2,0.2,1.7c-1.2,1.7-7,2.5-14.3-0.3c-0.9-0.3-1.8-0.8-2.6-1.2V69
		c0.8,0.4,1.5,0.7,2.3,1c7.6,2.9,14.1,2.3,15.8,0c0.7-0.9,0.6-2.1-0.4-3.2C197.9,61.4,194,61.3,190.3,61.2z"/>
	<path class="st0" d="M176.6,70.7c-0.9-0.7-1.8-1.3-2.7-1.9c-1.1-0.7-2-1.4-3-2.1l-0.3,0.4c0.9,0.7,1.9,1.4,3,2.1
		c0.8,0.6,1.7,1.2,2.7,1.9c0.7,0.5,1.3,1,1.9,1.4l0.3-0.4C177.9,71.7,177.3,71.2,176.6,70.7z"/>
	<path class="st0" d="M196.2,40.3c-1.3,0.1-3.2,0-5.5-0.4l-0.8,1.1c2.7,0.7,5.1,0.7,6.6,0.6c1.6-0.1,3.2-0.2,4.8-0.4
		c4.2-0.4,8.5-0.8,13.4-0.3v-1.3c-5.1-0.6-9.6-0.1-13.8,0.2C199.3,40.1,197.7,40.2,196.2,40.3z"/>
	<path class="st0" d="M221.8,135.1c-1.7,0.9-3.4,2.1-5,3.3c-2.2,1.6-4.2,3.1-6.2,3.6c-0.6,0.2-1.2,0.6-1.7,1.4
		c-0.5,0.7-1,1.6-1.4,2.4c-0.5,0.9-0.9,1.8-1.4,2.5l0,0c-0.7,0.9-1.4,1.4-2.1,1.4c-5.4,0.3-9.4-6.8-12.9-13.1
		c-1.8-3.2-3.5-6.3-5.2-7.8c-0.4-0.3-0.8-0.7-1.3-1v0.6c0.4,0.2,0.7,0.5,1,0.8c1.6,1.5,3.3,4.5,5.1,7.7c3.6,6.4,7.7,13.7,13.5,13.4
		c0.9,0,1.7-0.6,2.4-1.6l0,0c0.5-0.7,1-1.6,1.5-2.5c0.5-0.9,0.9-1.7,1.4-2.4c0.5-0.7,1-1.1,1.5-1.2c2-0.5,4.1-2,6.3-3.6
		c1.9-1.4,3.9-2.8,5.9-3.7H221.8z"/>
	<path class="st0" d="M177.6,184.6c0-0.1,0-0.1,0-0.2c-0.1,0.1-0.2,0.1-0.3,0.2H177.6z"/>
	<path class="st0" d="M188.9,111.1c1.2,1.6,3.2,3.6,5.6,4.2c1.5,0.4,2.9,0.1,4.1-0.7c1.7-1.1,4.5-0.5,7.1,0c2.8,0.6,5.7,1.2,7.5-0.2
		c0.4-0.3,1-0.6,1.6-1v-0.6c-0.8,0.4-1.5,0.8-2,1.2c-1.7,1.3-4.3,0.7-7.1,0.1c-2.7-0.6-5.5-1.2-7.5,0c-1.2,0.7-2.4,1-3.7,0.6
		c-1.7-0.4-3.6-1.9-5.2-4c-1.3-1.7-3.1-3.2-4.8-4.5v0.6C186.1,108.2,187.7,109.5,188.9,111.1z"/>
	<path class="st0" d="M177,184.6c0-0.2,0-0.3,0-0.5c-0.3,0.2-0.6,0.3-0.8,0.5H177z"/>
	<path class="st0" d="M191.2,158.7c1.6,4.2,4.7,8.1,8.5,10.8c5.9,4.1,9.5,0.9,11.9-2.4c0.8-1,1.4-2.1,2.1-3.2c0.3-0.5,0.7-1.1,1-1.5
		v-1c-0.5,0.7-1,1.4-1.5,2.2c-0.7,1-1.3,2.1-2.1,3.1c-2.4,3.3-5.7,6.1-11.2,2.3c-3.7-2.6-6.7-6.4-8.3-10.5
		c-1.7-4.6-3.5-7.2-7.3-10.4v0.6C187.9,151.8,189.6,154.3,191.2,158.7z"/>
	<path class="st0" d="M190,124.8c3,3,5.8,5.9,10.8,7.8c2,0.7,3.5-0.8,4.7-2.4c0,0,0,0,0,0c0.3-0.4,0.5-0.7,0.8-1.1
		c0.2-0.3,0.5-0.7,0.7-1c0.4-0.5,0.7-0.9,1-1.1c0.7-0.6,2.5-0.2,4.2,0.2c0.9,0.2,1.7,0.3,2.5,0.4v-1.3c-0.7-0.1-1.6-0.2-2.5-0.4
		c-2-0.4-4.2-0.8-5.3,0.1c-0.3,0.3-0.7,0.7-1.1,1.3c-0.2,0.3-0.5,0.7-0.7,1c-0.2,0.4-0.5,0.7-0.8,1.1c0,0,0,0,0,0
		c-0.9,1.2-2.1,2.6-3.3,2.1c-4.6-1.7-7.2-4.3-10.1-7.3c-1.8-1.9-3.8-3.9-6.5-5.9v1.5C186.7,121.4,188.4,123.2,190,124.8z"/>
	<path class="st0" d="M178.3,142c-0.5-0.7-0.8-1.4-1.2-2.1c-0.6-1.2-1.2-2.5-2.4-3.6c-0.4-0.4-0.8-0.8-1.3-1.2h-0.8
		c0.6,0.5,1.1,0.9,1.7,1.5c1.1,1.1,1.7,2.3,2.3,3.5c0.4,0.7,0.7,1.4,1.2,2.2c0.5,0.8,1.1,1.5,1.7,2.2h0.6
		C179.5,143.6,178.9,142.8,178.3,142z"/>
	<path class="st0" d="M176.7,176.5c-0.2,0-0.3,0.1-0.5,0.1c0.4,1.6,0.6,3.1,0.7,4.6c0,0.9,0.1,1.9,0.1,2.8c0.2-0.1,0.4-0.2,0.5-0.3
		c0-0.8,0-1.6-0.1-2.4C177.4,179.8,177.1,178.2,176.7,176.5z"/>
	<path class="st0" d="M134.9,125.3c0.9,0.7,1.6,1.6,2.3,2.4l0.3-0.4c-0.7-0.8-1.5-1.6-2.3-2.3c-0.5-0.4-0.9-0.8-1.4-1.3
		c-0.9-0.9-1.9-1.7-2.9-2.5l-0.3,0.4c1,0.7,2,1.6,2.9,2.4C133.9,124.4,134.4,124.9,134.9,125.3z"/>
	<path class="st0" d="M200.5,44.3c-2.7,0.2-4.8,0.9-6.4,1.4c-2.8,0.9-4.5,1.5-7.1-0.7l-0.3,0.4c2.9,2.4,4.8,1.8,7.7,0.8
		c1.6-0.5,3.6-1.2,6.3-1.4c4.5-0.4,9.3,0.7,14.1,2.1v-0.5C209.9,45,205,43.9,200.5,44.3z"/>
	<path class="st0" d="M367.5,107.6c-0.6,0.9-1.2,1.7-0.4,3.5c0.8,2,2.2,3.8,3.5,5.6c0.5,0.6,1,1.3,1.4,1.9v-0.8
		c-0.3-0.4-0.7-0.9-1-1.3c-1.3-1.8-2.7-3.6-3.4-5.5c-0.6-1.6-0.2-2.2,0.4-3c0.3-0.4,0.7-1,0.9-1.7c0.6-2.1-0.8-4.3-2-6.2
		c-0.1-0.2-0.2-0.3-0.3-0.5c-5.8-9.1-11.8-18.5-23.3-22.1c-0.3-0.1-0.6-0.2-0.9-0.3c-0.2-0.1-0.4-0.1-0.6-0.2v0.5
		c0.2,0.1,0.4,0.1,0.5,0.2c0.3,0.1,0.6,0.2,0.9,0.3c11.3,3.5,17.2,12.8,22.9,21.8c0.1,0.2,0.2,0.3,0.3,0.5c1.2,1.8,2.5,3.9,2,5.8
		C368.2,106.7,367.8,107.1,367.5,107.6z"/>
	<path class="st0" d="M328.4,77.7l0.2,0.1c0.7,0.3,1.4,0.6,2.2,1l0.3-0.4c-0.9-0.4-1.7-0.8-2.4-1.1l-0.2-0.1
		c-1.4-0.6-2.9-2.8-4.3-5.1l-0.3,0.4C325.4,74.8,326.8,77,328.4,77.7z"/>
	<path class="st0" d="M345.3,48c3.8-0.6,6-1.9,8.6-3.3c1.6-0.9,3.3-1.8,5.6-2.7c4.6-1.8,7.9-2.9,12.6-2.3v-0.5
		c-4.8-0.6-8.2,0.5-12.9,2.3c-2.3,0.9-4,1.8-5.7,2.7c-2.5,1.4-4.7,2.6-8.4,3.2c-0.7,0.1-1.7,0.2-2.8,0.2l-0.4,0.5
		C343.2,48.2,344.4,48.2,345.3,48z"/>
	<path class="st0" d="M349.6,42.2c1.1-0.5,2.1-1.1,3.2-1.8c2.7-1.5,5.4-3.1,8.4-3.6l0.6-0.1c3.1-0.6,5.1-0.9,8.5-0.3
		c0.5,0.1,1.1,0.2,1.6,0.4v-0.5c-0.4-0.1-0.8-0.2-1.1-0.3h-8.1c-0.4,0.1-0.8,0.1-1.2,0.2l-0.6,0.1c-3,0.6-5.8,2.2-8.5,3.7
		c-1.1,0.6-2.2,1.2-3.2,1.8c-1,0.5-2.1,0.8-3.4,0.9l-0.4,0.6C347,43.1,348.4,42.8,349.6,42.2z"/>
	<path class="st0" d="M376.1,135.1h-0.6c0.9,1.4,1.9,2.7,2.9,4c1.3,1.7,2.7,3.4,3.7,5.3h0.6c-1-2-2.4-3.8-3.8-5.6
		C377.9,137.6,376.9,136.3,376.1,135.1z"/>
	<path class="st0" d="M37.5,37.2c3.7,0.1,8.1-0.6,11-1.7c0.9-0.4,1.6-0.9,2.2-1.3c-0.4,0-0.8,0.1-1.2,0.1c-0.4,0.3-0.8,0.5-1.4,0.7
		c-2.7,1.1-7,1.8-10.6,1.7c-0.5,0.2-1,0.3-1.5,0.5C36.5,37.2,36.9,37.2,37.5,37.2z"/>
	<path class="st0" d="M48.9,186.2c-3.9-1.9-9-3.4-13.5-4.5c-5.6-1.5-8.4-3.3-10.9-4.8c-2.4-1.5-4.4-2.8-8.1-3.5
		c-1.2-0.2-2.2-0.4-3.2-0.4c0.2,0.2,0.4,0.4,0.6,0.6c0.8,0.1,1.6,0.2,2.6,0.4c3.6,0.7,5.6,2,7.9,3.4c2.5,1.6,5.4,3.4,11.1,4.9
		c4.2,1.1,8.9,2.4,12.7,4.2c0.4,0,0.9,0.1,1.3,0.1C49.2,186.4,49.1,186.3,48.9,186.2z"/>
	<path class="st0" d="M85.6,170.6c-1-0.5-1.8-0.8-2.2-1c-0.6-0.4-1.3-0.8-1.9-1.1c-0.1,0.1-0.2,0.3-0.3,0.4c0.6,0.4,1.3,0.8,2,1.2
		c0.4,0.2,1.2,0.6,2.2,1.1c2.3,1.1,6,2.7,9.2,4.8c0.1-0.1,0.3-0.2,0.4-0.3C91.7,173.4,87.9,171.7,85.6,170.6z"/>
	<path class="st0" d="M27.8,175.8c2.9,1.2,4.1,1.2,5.2,1.3c1.1,0,2.2,0.1,5,1.1c5.4,2.2,10.6,3.2,15.5,4.1c1.5,0.3,3.2,1,4.7,1.6
		c2.8,1.2,5.7,2.4,8.3,1.4c1.6-0.6,2.9-1.6,4.1-2.6c1.7-1.3,3.4-2.6,5.8-2.9c0.6-0.1,1.3-0.1,2-0.2c2.2-0.1,4.6-0.3,5.6-1.7
		c0.5-0.6,0.7-1.5,0.4-2.8c-0.4-2-2-3.8-3.9-5.3c-0.1,0.1-0.2,0.2-0.3,0.4c1.8,1.4,3.3,3.1,3.7,5c0.7,3.6-2.5,3.8-5.6,4
		c-0.7,0-1.4,0.1-2.1,0.2c-2.5,0.3-4.3,1.7-6,3c-1.2,0.9-2.5,1.9-4,2.5c-2.4,0.9-5.1-0.2-7.9-1.4c-1.6-0.7-3.2-1.4-4.9-1.7
		c-4.8-0.9-10-1.9-15.4-4.1c-2.8-1.1-4-1.2-5.2-1.2c-1.2,0-2.2-0.1-5-1.2c-1.7-0.7-3-1.6-4.5-2.6c-3.2-2.1-7.1-4.8-16-7.1
		c0.1,0.2,0.2,0.4,0.4,0.6c8.5,2.3,12.3,4.8,15.4,6.9C24.7,174.1,26.1,175.1,27.8,175.8z"/>
	<path class="st0" d="M354,36h-1.6c-0.8,0.3-1.5,0.7-2.3,1.1l-0.8,1C351,37.2,352.3,36.5,354,36z"/>
	<path class="st0" d="M150.9,142.1c-0.7-0.7-1.5-1.4-2.3-1.8c-1.8-1-2.9-2-4.3-3.8c-0.3-0.4-0.7-0.9-1-1.3h-0.6
		c0.4,0.5,0.8,1.1,1.2,1.6c1.5,1.9,2.7,2.9,4.5,4c0.7,0.4,1.4,1.1,2.1,1.7c0.6,0.6,1.2,1.1,1.9,1.6c0.2,0.1,0.4,0.3,0.6,0.4h0.8
		c-0.4-0.3-0.8-0.5-1.2-0.8C152,143.2,151.4,142.6,150.9,142.1z"/>
	<path class="st0" d="M166.7,179.7v1.4c0.2,0.4,0.3,0.8,0.5,1.2c0.3,0.8,0.6,1.5,0.9,2.3h0.5c-0.3-0.8-0.7-1.6-1-2.4
		C167.4,181.4,167,180.5,166.7,179.7z"/>
	<path class="st0" d="M153.7,104.9c-1.4-0.9-4.5-2.2-8.1-3.7l-0.3,0.4c3.7,1.5,6.8,2.8,8.2,3.7c0.1,0.1,0.2,0.1,0.3,0.2l0.3-0.4
		C153.9,105.1,153.8,105,153.7,104.9z"/>
	<path class="st0" d="M146.8,111.7c-1.3-0.8-2.6-1.6-3.9-2.4c-0.8-0.5-1.5-1-2.3-1.4l-0.3,0.4c0.8,0.5,1.6,1,2.4,1.5
		c1.3,0.8,2.6,1.6,3.9,2.4c0.5,0.3,1,0.6,1.5,0.9l0.3-0.4C147.9,112.4,147.3,112.1,146.8,111.7z"/>
	<path class="st0" d="M185.1,51.9c3.8,1.6,8.9,1.2,13.8,0.7c3.9-0.4,7.6-0.7,10.6-0.1c1.7,0.4,3.4,0.7,5.2,1.2v-0.5
		c-1.7-0.4-3.4-0.8-5.2-1.2c-3.2-0.6-6.9-0.3-10.8,0c-4.8,0.4-9.8,0.9-13.5-0.7c-0.8-0.3-1.5-0.7-2.2-1.2l-0.3,0.4
		C183.5,51.1,184.3,51.6,185.1,51.9z"/>
	<path class="st0" d="M139.8,141.2c-1.3-0.3-2.5-0.6-4.3-1.9c-1-0.6-8.7-6.1-11.2-8.5c-0.1-0.1-0.2-0.2-0.3-0.3l-0.3,0.4
		c0.1,0.1,0.1,0.2,0.2,0.2c2.5,2.5,10.3,7.9,11.3,8.6c2,1.3,3.3,1.7,4.5,2c1.5,0.4,2.9,0.8,5.4,2.7h0.8
		C143,142,141.4,141.6,139.8,141.2z"/>
	<path class="st0" d="M323.2,81.5c1.2,0.9,2.4,1.8,3.6,2.7l0.7-0.9c-1.2-0.9-2.4-1.8-3.6-2.7c-1.3-1-2.6-1.9-3.8-2.8l-0.7,0.9
		C320.6,79.6,321.9,80.6,323.2,81.5z"/>
	<path class="st0" d="M238.8,143.7c-0.4,0.2-0.9,0.4-1.3,0.7h1.2c0.1-0.1,0.3-0.1,0.4-0.2c0.2-0.1,0.4-0.2,0.6-0.3v-0.6
		C239.4,143.4,239.1,143.5,238.8,143.7z"/>
	<path class="st0" d="M26.6,42.8c2.4,1.3,4.8,2.6,7.4,3.3c1.7,0.5,3.6,0.8,5.6,0.9c0.2-0.2,0.4-0.3,0.6-0.5
		c-2.1-0.1-4.2-0.4-6.1-0.9c-2.5-0.7-4.9-2-7.2-3.2c-0.2-0.1-0.5-0.2-0.7-0.4c-0.2,0.1-0.3,0.2-0.5,0.3
		C25.9,42.5,26.3,42.6,26.6,42.8z"/>
	<path class="st0" d="M23.1,145.3c-0.3-0.2-0.6-0.3-0.9-0.4c-1.8-0.8-3.2-1.1-5.3-1.3c-3.6-0.3-8.7-0.6-12.1,0.1
		c-0.5,0.1-0.9,0.3-1.4,0.5c0,0.2-0.1,0.4-0.1,0.6c0.6-0.3,1.2-0.5,1.7-0.6c3.3-0.8,8.4-0.4,11.9-0.1c2,0.2,3.3,0.5,5.1,1.2
		c0.3,0.1,0.6,0.3,0.9,0.4c1.1,0.6,2.5,1.2,3.6,0.9c0-0.2,0-0.4,0-0.6C25.7,146.5,24.3,145.8,23.1,145.3z"/>
	<path class="st0" d="M195.3,38c1.6-0.3,3.1-0.7,4.5-1c1.6-0.4,3.1-0.7,4.6-1h-2.7c-0.7,0.2-1.4,0.3-2.1,0.5c-1.4,0.3-2.9,0.7-4.5,1
		c-1,0.2-1.9,0.3-2.8,0.3l-0.4,0.5C193,38.3,194.2,38.2,195.3,38z"/>
	<path class="st0" d="M386.5,183.5c-0.4-0.4-0.9-0.9-1.4-1.4c-1.7-1.7-3.5-3.6-5.2-5.6c-0.3-0.1-0.6-0.1-0.8-0.2
		c1.8,2.2,3.9,4.3,5.7,6.1c0.5,0.5,0.9,1,1.4,1.4c0.2,0.2,0.5,0.5,0.7,0.7h0.6C387.1,184.2,386.8,183.9,386.5,183.5z"/>
	<path class="st0" d="M361.7,57.1c-0.1,0.1-0.2,0.2-0.2,0.4c-0.1,0.4-0.1,0.7,0.1,1.1c0.8,1.5,3.9,2.9,6.3,4c1.1,0.5,2,0.9,2.5,1.3
		c0.5,0.3,1,0.7,1.6,1.1v-0.6c-0.5-0.3-0.9-0.6-1.3-0.9c-0.5-0.4-1.5-0.8-2.6-1.3c-2.2-1-5.3-2.5-6-3.7c-0.1-0.3-0.2-0.5-0.1-0.7
		c0-0.1,0.1-0.2,0.1-0.3c1-1.4,5.4-0.9,9.9,0.2v-0.5C368,56.2,362.9,55.4,361.7,57.1z"/>
	<path class="st0" d="M351.4,55.2c-0.2,0.2-0.2,0.5-0.2,0.8c0.3,2.1,1.9,2.6,4.4,3.4c3.5,1.2,8.8,2.9,15.5,10.1
		c0.3,0.3,0.6,0.6,0.9,0.9v-0.7c-0.2-0.2-0.3-0.3-0.5-0.5c-6.8-7.3-12.2-9.1-15.8-10.3c-2.6-0.9-3.7-1.3-4-2.9c0-0.2,0-0.3,0.1-0.5
		c1.4-1.9,11.5-2.5,20.1-1.9v-0.5C363.2,52.5,353,53.1,351.4,55.2z"/>
	<path class="st0" d="M368.4,58.8l-0.1,0c-0.4,0-0.8-0.1-1,0c-0.4,0.1-0.7,0.2-0.9,0.4c-0.1,0.2-0.1,0.4-0.1,0.6
		c0.3,0.8,1.9,1.7,2.6,2c0.4,0.2,0.8,0.4,1.2,0.7c0.6,0.4,1.3,0.7,2,1v-0.5c-0.6-0.3-1.2-0.6-1.8-0.9c-0.4-0.2-0.8-0.5-1.2-0.7
		c-1.2-0.6-2.1-1.3-2.2-1.6c0-0.1,0-0.1,0-0.1c0-0.1,0.2-0.2,0.6-0.2c0.2,0,0.6,0,0.9,0l0.1,0c0.3,0,0.6,0.1,0.9,0.1
		c0.9,0.1,1.8,0.2,2.7,0.3v-0.5c-0.9-0.1-1.8-0.2-2.8-0.3C368.9,58.8,368.6,58.8,368.4,58.8z"/>
	<path class="st0" d="M390.6,136.4c-0.1-0.5-0.3-0.9-0.4-1.3h-0.5c0.2,0.5,0.3,0.9,0.5,1.4c0.7,2.5,0.9,5.2,0.4,7.9h0.6
		C391.4,141.6,391.3,138.9,390.6,136.4z"/>
	<path class="st0" d="M360.2,50.5c-3.8-0.7-12.5,1.3-12.8,5.3c-0.2,2.7,3.2,5.3,10.4,7.7c2.9,1,5.8,3.7,8.6,6.3
		c1.4,1.3,2.8,2.6,4.2,3.7c0.5,0.4,1,0.7,1.5,1.1V73c-0.3-0.2-0.5-0.4-0.8-0.6c-1.3-1-2.6-2.2-4-3.5c-2.9-2.7-5.9-5.6-9.2-6.7
		c-6.1-2.1-9.4-4.2-9.2-6.1c0.2-2.9,7.9-5.1,11.5-4.4c2.8,0.5,5.8-0.1,8.7-0.7c1-0.2,2.1-0.4,3.1-0.6v-1.3c-1.2,0.2-2.5,0.4-3.7,0.7
		C365.6,50.4,362.7,51,360.2,50.5z"/>
	<path class="st0" d="M364.7,79.2c0.8,0.6,1.7,1.3,2.6,1.9c1.6,1.1,3.2,2.3,4.7,3.5V84c-1.4-1.2-3-2.2-4.5-3.3
		c-0.8-0.6-1.7-1.2-2.6-1.9c-3-2.3-5.6-4.7-8.1-7.1c-4.5-4.3-8.7-8.3-15.1-11l-0.1,0c-1.4-0.6-4.2-1.7-6.6-3.2l-0.3,0.4
		c2.5,1.4,5.2,2.6,6.8,3.2l0.1,0c6.3,2.6,10.5,6.6,14.9,10.8C359,74.5,361.6,76.9,364.7,79.2z"/>
	<path class="st0" d="M87.3,135.9c0.2,1.1,0.5,2.2,1.1,3.2c1,1.7,2.2,3.3,3.4,4.8c0.3,0.3,0.6,0.7,0.8,1c3.2,4.1,7,8,12.3,12.7
		c0.8,0.7,1.5,1.3,2.3,1.9c0.2-0.4,0.3-0.8,0.5-1.1c-0.6-0.5-1.3-1.1-1.9-1.6c-5.2-4.6-8.9-8.4-12.1-12.4c-0.3-0.4-0.6-0.7-0.8-1
		c-1.2-1.5-2.4-3-3.3-4.5c-0.5-0.9-0.7-1.8-1-2.8c-0.3-1.1-0.5-2.3-1.2-3.5c-0.9-1.5-1.7-3-2.4-4.4c-1.7-3.2-3.4-6.4-6.3-9.3
		c-1.3-1.2-2.6-2.3-3.9-3.5c-2.6-2.2-5.2-4.5-7.2-7.2c-1.8-2.5-2.6-5.2-3.6-8c-0.6-2-1.3-4.1-2.3-6.1c-0.2-0.4-0.4-0.8-0.6-1.2l-2-1
		c0.5,0.8,1,1.7,1.4,2.5c1,1.9,1.6,3.9,2.2,5.9c0.9,2.8,1.8,5.8,3.8,8.5c2.1,2.9,4.8,5.2,7.5,7.5c1.3,1.1,2.6,2.2,3.8,3.4
		c2.8,2.6,4.3,5.6,6,8.8c0.8,1.5,1.6,3,2.5,4.5C86.8,133.8,87,134.8,87.3,135.9z"/>
	<path class="st0" d="M294.8,127.3l0.3-0.5c-2.4-0.3-4.9,0.2-7.4,0.6c-1.6,0.3-3.2,0.6-4.8,0.7l-0.4,0.6c1.9-0.1,3.6-0.4,5.4-0.8
		C290.4,127.5,292.6,127.1,294.8,127.3z"/>
	<path class="st0" d="M333.3,71.2c-0.1-0.4-0.2-0.8-0.2-1.2c-0.3-1.6-0.5-2.9-2-4.7c-0.3-0.4-0.6-0.7-1-1.1l-0.3,0.4
		c0.3,0.3,0.6,0.6,0.8,0.9c1.4,1.7,1.6,2.8,1.8,4.4c0.1,0.4,0.1,0.8,0.2,1.3c0.2,1.1,0.8,2.1,1.7,2.9l0.3-0.4
		C334,72.9,333.5,72.1,333.3,71.2z"/>
	<path class="st0" d="M14.6,159c1.4-0.2,2.9-0.4,4.8-0.3c1.2,0.1,2.4,0.2,3.5,0.3c1.8,0.2,3.7,0.4,5.5,0.4c-0.1-0.2-0.1-0.3-0.2-0.5
		c-1.8,0-3.6-0.2-5.4-0.4c-1.2-0.1-2.4-0.3-3.5-0.4c-2-0.1-3.5,0.1-4.9,0.3c-2,0.3-3.8,0.5-6.5-0.1c-1.3-0.3-2.6-0.7-3.9-1
		c0,0.2,0.1,0.4,0.1,0.6c1.2,0.4,2.5,0.7,3.7,1C10.7,159.5,12.6,159.2,14.6,159z"/>
	<path class="st0" d="M354,133.9c0-0.1,0.1-0.1,0.1-0.2c1.4-2.4-2.9-10.7-4.3-12.6c-2.7-3.7-6.8-10.5-3.9-14.3
		c0.4-0.5,0.8-0.9,1.4-1.3c0.1-0.1,0.3-0.2,0.4-0.3c1.4-1.9-2.1-8-5.8-14.1c-0.1-0.1-0.1-0.2-0.2-0.4v0.9c2.5,4.2,6.8,11.4,5.5,13.2
		c-0.1,0.1-0.1,0.2-0.2,0.2c-0.6,0.4-1.1,0.9-1.5,1.4c-3,4,1.2,11,4,14.8c1.6,2.2,5.4,10,4.2,12.1c-1.1,1.8-7.1,3.1-14,3.1
		c-4.3,0-8.4-0.5-12.1-1.4h-1.8c4.2,1.3,9,1.9,14.1,2C346.6,137,352.7,135.7,354,133.9z"/>
	<path class="st0" d="M324,184.6h3.9c-1.2-0.3-2.5-0.5-3.9-0.5V184.6z"/>
	<path class="st0" d="M16.9,166.6c1.7,0.4,3.4,0.9,5,1.4c4.1,1.2,8.4,2.4,12.7,3c0.3,0,0.6,0.1,0.9,0.1c-0.2-0.2-0.4-0.4-0.6-0.6
		c-0.1,0-0.3,0-0.4-0.1c-4.2-0.6-8.5-1.8-12.6-2.9c-1.6-0.5-3.3-0.9-5-1.4c-3.3-0.9-6.2-2.1-9.3-3.4c-0.7-0.3-1.4-0.6-2.1-0.9
		c0.1,0.2,0.2,0.4,0.3,0.6c0.6,0.2,1.2,0.5,1.7,0.7C10.6,164.5,13.5,165.7,16.9,166.6z"/>
	<path class="st0" d="M361.7,152.2c0.1,0,5.1,0.7,10.3,0.6v-0.5c-5.2,0.1-10.3-0.6-10.4-0.6c-4-0.6-7.3-0.9-10.5-1.3
		c-3.1-0.3-6.1-0.7-9.5-1.2v0.5c3.4,0.5,6.4,0.8,9.5,1.2C354.4,151.2,357.7,151.6,361.7,152.2z"/>
	<path class="st0" d="M388.8,177.9c-0.6-0.1-1.1-0.1-1.7-0.2c0.7,1,1.6,1.9,2.4,2.8c0,0,0.1,0.1,0.1,0.1v-1.8
		C389.3,178.6,389,178.3,388.8,177.9z"/>
	<path class="st0" d="M88.4,170.6c0.4,0.2,1.1,0.6,2,1c1.5,0.7,3.6,1.7,5.8,3c0.3-0.3,0.6-0.5,0.9-0.8c-2.4-1.4-4.6-2.5-6.3-3.3
		c-0.9-0.4-1.6-0.8-1.9-0.9c-1.3-0.8-2.6-1.5-3.9-2.2c-0.8-0.4-1.5-0.8-2.2-1.2c-0.2,0.4-0.4,0.7-0.6,1c0.8,0.4,1.6,0.8,2.3,1.3
		C85.8,169.1,87.1,169.8,88.4,170.6z"/>
	<path class="st0" d="M369.3,179.1c-2.7-1.7-5.6-3.2-8.5-4.6c-0.8-0.4-1.6-0.8-2.4-1.2c-4.6-2.3-9.1-4-13.9-5.2c-1-0.3-2-0.4-3-0.4
		c0,0.2,0,0.3-0.1,0.5c1,0,2,0.1,3,0.4c4.7,1.2,9.2,2.9,13.7,5.2c0.8,0.4,1.6,0.8,2.4,1.2c2.8,1.4,5.7,2.8,8.4,4.5
		c2.5,1.6,4.9,3.4,7,5.1h0.7C374.6,182.8,372,180.8,369.3,179.1z"/>
	<path class="st0" d="M95.1,157.4c-1.5-0.8-2.9-1.6-4.3-2.4c-2-1.2-3.8-2.6-5.4-4.1c0,0.2,0,0.4,0,0.7c1.5,1.4,3.2,2.7,5.1,3.8
		c1.4,0.8,2.8,1.6,4.3,2.4c3.4,1.9,6.9,3.9,10.1,6.1c0.1-0.1,0.2-0.3,0.2-0.4C102.1,161.3,98.6,159.4,95.1,157.4z"/>
	<path class="st0" d="M223.4,182.7c-1.6-1.6-5.2-1.7-8.3-0.4c-4.2,1.8-10.3,2.9-14.9,0.5c-8.3-4.5-17.6-1.8-22.7,0.9
		c0,0.2,0,0.4,0,0.6c4.9-2.7,14.2-5.6,22.5-1.1c1.2,0.7,2.6,1.1,4.2,1.3h5.1c2-0.3,4.1-0.9,6.2-1.8c3.2-1.4,6.4-1,7.6,0.2
		c0.4,0.4,0.6,0.9,0.6,1.5h0.5C224.2,183.7,223.8,183.1,223.4,182.7z"/>
	<path class="st0" d="M296.2,143c-1,0.2-2.1,0.3-3.1,0.5c-1.5,0.2-2.9,0.5-4.3,0.9h2.5c0.6-0.1,1.3-0.2,2-0.4c1-0.2,2.1-0.3,3.1-0.5
		c3.7-0.6,7.6-1.3,11.5-1.2c2.8,0.1,5.4,0.9,8,2.1h1.1c-3-1.4-5.9-2.5-9.2-2.6C303.8,141.7,300,142.4,296.2,143z"/>
	<path class="st0" d="M8.7,150.2c2.3,0.1,4.1-0.2,5.9-0.5c0.6-0.1,1.3-0.3,1.9-0.5c1-0.3,2.1-0.6,3.1-0.5c2.4,0.2,4.8,0.8,7.1,1.7
		c0-0.4-0.1-0.9-0.1-1.3c-2.4-0.8-4.8-1.4-7.2-1.7c-1.3-0.1-2.5,0.2-3.6,0.6c-0.6,0.2-1.2,0.4-1.7,0.5c-1.8,0.3-3.5,0.6-5.6,0.5
		c-1.7-0.1-3.3,0.2-4.9,0.5c-0.2,0-0.3,0.1-0.5,0.1c0,0.5,0,0.9,0,1.4c0.3-0.1,0.7-0.1,1-0.2C5.6,150.4,7.1,150.2,8.7,150.2z"/>
	<path class="st0" d="M90,163.1c-1.6-1.3-3.2-2.8-4.9-4.3c0,0.2-0.1,0.4-0.1,0.6c1.6,1.5,3.1,2.8,4.6,4.1c2,1.7,4.2,3.1,6.3,4.5
		c1.4,0.9,2.7,1.8,4.1,2.8c0.1-0.1,0.2-0.2,0.3-0.4c-1.4-1-2.8-1.9-4.1-2.8C94.2,166.2,92,164.8,90,163.1z"/>
	<path class="st0" d="M27.2,120.6l0.7,0.3c2.6,1,4.7,2.1,6.4,3.3c0.3-0.3,0.5-0.6,0.8-0.9c-1.9-1.3-4.1-2.5-7-3.6l-0.7-0.3
		c-0.4-0.2-0.9-0.3-1.3-0.5c-0.5,0.2-1,0.5-1.6,0.7C25.4,120,26.3,120.3,27.2,120.6z"/>
	<path class="st0" d="M13.6,135.1c2.2,0,4.2-0.1,6.5,0.8c2,0.7,5,2.7,7,4.4c0.1-0.5,0.1-0.9,0.2-1.4c-2.1-1.8-4.9-3.5-7-4.3
		c-2.6-0.9-4.9-0.9-7.1-0.9c-1.4,0-2.9,0-4.5-0.2c-0.4-0.1-0.7-0.1-1.1-0.2c-0.2,0.4-0.5,0.7-0.7,1.1c0.6,0.1,1.2,0.3,1.8,0.4
		C10.5,135.1,12,135.1,13.6,135.1z"/>
	<path class="st0" d="M61.5,41.5c-0.2,0-0.4,0.1-0.6,0.1c1.7,0.2,3.3,0.6,4.8,1.1C64.3,41.8,62.9,41.3,61.5,41.5z"/>
	<path class="st0" d="M17.7,124.1c1.8,1,3.8,1.9,6.1,2.6c1.5,0.5,3,0.7,4.4,0.9c0.5,0.1,1.1,0.1,1.6,0.2c0.6,0.1,1.1,0.2,1.6,0.4
		c0.1-0.1,0.2-0.3,0.3-0.4c-0.6-0.2-1.3-0.3-1.9-0.5c-0.5-0.1-1.1-0.2-1.6-0.2c-1.5-0.2-2.8-0.4-4.3-0.8c-2.2-0.7-4.2-1.5-5.9-2.5
		c-0.1,0-0.2-0.1-0.2-0.1c-0.1,0.1-0.3,0.2-0.4,0.3C17.4,123.9,17.6,124,17.7,124.1z"/>
	<path class="st0" d="M20.5,128.7c0.7,0.2,1.4,0.3,2.1,0.4c1.8,0.3,3.4,0.6,5.2,1.4c0.5,0.2,1.1,0.6,1.8,1c0.1-0.1,0.1-0.3,0.2-0.4
		c-0.7-0.4-1.3-0.8-1.8-1c-1.8-0.9-3.5-1.2-5.4-1.5c-0.7-0.1-1.4-0.2-2.1-0.4c-2.1-0.5-4-1.4-5.9-2.4c-0.1,0.1-0.3,0.2-0.4,0.3
		c0,0,0,0,0,0C16.2,127.2,18.2,128.2,20.5,128.7z"/>
	<path class="st0" d="M83.6,75.5c-0.3-3.1-0.5-5.7-1.6-8.6c0,0.5,0,1,0,1.5c0,0.1,0,0.1,0,0.2c0.7,2.2,0.8,4.4,1.1,6.9
		c0,0.3,0.1,0.7,0.1,1c0.3,3-0.3,5.4-1,8c-0.4,1.7-0.8,3.4-1,5.3c-0.2,1.8-0.1,4.1,0.3,6.4c0.2-0.1,0.3-0.1,0.5-0.2
		c-0.4-2.2-0.4-4.3-0.3-6.1c0.2-1.9,0.6-3.6,1-5.2c0.6-2.5,1.3-5.1,1-8.2C83.7,76.1,83.6,75.8,83.6,75.5z"/>
	<path class="st0" d="M84.2,45.5c1.9,1,3.8,1.9,5.5,2.9c3.9,2.2,7.7,4.8,11.4,7.3c-0.1-0.3-0.3-0.6-0.4-0.8
		c-3.5-2.4-7.1-4.7-10.8-6.8c-1.8-1-3.6-1.9-5.5-2.9c-5.5-2.8-11.2-5.7-15-10.2c-0.2,0-0.5-0.1-0.7-0.1
		C72.5,39.5,78.4,42.6,84.2,45.5z"/>
	<path class="st0" d="M43.4,41.1c-4.4,0.1-8.6-0.5-12.8-1.7c-0.2,0.1-0.4,0.2-0.7,0.3c4.5,1.4,8.9,2,13.6,1.9l0.5,0
		c3.5-0.1,7.5-0.1,10.4-1.6c0.7-0.4,1.4-0.9,2-1.3c1.5-1.1,2.9-2.1,5-1.8c3.2,0.6,5.7,3.2,8.1,5.7c1,1.1,2,2.1,3,2.9
		c1.5,1.2,3.1,2.3,4.6,3.4c1.7,1.2,3.5,2.4,5.1,3.8c1.2,1.1,1.8,2.2,2.4,3.5c0.4,0.7,0.8,1.5,1.3,2.3c0.8,1.2,1.8,2.3,2.8,3.4
		c0.4,0.4,0.7,0.8,1.1,1.2c1.3,1.5,2.7,2.9,4.1,4.2c0.3,0.3,0.7,0.7,1,1c0.4,0.4,0.8,0.7,1.2,1.1c1.1,1,2.3,2,2.9,3
		c0.6,1.1,0.7,2.3,0.7,3.5c0,0.6,0,1.2,0.1,1.8c0.2,1.3,0.3,2.5,0.1,3.6c0.2-0.4,0.4-0.8,0.6-1.2c0-0.8-0.1-1.6-0.2-2.4
		c-0.1-0.6-0.1-1.1-0.1-1.7c0-1.2,0-2.5-0.7-3.8c-0.6-1.1-1.9-2.2-3-3.2c-0.4-0.4-0.9-0.8-1.2-1.1c-0.3-0.3-0.7-0.7-1.1-1
		c-1.4-1.3-2.8-2.7-4-4.2c-0.4-0.4-0.7-0.8-1.1-1.2c-1-1.1-2-2.2-2.8-3.4c-0.5-0.7-0.9-1.5-1.2-2.2c-0.6-1.2-1.3-2.5-2.6-3.7
		c-1.6-1.4-3.4-2.7-5.1-3.9c-1.5-1.1-3.1-2.2-4.6-3.4c-1-0.8-1.9-1.8-2.9-2.9c-2.5-2.6-5.1-5.3-8.5-6c-2.3-0.4-3.9,0.7-5.3,1.8
		c-0.6,0.5-1.3,1-2,1.3c-2.9,1.4-6.8,1.5-10.2,1.6L43.4,41.1z"/>
	<path class="st0" d="M124.4,142.2c-1.7-1.7-3.5-3.5-5.1-5.3l-0.3,0.4c1.6,1.8,3.3,3.6,5,5.3c0.6,0.6,1.2,1.2,1.9,1.9h0.7
		C125.9,143.6,125.1,142.9,124.4,142.2z"/>
	<path class="st0" d="M304.5,104.3c0.7-1,2.1-2.3,3.5-3.7c1.7-1.7,3.7-3.7,5.1-5.5l0,0c1.4-1.9,1.9-3.4,1.5-4.5
		c-0.4-1.1-1-2.1-1.7-3.1l-0.3,0.4c0.6,0.9,1.1,1.8,1.5,2.8c0.3,0.9-0.1,2.3-1.5,4.1l0,0c-1.3,1.8-3.3,3.7-5,5.4
		c-1.4,1.4-2.8,2.8-3.6,3.8c-1.1,1.5-2.7,1.9-4.7,2l-0.4,0.5C301.4,106.5,303.3,106,304.5,104.3z"/>
	<path class="st0" d="M81.8,41.5c3.3,3,9.6,5.6,15.8,8.1c-0.2-0.3-0.4-0.5-0.6-0.8c-5.9-2.4-11.7-4.9-14.9-7.7
		c-1.2-1.1-2.3-2.6-2.8-4c-0.2-0.1-0.4-0.1-0.6-0.2C79.2,38.6,80.4,40.2,81.8,41.5z"/>
	<path class="st0" d="M48.8,112.9c-1.4-2-2.8-4-4.4-6.4c-1.9-2.9-3.2-4-6-6.3c-0.6-0.5-1.2-1.1-1.9-1.8c-1.3-1.3-2.7-2.7-4.3-3.4
		c-0.9-0.4-1.9-1.4-3-2.4c-1.3-1.2-2.6-2.5-4-3c-3.3-1.3-5.8-2.5-8.4-3.9c-1.7-0.9-3.4-1.8-5.6-2.8c-1-0.5-2-0.7-2.9-0.9
		c0,0.2,0,0.3,0.1,0.5c0.9,0.2,1.8,0.4,2.7,0.8c2.1,1,3.9,1.9,5.6,2.8c2.6,1.4,5.1,2.6,8.4,3.9c1.2,0.5,2.5,1.7,3.8,2.9
		C30,94,31,95,32,95.4c1.5,0.7,2.8,2,4.1,3.3c0.7,0.7,1.3,1.3,1.9,1.8c2.8,2.3,4,3.4,5.9,6.2c1.6,2.4,3,4.4,4.4,6.4
		c3.8,5.3,9,9.5,14,13.6c0.7,0.5,1.3,1.1,2,1.7l1.6,0.7c0,0,0.1,0,0.1,0c-1.1-1-2.3-1.9-3.4-2.8C57.6,122.3,52.5,118.1,48.8,112.9z"
		/>
	<path class="st0" d="M20.1,60c3.4,0.7,6.7,1.3,9.9,2.7c0.8,0.4,1.6,0.7,2.3,1.1c0-0.4,0-0.9,0.1-1.3c-0.6-0.3-1.3-0.6-2-1
		c-3.4-1.5-6.9-2.2-10.3-2.8c-1.7-0.3-3.5-0.7-5.2-1.1c-0.8-0.2-1.7-0.5-2.5-0.8c-0.2,0.4-0.4,0.7-0.5,1.1c0.9,0.4,1.9,0.7,2.9,1
		C16.5,59.3,18.3,59.6,20.1,60z"/>
	<path class="st0" d="M94.8,112.7c1.2,1,2.5,2,3.7,3c3,2.6,4.8,6.5,6.5,10.2c0.6,1.3,1.1,2.5,1.7,3.6c0.3,0.5,0.5,1.1,0.8,1.6
		c0.7,1.5,1.5,3,2.4,4.5c-0.1-0.5-0.2-0.9-0.2-1.4c-0.6-1.1-1.2-2.2-1.7-3.3c-0.3-0.5-0.5-1.1-0.8-1.6c-0.6-1.1-1.1-2.3-1.7-3.6
		c-1.7-3.8-3.5-7.8-6.6-10.5c-1.2-1-2.5-2.1-3.7-3c-2.3-1.9-4.7-3.8-6.9-6c-0.5-0.3-1.1-0.6-1.6-0.9C89.1,108.1,92,110.4,94.8,112.7
		z"/>
	<path class="st0" d="M260.5,178.6c-2.2-0.6-4.3-1.1-6.4-1.3c0.1,0.2,0.2,0.4,0.3,0.5c2,0.2,4,0.7,6.1,1.3c7,1.9,13.7,1.2,19.6-0.2
		c0.1-0.2,0.3-0.4,0.4-0.6C274.4,179.7,267.6,180.6,260.5,178.6z"/>
	<path class="st0" d="M299.9,120.5l0.9-1.1c-3.3-0.5-7.2-0.9-10.6-0.9l-1,1.3C292.4,119.6,296.4,120,299.9,120.5z"/>
	<path class="st0" d="M26.7,102.5c-2.1-0.7-4-1.8-5.9-2.9c-2-1.2-4.1-2.4-6.4-3.1c-0.5-0.1-0.9-0.2-1.4-0.4c0.1,0.2,0.2,0.4,0.3,0.6
		c0.3,0.1,0.6,0.2,1,0.3c2.2,0.7,4.3,1.9,6.3,3c1.9,1.1,3.9,2.3,6.1,3c4.7,1.5,9.7,5.5,12.6,10c1.3,1.9,2.7,3.8,4.2,5.5l1.1,0.5
		c-1.7-2-3.4-4-4.8-6.2C36.7,108.2,31.6,104.1,26.7,102.5z"/>
	<path class="st0" d="M19.9,133.5c-2-0.5-3.1-0.8-5.1-0.7c-2,0.1-4.2-0.3-6.1-0.8c-0.1,0.1-0.2,0.3-0.3,0.4c2,0.5,4.4,1,6.5,0.9
		c1.9-0.1,3,0.2,4.9,0.7l0.3,0.1c2.3,0.6,5.1,2,7.5,3.3c0-0.2,0.1-0.3,0.1-0.5c-2.4-1.3-5.2-2.7-7.5-3.3L19.9,133.5z"/>
	<path class="st0" d="M28,133.9c-1.2-0.6-2.1-0.8-3-1c-1-0.2-1.9-0.4-3-1.1c-1.6-0.9-3.1-1.2-4.6-1.5c-0.8-0.2-1.7-0.3-2.6-0.6
		c-1-0.3-2.1-0.8-3.1-1.4c-0.1,0.1-0.2,0.2-0.3,0.4c1.1,0.6,2.2,1.1,3.3,1.5c0.9,0.3,1.8,0.5,2.6,0.6c1.5,0.3,2.9,0.6,4.4,1.4
		c1.2,0.7,2.2,0.9,3.2,1.1c0.9,0.2,1.8,0.4,2.9,1c0.2,0.1,0.3,0.2,0.5,0.3c0-0.2,0.1-0.3,0.2-0.5C28.4,134.1,28.2,134,28,133.9z"/>
	<path class="st0" d="M7.4,141.3c1.7,0.3,3.4,0.3,5,0.2c2.6-0.1,5-0.1,7.5,1.1c0.1,0,0.2,0.1,0.3,0.2c0.9,0.5,2.7,1.4,3.2,0.7
		c0.1-0.1,0.1-0.3,0.1-0.5c0-0.8-1.5-1.4-3-1.9c-0.2-0.1-0.3-0.1-0.4-0.2c-2.7-1.2-5-1.5-7.9-1.8l-0.7-0.1c-2.1-0.2-4.2-0.5-6.3-0.9
		c-0.1,0.2-0.1,0.3-0.2,0.5c2.2,0.4,4.4,0.7,6.5,0.9l0.7,0.1c2.8,0.3,5.1,0.7,7.7,1.8c0.1,0,0.3,0.1,0.5,0.2
		c1.7,0.6,2.5,1.1,2.5,1.4c0,0.1,0,0.2-0.1,0.3c-0.3,0.4-2-0.5-2.5-0.8c-0.1-0.1-0.2-0.1-0.3-0.2c-2.6-1.2-5.2-1.2-7.8-1.1
		c-1.6,0-3.2,0.1-4.9-0.2c-1.3-0.2-2.3-0.1-3.2,0.2c-0.1,0.2-0.1,0.4-0.2,0.6C5,141.3,6,141.1,7.4,141.3z"/>
	<path class="st0" d="M26.7,143.5c0-0.2,0-0.5,0-0.7c-1.5-1.7-4.2-3.2-5-3.6c-3.6-1.8-7.2-2.2-10.5-2.5c-1.6-0.1-3.3-0.5-5-1
		c-0.1,0.1-0.1,0.3-0.2,0.4c1.8,0.5,3.6,0.9,5.3,1c3.3,0.3,6.7,0.7,10.3,2.4C23,140.4,25.5,142,26.7,143.5z"/>
</g>
<g>
	<path class="st0" d="M-292.1,69.2c1.7,1,3.6,1.8,5.4,2.6c0.7,0.3,1.4,0.6,2,0.9c0.7,0.3,1.5,0.8,2.2,1.2c0.9,0.5,1.8,1.1,2.7,1.4
		c2,0.7,3.4,1.5,5.2,3.1c1.3,1.1,2.5,2.3,3.7,3.5c2.4,2.4,4.8,4.8,7.8,6.5c0.2,0.1,0.4,0.3,0.7,0.4c0-0.2,0-0.4,0-0.6
		c-0.2-0.1-0.3-0.2-0.4-0.3c-2.9-1.7-5.3-4.1-7.7-6.4c-1.2-1.2-2.5-2.5-3.8-3.6c-1.9-1.7-3.4-2.5-5.5-3.3c-0.9-0.3-1.7-0.8-2.6-1.4
		c-0.7-0.5-1.5-0.9-2.3-1.3c-0.7-0.3-1.3-0.6-2-0.9c-1.8-0.8-3.7-1.6-5.3-2.5c-0.1-0.1-0.3-0.2-0.4-0.3c-0.1,0.2-0.1,0.3-0.2,0.5
		C-292.3,69-292.2,69.1-292.1,69.2z"/>
	<path class="st0" d="M-404.1,38.6c3.5-2.8,5.8-5.5,8.1-9.6c0.2-0.3,0.3-0.6,0.4-0.9c-0.3,0-0.5,0.1-0.8,0.1
		c-0.1,0.2-0.1,0.3-0.2,0.5c-2.2,4-4.5,6.7-8,9.5c-3.8,3-7.6,5-13.2,6.8c-4.2,1.3-8.2,2.2-12.7,2.7c-0.2,0.2-0.3,0.4-0.5,0.6
		c4.8-0.5,9.1-1.4,13.5-2.8C-411.9,43.7-408,41.7-404.1,38.6z"/>
	<path class="st0" d="M-437.8,70.6c3.3-3,7.6-5.3,11.3-7.1c5.5-2.7,11.8-5.5,19-6.1c0.1-0.2,0.1-0.4,0.2-0.6
		c-7.4,0.6-13.9,3.4-19.5,6.2c-3.8,1.9-8.1,4.2-11.4,7.2c-2.1,1.9-4.4,3.4-6.8,4.9c-0.4,0.2-0.7,0.5-1.1,0.7
		c-0.1,0.3-0.2,0.6-0.3,0.9c0.6-0.4,1.2-0.8,1.8-1.1C-442.2,74-439.9,72.5-437.8,70.6z"/>
	<path class="st0" d="M-293.1,90.6c1.8,1.1,2.3,2.1,3.1,3.4c0.2,0.5,0.5,0.9,0.8,1.5c1.3,2.1,4.1,3.6,6.3,4.7
		c2.7,1.3,5.2,2.2,7.9,3.3c0.9,0.3,1.7,0.7,2.6,1c1.5,0.6,3,1.2,4.5,1.7c1.6,0.6,3.2,1.2,4.8,1.8c0-0.2,0-0.4,0-0.5
		c-1.5-0.6-3.1-1.2-4.6-1.8c-1.5-0.6-3-1.1-4.4-1.7c-0.9-0.3-1.8-0.7-2.6-1c-2.7-1-5.2-2-7.8-3.2c-2-0.9-4.8-2.4-6-4.4
		c-0.3-0.5-0.6-1-0.8-1.4c-0.7-1.4-1.4-2.6-3.3-3.7c-1.7-1-3.5-1.7-5.2-2.4c0,0.2-0.1,0.3-0.1,0.5C-296.4,89-294.7,89.6-293.1,90.6z
		"/>
	<path class="st0" d="M-431.9,49.8c2.2-0.1,4.6-0.2,6.8-0.5c6.6-0.7,12.2-1.9,18.1-3.9c3.3-1.1,6.1-2.3,8.6-3.7
		c2-1.9,4.1-3.5,6.6-4.5c3.4-2.8,4.2-6.2,4.8-10.1c-0.2,0-0.4,0-0.6,0c-0.6,3.8-1.4,7-4.6,9.7c-4.4,3.6-8.7,6-15,8.1
		c-5.9,2-11.4,3.2-18,3.9c-2.2,0.2-4.4,0.3-6.6,0.5c-0.2,0.2-0.3,0.4-0.5,0.6C-432.2,49.9-432,49.9-431.9,49.8z"/>
	<path class="st0" d="M-480.3,151.2c0.1-0.1,0.1-0.2,0.2-0.3c0.3-0.3,0.5-0.5,0.8-0.8v-1.2c-0.3,0.6-0.7,1.1-1.2,1.6
		c-0.1,0.1-0.2,0.3-0.3,0.4c-0.5,1,0.2,2.7,1.5,4.7v-1C-480.2,153.1-480.6,151.9-480.3,151.2z"/>
	<path class="st0" d="M-509.4,185.8c-3.4-1.6-4.9-3.6-5.9-6c-0.1,0.3-0.1,0.6-0.2,0.9c1.1,2.1,2.7,4,5.9,5.5
		c3.4,1.6,7.3,3.6,11.3,6.5c4,2.9,7.4,4.6,10.4,5.7h1.6c-3.2-1-7-2.7-11.6-6.1C-502,189.5-506,187.5-509.4,185.8z"/>
	<path class="st0" d="M-493.1,191.2c-1.8-1.1-3.4-2.2-5-3c-0.7-0.4-1.5-0.7-2.3-1.1c-3.9-1.8-8.4-3.9-10.2-7.3c-1.2-2.3-2.2-4.7-3-7
		c-0.4-1-0.8-2.1-1.2-3.1v2.5c0,0.5,0,0.9,0,1.3c0.8,2.2,1.7,4.5,2.9,6.7c2.1,3.8,6.8,6.1,11,8c0.8,0.4,1.6,0.7,2.3,1.1
		c1.5,0.8,3.1,1.8,4.9,2.9c3.6,2.2,7.2,4.6,10.9,5.1c2.3,0.3,4.2,0.7,5.8,1.2h3.4c-2-1.1-5.1-1.9-9.2-2.5
		C-486.2,195.6-489.7,193.4-493.1,191.2z"/>
	<path class="st0" d="M-465.9,195.2c-7-1.5-12.1-4.8-17.5-8.3c-3.1-2-6.3-4.1-9.9-5.8c-1-0.5-2-1-3-1.4c-3.7-1.7-7.5-3.5-10.4-6
		c-3-2.6-3.9-5.8-4.7-9.2c-0.5-2-1.1-4.2-2.2-6.1c-0.5-0.8-0.9-1.7-1.3-2.5v1.2c0.2,0.5,0.5,1,0.8,1.5c1.1,1.9,1.6,4,2.1,6
		c0.9,3.3,1.7,6.7,4.9,9.5c3,2.6,6.9,4.4,10.6,6.1c1,0.5,2,0.9,3,1.4c3.6,1.7,6.8,3.8,9.8,5.8c5.5,3.5,10.7,6.9,17.8,8.4l0.1,0
		c2,0.4,6.3,1.3,9.6,2.8h1.1c-3.4-1.8-8.3-2.8-10.7-3.3L-465.9,195.2z"/>
	<path class="st0" d="M-540.7,194.2c0.4-1.5,0.8-3,1-4.2c-0.3,0-0.7,0-1,0.1V194.2z"/>
	<path class="st0" d="M-291.9,141.7c-2-0.5-3.8-0.9-5.5-1.4c0,0.2,0.1,0.4,0.1,0.6c1.5,0.4,3.3,0.9,5.3,1.3c8.2,2,19.3,4.8,25.4,8.7
		c3.2,2.1,5.5,3.9,7.1,5.5c-0.1-0.3-0.1-0.6-0.2-0.9c-1.7-1.6-3.9-3.2-6.6-5C-272.5,146.5-283.7,143.8-291.9,141.7z"/>
	<path class="st0" d="M-320.9,121.4c-4.9,2.2-9.2,5.1-13.3,7.8c-1.5,1-3.1,2.1-4.8,3.1c-2.5,1.6-9.9,1.9-14.1,2c0,0.2,0,0.3,0,0.5
		c4.4-0.1,11.9-0.3,14.6-2c1.6-1,3.2-2.1,4.8-3.2c4.3-2.9,8.4-5.6,13.2-7.8c1.8-0.8,3.6-0.3,5.3,0.8c0-0.2,0-0.4,0-0.6
		C-316.9,121.1-318.8,120.5-320.9,121.4z"/>
	<path class="st0" d="M-341,114.9c1.5-1.6,4.3-1.6,7.3-1.5c2.9,0.1,6,0.2,7.7-1.5c1.1-1,2.3-1.5,3.7-1.4c1.9,0.1,4,1.2,6.2,3.1
		c0.4,0.3,0.8,0.7,1.2,1c0-0.2,0-0.4,0-0.6c-0.3-0.2-0.6-0.4-0.8-0.7c-1.6-1.4-4-3.1-6.6-3.3c-1.6-0.1-3,0.4-4.1,1.5
		c-1.6,1.5-4.5,1.4-7.3,1.4c-3-0.1-6.1-0.2-7.7,1.6c-1.8,2-6.2,4.6-10.9,6.7c0,0.2,0,0.4,0,0.7C-347.5,119.7-342.9,117-341,114.9z"
		/>
	<path class="st0" d="M-346.1,183.2c-3.5,0-7.2-1.1-10.9-2.1c-2.8-0.8-5.5-1.6-7.7-1.7c-0.1,0-0.1,0-0.2,0c-0.1,0.2-0.2,0.3-0.4,0.5
		c0.2,0,0.4,0,0.7,0c2.2,0.1,4.8,0.9,7.6,1.7c3.7,1,7.5,2.1,11,2.1c1,0,2.1,0,3.2,0.1c0.2-0.2,0.4-0.3,0.6-0.5
		C-343.6,183.3-344.9,183.2-346.1,183.2z"/>
	<path class="st0" d="M-349.5,153.1c5.3,0.1,12.4,0.2,18.1-3.6c0.3-0.2,0.6-0.4,1-0.7c2.2-1.6,5.4-3.9,11.5-4.3
		c0-0.2,0.1-0.4,0.2-0.5c-6.5,0.4-9.8,2.8-12.1,4.4c-0.3,0.2-0.6,0.5-0.9,0.7c-5.5,3.8-12.6,3.6-17.8,3.5c-2.3,0-4.3-0.1-5.7,0.2
		c0,0.2-0.1,0.4-0.1,0.6C-354,153-351.9,153.1-349.5,153.1z"/>
	<path class="st0" d="M-443.9,118.1c3.9-0.3,7.7-0.5,9.5-0.1c4.1,1,7.6-0.4,11.2-1.8c2.8-1.1,5.6-2.2,8.9-2.3c0-0.2,0-0.4,0-0.5
		c-3.4,0.1-6.3,1.2-9.2,2.4c-3.6,1.4-7,2.7-10.8,1.8c-1.9-0.5-5.7-0.2-9.7,0.1c-2.5,0.2-5.1,0.4-7.3,0.4c0,0.2,0,0.3,0,0.5
		C-449.1,118.5-446.5,118.3-443.9,118.1z"/>
	<path class="st0" d="M-435.5,143.6c1.3-2.7,4.4-3.1,8.7-3.6c3.4-0.4,7.7-1,12.2-3c0.4-0.2,0.8-0.3,1.2-0.5c0-0.2,0-0.4,0-0.6
		c-0.5,0.2-1,0.4-1.4,0.6c-4.4,2-8.6,2.5-12,3c-4.3,0.5-7.7,1-9.1,3.9c-0.6,1.2-1.7,2.8-2.9,4.6c-1.5,2.1-3.1,4.5-4.1,6.7l0,0
		c-0.2,0.5-0.4,0.9-0.6,1.4c0.1,0.3,0.2,0.6,0.4,0.9c0.2-0.6,0.4-1.2,0.8-2l0,0c1-2.1,2.7-4.5,4.1-6.6
		C-437.2,146.5-436,144.8-435.5,143.6z"/>
	<path class="st0" d="M-277.9,112.3c-11.6-5-17.5-9.9-20.1-12.5l-0.1-0.1c-0.4-0.4-1-0.8-1.6-1.1c0,0.2,0,0.4,0,0.5
		c0.5,0.3,0.9,0.5,1.3,0.9l0.1,0.1c2.6,2.5,8.6,7.6,20.3,12.6c1.8,0.8,5.9,1.6,10.6,2.5c1.4,0.3,2.9,0.6,4.4,0.9c0-0.2,0-0.3,0-0.5
		c-1.5-0.3-2.9-0.6-4.3-0.9C-272.2,113.9-276.2,113.1-277.9,112.3z"/>
	<path class="st0" d="M-265.1,175.8c1.2-1.6,2.6-3,4-4.4c1.7-1.7,3.3-3.4,4.3-5c-0.1-0.3-0.2-0.5-0.3-0.8c-1,1.8-2.7,3.6-4.5,5.5
		c-1.4,1.4-2.8,2.9-4,4.5c-0.6,0.7-1.1,1.5-1.6,2.2c-1.6,2.5-3.2,4.8-6.3,5.4c0.2,0.1,0.3,0.3,0.5,0.4c3.1-0.7,4.8-3.1,6.3-5.5
		C-266.1,177.3-265.6,176.5-265.1,175.8z"/>
	<path class="st0" d="M-285.3,128.9c-4.1-1-10.3-3.5-14.6-6c0,0.2,0,0.4,0.1,0.6c4.4,2.5,10.3,4.8,14.5,5.9c4,1,9,1.2,13.8,1.4
		c3.3,0.1,6.6,0.3,9,0.7c0-0.2,0-0.3,0-0.5c-2.5-0.4-5.7-0.5-9.1-0.7C-276.5,130-281.4,129.8-285.3,128.9z"/>
	<path class="st0" d="M-509.1,51.1c6.6-0.9,12.3,2,19,5.3c2.9,1.4,5.8,2.9,9,4.2c0.6,0.2,1.2,0.4,1.8,0.5v-0.5
		c-0.6-0.1-1.1-0.2-1.6-0.4c-3.2-1.3-6.1-2.7-9-4.2c-6.8-3.4-12.6-6.3-19.4-5.4c-1.5,0.2-4.3,0.5-7.2,0.2c-0.4,0.1-0.8,0.2-1.1,0.4
		C-514.5,51.7-511.1,51.4-509.1,51.1z"/>
	<path class="st0" d="M-270.8,44.2c1.1,1.3,2.1,2.6,3.1,3.9c3,3.8,5.9,7.5,10.7,11.3c0.1-0.2,0.1-0.3,0.2-0.5
		c-4.6-3.7-7.4-7.3-10.4-11.1c-1-1.3-2-2.6-3.1-3.9c-0.6-0.7-1.3-1.7-2-2.9c-0.1,0.1-0.3,0.2-0.4,0.4
		C-272.1,42.5-271.4,43.5-270.8,44.2z"/>
	<path class="st0" d="M-223.9,192.5c0.4,0.7,0.9,2.9,1.1,4.9c0.2,0,0.4-0.1,0.6-0.1c-0.2-2-0.7-4.2-1.2-5c-0.7-1.3-1.2-2.7-1.6-4
		c-0.2,0.1-0.4,0.1-0.5,0.2C-225.1,189.8-224.6,191.2-223.9,192.5z"/>
	<path class="st0" d="M-206.5,168.5c-0.2,0.4-0.9,0.6-2,0.7c-0.2,0.5-0.3,0.9-0.5,1.3c2-0.1,3.4-0.4,3.9-1.3
		c0.5-1.1-0.6-2.5-2.1-3.7c-0.1,0.4-0.3,0.9-0.4,1.3C-206.6,167.6-206.3,168.2-206.5,168.5z"/>
	<path class="st0" d="M-194.3,62.3c2.8,1.8,5.9,3.1,8.9,4.3c3.1,1.3,6.2,2.6,9.1,4.4c2.3,1.5,4.8,3.2,7.3,5
		c-0.1-0.3-0.2-0.5-0.3-0.8c-2.3-1.7-4.6-3.2-6.7-4.6c-2.9-1.9-6.1-3.2-9.2-4.5c-2.9-1.2-6-2.5-8.8-4.2c-4.4-2.8-8.8-6.3-13.8-11.1
		c-1.8-1.7-3.7-3.3-5.7-4.7c0.3,0.4,0.6,0.8,0.9,1.3c1.5,1.2,3,2.4,4.4,3.7C-203.1,55.9-198.7,59.5-194.3,62.3z"/>
	<path class="st0" d="M-191.1,182.7c-3,0.9-5.8,1.7-8.9,0.6c-1.6-0.6-3.5-1.6-5.5-2.7c-2.3-1.3-4.6-2.5-6.8-3.3
		c-0.1,0.1-0.2,0.3-0.3,0.4c2.2,0.7,4.5,2,6.8,3.3c2,1.1,3.9,2.2,5.6,2.8c3.2,1.2,6.3,0.3,9.3-0.5c0,0,0,0,0,0
		c0.3-0.3,0.7-0.6,1-0.9C-190.2,182.4-190.7,182.5-191.1,182.7z"/>
	<path class="st0" d="M-196.5,186.2c-2.3,0.1-4.6-1-7-2.3c-2.1-1.1-4.3-2.2-6.5-2.3c-2.7-0.2-7.6,1.8-8.6,4.2
		c-0.2,0.5-0.4,0.9-0.7,1.3c-0.7,1.3-1.3,2.6-1.2,4.3c0.1,1.8,0.4,3.7,0.8,5.5c0.2,0,0.4-0.1,0.6-0.1c-0.4-1.8-0.7-3.6-0.7-5.3
		c-0.1-1.7,0.5-2.9,1.2-4.1c0.2-0.4,0.4-0.9,0.7-1.4c1-2.1,5.6-4.1,8.1-3.9c2.1,0.2,4.2,1.2,6.2,2.3c2.4,1.2,4.9,2.5,7.4,2.3
		c0.4,0,0.7,0,1.1,0c0.2-0.2,0.5-0.4,0.7-0.5C-195.2,186.1-195.8,186.2-196.5,186.2z"/>
	<path class="st0" d="M-217.1,187.9c0.9-2.1,4.7-4.7,7.3-4.5c2.1,0.2,4.6,1.5,7,2.7c1.7,0.9,3.4,1.7,5.1,2.3
		c0.2-0.1,0.4-0.2,0.5-0.4c-1.7-0.5-3.6-1.5-5.4-2.4c-2.5-1.3-5.1-2.6-7.3-2.8c-2.8-0.2-6.8,2.5-7.8,4.8c-0.2,0.4-0.3,0.7-0.5,1
		c-0.6,1.4-1.1,2.4-1.1,4.3c0,1.2,0.2,2.5,0.5,3.8c0.2,0,0.4-0.1,0.6-0.1c-0.2-1.2-0.4-2.4-0.4-3.6c-0.1-1.8,0.4-2.8,1-4.2
		C-217.4,188.5-217.3,188.2-217.1,187.9z"/>
	<path class="st0" d="M-239.7,32c-1.6-1-3.3-2.4-5-3.8c-0.2,0-0.4,0.1-0.6,0.1c1.8,1.5,3.7,3,5.4,4.1c1.9,1.3,4,2.3,6.1,3.2
		c0.4,0,0.7,0,1.1-0.1C-235.1,34.5-237.5,33.4-239.7,32z"/>
	<path class="st0" d="M-513.6,127.7c-0.4-0.6-0.9-1.2-1.4-1.8v0.8c0.3,0.4,0.6,0.8,0.9,1.2c1.1,1.7,1.1,3.4,1,5.2
		c0,1.6-0.1,3.3,0.8,5c1.1,2.2,3.2,4,5.1,5.8c1.7,1.6,3.5,3.2,4.6,5c0.9,1.5,0.6,2.3,0.2,3.2c-0.2,0.5-0.5,1.1-0.6,1.9
		c-0.3,2.2,1.6,4.2,3.3,6c0.1,0.1,0.3,0.3,0.4,0.4c5.9,6.3,11.9,12.7,20,16.1c0-0.2,0-0.4,0-0.6c-7.8-3.3-13.8-9.7-19.5-15.8
		c-0.1-0.1-0.3-0.3-0.4-0.4c-1.6-1.7-3.4-3.6-3.1-5.6c0.1-0.7,0.3-1.2,0.6-1.8c0.5-1,0.9-2-0.2-3.7c-1.2-1.9-3-3.5-4.7-5.1
		c-2-1.8-3.9-3.5-5-5.6c-0.8-1.5-0.8-3.1-0.7-4.7C-512.4,131.4-512.4,129.6-513.6,127.7z"/>
	<path class="st0" d="M-353.2,190.7c-2.2-1.2-11.8-1.7-17.1,0c-1,0.3-1.6,0.8-2,1.5c-0.2,0.5-0.3,1-0.4,1.4
		c-0.1,0.4-0.1,0.8-0.3,1.1c-0.3,0.7-1.2,1.2-5.4,0.2c-2.4-0.6-3.5-1.8-4.6-3.1c-1-1.2-2-2.3-4-2.4c-1.5,0-4.3,0.2-7.6,0.4
		c-5.4,0.4-12.2,0.8-14.5,0.3c-1.8-0.4-3.7-0.4-5.4-0.5c-0.3,0-0.6,0-0.9,0c0.3,0.2,0.6,0.4,0.9,0.5c0,0,0.1,0,0.1,0
		c1.7,0,3.5,0,5.3,0.4c2.5,0.5,9,0.1,14.7-0.3c3.3-0.2,6.1-0.4,7.5-0.4c1.7,0,2.5,1,3.5,2.1c1.1,1.3,2.3,2.7,5,3.3
		c3.7,0.9,5.5,0.7,6-0.5c0.2-0.4,0.2-0.8,0.3-1.2c0.1-0.4,0.1-0.9,0.3-1.3c0.3-0.6,0.8-1,1.7-1.3c5.1-1.6,14.2-1.1,16.4-0.1
		c0.2-0.1,0.4-0.2,0.6-0.3C-353.1,190.7-353.1,190.7-353.2,190.7z"/>
	<path class="st0" d="M-530.3,191.7c0.1-0.8,0.2-1.4,0.2-1.7c0-0.2,0.1-0.4,0.2-0.7c-0.2,0-0.4,0-0.7,0.1c-0.1,0.2-0.1,0.5-0.1,0.6
		c0,0.3-0.1,0.9-0.2,1.6c-0.3,1.9-0.7,4.7-0.4,6.9h0.6C-531,196.3-530.6,193.4-530.3,191.7z"/>
	<path class="st0" d="M-236.9,191.6c0.5,2,1,4.1,0.8,6c0,0.1,0,0.2-0.1,0.3c0.2,0,0.4,0,0.6,0c0-0.1,0-0.2,0-0.2
		c0.2-2-0.3-4.1-0.8-6.2c-0.2-0.9-0.4-1.7-0.6-2.5c-0.2,0-0.4-0.1-0.6-0.2C-237.3,189.7-237.1,190.7-236.9,191.6z"/>
	<path class="st0" d="M-507.4,198.4c0-0.3,0.1-0.5,0.2-0.8c0.3-0.7,1.1-1,2-0.9c0.8,0.1,1.7,0.6,2.5,1.1c0.3,0.2,0.6,0.3,0.9,0.5
		c0.1,0.1,0.2,0.1,0.4,0.2h1.7c-0.6-0.1-1.2-0.3-1.8-0.6c-0.3-0.1-0.6-0.3-0.9-0.4c-0.9-0.5-1.9-1-2.8-1.2c-1.2-0.2-2.1,0.2-2.5,1.1
		c-0.1,0.3-0.2,0.6-0.2,0.9c0,0.1,0,0.1,0,0.2L-507.4,198.4C-507.4,198.5-507.4,198.4-507.4,198.4z"/>
	<path class="st0" d="M-538.2,198.5c0.4-1.5,0.7-3.2,0.9-4.8c0.2-1.3,0.4-2.6,0.7-3.9c-0.2,0-0.4,0-0.6,0c-0.3,1.2-0.5,2.5-0.7,3.7
		c-0.3,1.7-0.6,3.3-1,4.9H-538.2z"/>
	<path class="st0" d="M-243.7,186.1c-0.1,1.5,0,2.8,0,3.9c0.1,1.8,0.2,3.3-0.6,5c-0.3,0.6-0.7,1.1-1.1,1.7c0.6,0.1,1.1,0.2,1.7,0.3
		c0.3-0.5,0.6-0.9,0.8-1.4c0.9-1.9,0.8-3.7,0.7-5.5c-0.1-1-0.1-2-0.1-3.2C-242.7,186.8-243.2,186.5-243.7,186.1z"/>
	<path class="st0" d="M-503,194.2c-2.2-1.9-4.2-3-6.8-4c-2.5-0.9-4.5-1.7-6.8-3.4c-0.5-0.4-1-0.8-1.4-1.3c-0.1,0.1-0.2,0.2-0.4,0.3
		c0.4,0.5,0.8,0.9,1.4,1.3c2.3,1.8,4.6,2.7,7,3.5c2.5,0.9,4.4,2,6.6,3.9c2,1.7,4.8,3,6.9,3.9h1.6c-0.6-0.2-1.1-0.3-1.4-0.4
		C-498.3,197.1-501,195.8-503,194.2z"/>
	<path class="st0" d="M-285.8,64.5c2.1,1.9,4.3,3.8,7,5.4c4.1,2.4,6.1,2.6,7.9,2.7c1.4,0.1,2.7,0.2,4.8,1.1c0.5,0.2,2.7,1.2,5.2,2.4
		c0-0.2,0.1-0.3,0.1-0.5c-2.5-1.2-4.6-2.1-5.1-2.3c-2.3-1-3.7-1.1-5.1-1.2c-1.9-0.1-3.7-0.3-7.6-2.6c-2.6-1.5-4.9-3.5-6.9-5.3
		c-1.1-1-2.2-1.9-3.3-2.9c-0.1,0.2-0.2,0.3-0.2,0.5C-287.9,62.7-286.9,63.6-285.8,64.5z"/>
	<path class="st0" d="M-200.2,128.5c0.1,0.3,0.2,0.7,0.3,1c1.2,4.4,2.2,7.8,5.9,11.8c1.6,1.7,2.9,3.6,4.2,5.4c1.7,2.5,3.5,5,6,7.1
		l0.1,0.1c2.4,2.1,6.5,5.5,10.1,6.4c0.1-0.2,0.2-0.3,0.2-0.5c-3.5-0.8-7.5-4.2-9.9-6.2l-0.1-0.1c-2.4-2.1-4.2-4.6-5.9-7
		c-1.3-1.9-2.6-3.8-4.3-5.5c-3.6-3.8-4.5-7.2-5.7-11.5c-0.1-0.3-0.2-0.7-0.3-1c-0.8-3-0.7-5.7-0.5-8.5c0.1-1.8,0.2-3.7,0-5.7
		c-0.1-1.4-0.4-3.1-0.9-4.7c0,0.8,0,1.6,0,2.4c0.2,0.8,0.3,1.6,0.3,2.3c0.2,2,0.1,3.8,0,5.6C-200.9,122.6-201.1,125.4-200.2,128.5z"
		/>
	<path class="st0" d="M-349.8,176.2c4.8,0.6,9.2,1.2,13.4,1.5c0.1-0.2,0.3-0.3,0.4-0.5c-4.4-0.4-8.9-0.9-13.9-1.6
		c-0.7-0.1-1.4-0.2-2.3-0.3c-2.8-0.3-6.3-0.8-9.6-1.5c-0.1,0.2-0.2,0.3-0.2,0.5c3.3,0.8,7,1.2,9.9,1.6
		C-351.3,176.1-350.5,176.1-349.8,176.2z"/>
	<path class="st0" d="M-218.1,32.2c0.9,0.3,1.8,0.7,2.7,1c4.1,1.5,8,2.9,11.2,6c0.8,0.8,1.5,1.6,2.2,2.3c0.9,0.9,1.7,1.9,2.7,2.8
		c0.6,0.5,1.2,1.1,1.7,1.6c1.3,1.2,2.6,2.4,3.8,3.7c3.3,3.7,7.9,6.1,12.3,6.4c1.2,0.1,2.3,0.3,3.5,0.7c-0.1-0.2-0.3-0.4-0.4-0.6
		c-1-0.3-2.1-0.5-3.1-0.6c-4.2-0.3-8.6-2.6-11.8-6.2c-1.2-1.3-2.6-2.6-3.9-3.7c-0.6-0.5-1.2-1-1.7-1.6c-0.9-0.9-1.8-1.8-2.7-2.8
		c-0.7-0.8-1.5-1.6-2.2-2.4c-3.3-3.3-7.3-4.7-11.4-6.2c-0.9-0.3-1.8-0.6-2.7-1c-0.4-0.2-1.3-0.4-2.5-0.7c-3.1-0.8-8.4-2.1-12.6-4.1
		c-0.4,0-0.7,0-1.1,0c4.4,2.3,10.2,3.7,13.6,4.5C-219.4,31.9-218.5,32.1-218.1,32.2z"/>
	<path class="st0" d="M-179.1,160.7c-1.3-0.9-2.5-1.8-3.7-2.4c-1.8-1-3.6-1.8-5.5-2.6c-2-0.9-4.1-1.8-6-2.9c-1.4-0.9-2.3-2-3.2-3.1
		c-0.5-0.7-1.1-1.4-1.8-2.1c-1.1-1.1-2.4-2.1-3.6-3c0,0-0.1,0-0.1-0.1c0,0.2,0,0.4-0.1,0.6c1.1,0.9,2.3,1.8,3.3,2.8
		c0.7,0.7,1.2,1.4,1.7,2c0.9,1.2,1.8,2.4,3.4,3.3c1.9,1.2,4,2.1,6.1,3c1.8,0.8,3.7,1.6,5.4,2.6c1.2,0.7,2.3,1.5,3.6,2.4
		c1.3,0.9,2.7,1.9,4,2.7c0.1-0.1,0.2-0.3,0.2-0.4C-176.5,162.6-177.8,161.6-179.1,160.7z"/>
	<path class="st0" d="M-504.5,105.1c-0.1,0-5.2,0.3-10.5,1.3v0.5c5.3-1.1,10.5-1.4,10.6-1.4c4.2-0.2,7.7-0.5,11.1-0.7
		c4.4-0.3,8.6-0.7,14-0.7v-0.5c-5.4,0.1-9.7,0.4-14.1,0.7C-496.8,104.6-500.2,104.9-504.5,105.1z"/>
	<path class="st0" d="M-265.9,59.8c-2.8-2.3-5.6-4.8-8.8-6.8c-1.6-1-2.7-2.3-3.9-3.6c-0.3-0.4-0.7-0.8-1.1-1.2
		c-0.1,0.1-0.2,0.3-0.3,0.4c0.3,0.4,0.6,0.7,1,1.1c1.2,1.4,2.3,2.7,4.1,3.8c3.1,2,6,4.4,8.7,6.7c2,1.7,4.1,3.5,6.3,5.1
		c0.4,0.3,0.8,0.5,1.1,0.8c0-0.2,0.1-0.4,0.1-0.5c-0.3-0.2-0.6-0.4-0.9-0.7C-261.8,63.2-263.9,61.5-265.9,59.8z"/>
	<path class="st0" d="M-197.7,67.3c3.1,2,6.4,3.8,9.6,5.5c5.9,3.2,12.1,6.6,17,11.2c1.8,1.7,3.6,3.5,5.6,5.6
		c-0.1-0.3-0.1-0.6-0.2-0.9c-1.8-1.8-3.4-3.4-5-5c-5-4.7-11.1-8.1-17.1-11.3c-3.2-1.7-6.4-3.5-9.5-5.5c-3.5-2.3-6.6-5.1-9.5-7.8
		c-0.1-0.1-0.3-0.3-0.4-0.4c0.1,0.3,0.2,0.6,0.3,1C-204.2,62.4-201.2,65.1-197.7,67.3z"/>
	<path class="st0" d="M-194.7,161.1c6,1.7,12.1,3.5,16.8,7.1c0.1-0.1,0.2-0.3,0.3-0.4c-4.7-3.6-10.9-5.4-16.9-7.1
		c-2.2-0.6-4.3-1.2-6.3-1.9c-1.4-0.5-2.7-1-4.1-1.5c0,0.2-0.1,0.3-0.1,0.5c1.3,0.5,2.7,1,4,1.5C-199,159.9-196.9,160.5-194.7,161.1z
		"/>
	<path class="st0" d="M-492.9,122.5c0,0.1-0.1,0.1-0.1,0.2c-1,2.7,5.1,10.5,6.9,12.2c2.4,2.2,5.6,5.7,6.8,9.2v-1.4
		c-1.5-3.1-4.3-6.1-6.4-8.1c-2-1.9-7.6-9.3-6.7-11.7c0.7-2,6.3-4.4,13.2-5.8v-0.6C-486.2,117.9-491.9,120.4-492.9,122.5z"/>
	<path class="st0" d="M-398.3,194c3.6-0.6,7-1.1,10.6-0.1c1.4,0.4,2.1,0.9,2.9,1.6c0.9,0.8,2,1.7,4.3,2.4c0.5,0,1,0,1.5-0.1
		c-3.2-0.8-4.4-1.8-5.5-2.7c-0.8-0.7-1.6-1.4-3.2-1.8c-3.8-1-7.4-0.4-10.9,0.1c-1.4,0.2-2.9,0.5-4.4,0.6c-1.1,0.1-2.1,0.1-3.1,0
		c0.5,0.2,1,0.4,1.5,0.6c0.6,0,1.1,0,1.7-0.1C-401.2,194.5-399.7,194.3-398.3,194z"/>
	<path class="st0" d="M-179.6,105.4c-1.4-1.8-2.4-3.7-3.5-5.6c-1.5-2.8-3-5.6-5.6-8c-2.7-2.6-6-4.5-9.2-6.3
		c-1.5-0.9-3.1-1.8-4.6-2.7c0,0-0.1,0-0.1-0.1c0.1,0.5,0.1,1,0.2,1.6c1.3,0.8,2.6,1.6,3.9,2.3c3.1,1.8,6.3,3.6,8.8,6
		c2.3,2.2,3.7,4.8,5.2,7.6c1.1,2,2.2,4,3.6,5.8c4.5,5.8,10.8,10.2,16.9,14.5c0,0,0,0,0,0c0-0.5,0.1-1,0.1-1.5
		C-169.6,115-175.4,110.8-179.6,105.4z"/>
	<path class="st0" d="M-365.7,195.2c-2.5-0.8-3.7,0.5-4.8,1.6c0,0,0,0-0.1,0.1c0.4-0.1,0.7-0.1,1.1-0.2c0.9-0.9,1.9-1.6,3.7-1
		c0.1,0,0.2,0,0.3,0.1c0.3-0.1,0.6-0.2,1-0.3C-365,195.4-365.3,195.3-365.7,195.2z"/>
	<path class="st0" d="M-523.9,52.9c4.3,2.2,10.5,1.6,13.8,1.1c7.4-1.2,13.8,2,21.2,5.7c3,1.5,6.2,3.1,9.6,4.4v-0.5
		c-3.3-1.3-6.4-2.9-9.3-4.3c-7.5-3.8-14-7-21.7-5.8c-2.5,0.4-8.6,1.1-12.9-0.8C-523.4,52.7-523.7,52.8-523.9,52.9
		C-523.9,52.9-523.9,52.9-523.9,52.9z"/>
	<path class="st0" d="M-540,62.2c0.5,0.5,0.9,1.1,1.3,1.6h0.7c-0.5-0.6-0.9-1.2-1.5-1.9c-0.5-0.6-1-1.3-1.4-2v1
		C-540.7,61.4-540.3,61.8-540,62.2z"/>
	<path class="st0" d="M-251.7,35.4c2,1.8,4.2,3.3,6.5,4.6c0.1-0.1,0.3-0.2,0.4-0.3c-2.3-1.3-4.5-2.8-6.5-4.6
		c-1.2-1.1-2.7-2.4-4.2-3.8c-0.2,0.1-0.3,0.1-0.5,0.2C-254.6,32.8-253.1,34.1-251.7,35.4z"/>
	<path class="st0" d="M-200.7,175.3c1.5-0.4,3-0.3,4.7-0.3c1.5,0.1,3,0.1,4.4-0.2c2.5-0.5,4-1.5,4.7-2.8c1.2-2.5-1.4-5.9-4.5-7.8
		c-3.3-2-8.6-3.4-14.2-4.6c0,0.2-0.1,0.3-0.1,0.5c5.5,1.2,10.8,2.5,14,4.5c2.9,1.8,5.3,4.9,4.2,7.1c-0.6,1.2-2,2.1-4.4,2.5
		c-1.4,0.3-2.8,0.2-4.3,0.2c-1.6-0.1-3.3-0.1-4.9,0.3c-2.1,0.6-6.3-0.1-9.5-1c-0.1,0.2-0.2,0.3-0.2,0.5
		C-207.6,175.1-203.2,176-200.7,175.3z"/>
	<path class="st0" d="M-201.7,187.7c-0.9-0.5-1.8-1-2.9-1.5c-1.9-0.9-3.4-1.3-5.2-1.5c-2.3-0.2-4.1,0.3-5.4,1.6
		c-2.5,2.4-2.6,6.8-2.2,10.2c0.5-0.1,1-0.2,1.4-0.3c-0.3-3.1-0.1-6.9,2-8.9c1.1-1,2.5-1.4,4.4-1.2c1.6,0.1,3,0.5,4.6,1.3
		c1,0.5,1.9,1,2.8,1.4c0.7,0.4,1.4,0.8,2.1,1.1c0.4-0.3,0.9-0.5,1.3-0.8C-199.8,188.7-200.8,188.2-201.7,187.7z"/>
	<path class="st0" d="M-484.1,42.9c1.5,0.1,3.2-0.1,4.9-0.4v-0.5c-1.7,0.4-3.4,0.5-4.9,0.5c-3.9-0.1-7.9-1.1-11.8-2.1
		c-0.4-0.1-0.9-0.2-1.3-0.3c-0.2,0.1-0.3,0.3-0.5,0.4c0.6,0.1,1.1,0.3,1.7,0.4C-492.2,41.7-488.1,42.7-484.1,42.9z"/>
	<path class="st0" d="M-259,32.6c-0.4,0.2-0.8,0.4-1.2,0.6c2.5,2.8,5.1,5.5,7.9,8.1c1,1,2.1,1.8,3.2,2.6c0.3-0.3,0.5-0.6,0.8-0.9
		c-1.1-0.7-2.1-1.5-3.1-2.4C-254.1,38-256.6,35.3-259,32.6z"/>
	<path class="st0" d="M-223.9,33.3c1.5,0.6,3,1,4.5,1.5c3.9,1.2,7.5,2.3,10.4,5.2c0.8,0.8,1.6,1.7,2.3,2.5c0.9,1,1.9,2.1,2.9,3.1
		c0.6,0.6,1.2,1.2,1.8,1.7c1.4,1.3,2.8,2.6,4,3.9c3.6,4.1,8.7,6.7,13.5,7c3.1,0.2,6,1.4,9,2.9c-0.3-0.6-0.7-1.3-1-1.9
		c-2.6-1.2-5.2-2.1-8.1-2.3c-4.4-0.3-8.9-2.7-12.2-6.4c-1.3-1.5-2.7-2.8-4.1-4.1c-0.6-0.6-1.2-1.1-1.8-1.7c-1-0.9-1.9-2-2.8-3
		c-0.8-0.9-1.6-1.7-2.4-2.6c-3.2-3.2-7.3-4.5-11.2-5.6c-1.4-0.4-2.9-0.9-4.4-1.4c-0.4-0.2-1.2-0.4-2.3-0.7c-3-0.8-8-2.2-12.2-4.2
		c-0.8,0.1-1.5,0.1-2.3,0.2c4.7,2.7,10.8,4.3,14.3,5.3C-225,33-224.2,33.2-223.9,33.3z"/>
	<path class="st0" d="M-481.2,82.7c-2.7,1.1-5.3,2.2-8.7,2c-5.1-0.3-10.1-1.2-15.2-2.7c-0.9-0.3-1.8-0.5-2.7-0.8
		c-2.3-0.7-4.8-1.3-7.1-2.1v0.5c2.3,0.8,4.7,1.5,7,2.1c0.9,0.3,1.8,0.5,2.7,0.8c5.2,1.5,10.2,2.4,15.4,2.7c3.5,0.2,6.1-0.9,8.9-2.1
		c0.4-0.2,0.9-0.4,1.4-0.6c0.1,0,0.2-0.1,0.3-0.1v-0.6c-0.2,0.1-0.4,0.1-0.6,0.2C-480.3,82.3-480.8,82.5-481.2,82.7z"/>
	<path class="st0" d="M-289,163.2c0.8,1.5,1.7,3,2.6,4.5c0.6,0.7,1,1.4,1.4,2.1c0.7,1.1,1.5,2.1,2.2,3.2c0-0.5-0.1-1.2-0.3-2.1
		C-283.8,168.7-285.9,165.9-289,163.2z"/>
	<path class="st0" d="M-275.2,166.1c-3-6.3-7.5-8.4-16.5-12.5c-0.6-0.3-1.3-0.6-1.9-0.9c0.1,0.2,0.2,0.4,0.2,0.7
		c0.5,0.2,1,0.5,1.5,0.7c8.8,4,13.2,6,16.2,12.1c1.2,2.5,2.5,9,1.1,12.1c-0.2,0.4-0.4,0.7-0.7,1c-0.4,0.4-0.9,0.6-1.5,0.7
		c0.2,0.2,0.3,0.3,0.5,0.5c0.5-0.1,1-0.4,1.4-0.7c0.3-0.3,0.6-0.6,0.8-1.1C-272.6,175.4-274,168.7-275.2,166.1z"/>
	<path class="st0" d="M-282.1,137.5c-6-1.2-11.6-2.3-16.7-4.6c0,0.2,0.1,0.4,0.1,0.6c5.1,2.2,10.7,3.3,16.6,4.5
		c7,1.4,14.2,2.9,20.6,6.3c0-0.2,0-0.4-0.1-0.6C-268,140.4-275.1,138.9-282.1,137.5z"/>
	<path class="st0" d="M-285,119.7c-1.6-0.6-4.3-2.7-7.2-5c-2.6-2.1-5.4-4.3-8.1-5.9c0,0.5,0,1,0,1.4c2.3,1.5,4.9,3.5,7.2,5.3
		c3.1,2.5,5.8,4.6,7.8,5.3c7.6,2.7,13.9,2,19.5,1.4c1-0.1,1.9-0.2,2.9-0.3c0-0.4,0-0.9,0-1.3c-1.1,0.1-2.2,0.2-3.3,0.3
		C-271.7,121.6-277.8,122.2-285,119.7z"/>
	<path class="st0" d="M-350.2,59.9c-0.6,1.2-1.1,2.5-1.6,3.7c-0.4,1.1-0.8,2.1-1.3,3l-0.1,0.2c-0.6,1.3-1.5,2.2-2.6,3.1
		c0,0.2,0.1,0.4,0.1,0.6c1.2-0.9,2.3-2,3-3.4l0.1-0.2c0.4-0.9,0.8-1.9,1.3-3c0.5-1.2,1-2.5,1.5-3.6c1.9-3.9,4.7-7.4,11.1-4.6
		c4.3,1.9,8.2,5.3,10.6,9.2c2,3.2,3.8,5.3,6.3,7.2c-0.1-0.3-0.2-0.6-0.3-0.9c-2.1-1.7-3.7-3.7-5.5-6.5c-2.4-4-6.4-7.5-10.9-9.5
		C-345.3,52-348.3,56-350.2,59.9z"/>
	<path class="st0" d="M-343.1,173.6c3.2,0.4,6.6,0.4,10,0.2c0.1-0.2,0.3-0.4,0.4-0.5c-3.5,0.1-7.1,0.3-10.4-0.2
		c-3.5-0.5-6.5-2.5-9.3-4.4c-1.9-1.3-3.8-2.5-5.8-3.4c0,0.2-0.1,0.3-0.1,0.5c1.9,0.8,3.8,2,5.7,3.3
		C-349.8,171-346.8,173.1-343.1,173.6z"/>
	<path class="st0" d="M-207.5,34.4c0.4,0.1,0.7,0.2,1.1,0.3c3.2,1,5.6,2.7,8.1,4.5c1.1,0.8,2.3,1.6,3.5,2.4c2.6,1.6,4.2,3.5,5.8,5.5
		c1.5,1.8,3.1,3.7,5.6,5.4c1.2,0.8,2.4,1.3,3.6,1.6c-0.2-0.2-0.3-0.4-0.5-0.7c-0.9-0.3-1.9-0.8-2.8-1.4c-2.4-1.6-4-3.5-5.5-5.3
		c-1.6-1.9-3.3-3.9-6-5.6c-1.2-0.8-2.4-1.6-3.5-2.3c-2.6-1.8-5-3.5-8.3-4.6c-0.3-0.1-0.7-0.2-1.1-0.3c-3.6-1.1-8.6-2.8-11.1-5.5
		c-0.3-0.1-0.5-0.1-0.8-0.2C-216.8,31.4-211.3,33.1-207.5,34.4z"/>
	<path class="st0" d="M-333.6,139.7c0.5-0.3,1.1-0.6,1.6-0.9c4.2-2.4,8.3-3.9,13.3-5.4c0.8-0.2,1.5-0.3,2.2-0.4
		c0-0.2,0.1-0.4,0.1-0.5c-0.8,0-1.7,0.1-2.6,0.4c-5,1.5-9.2,3-13.4,5.4c-0.5,0.3-1.1,0.6-1.6,0.9c-6.3,3.7-12.4,7.2-20.3,7.4
		c0,0.2,0,0.4-0.1,0.5C-346.2,147-340,143.5-333.6,139.7z"/>
	<path class="st0" d="M-348.5,163.5c1.4,1.2,3.2,2.6,5.4,3.7c4.5,2.2,9.1,2.8,12.6,3c0.1-0.2,0.2-0.3,0.3-0.5
		c-3.4-0.2-8.1-0.8-12.7-3c-2.1-1-3.8-2.5-5.2-3.6c-0.9-0.7-1.6-1.3-2.2-1.7c-2.9-1.6-4.8-2.9-5.9-3.9c0,0.2-0.1,0.4-0.1,0.6
		c1.3,1.2,3.3,2.4,5.8,3.8C-350,162.2-349.3,162.8-348.5,163.5z"/>
	<path class="st0" d="M-332.3,93.5c-2.2-0.4-3.5,1.5-4.4,3.4c0,0,0,0,0,0c-0.2,0.4-0.4,0.9-0.6,1.3c-0.2,0.4-0.4,0.8-0.5,1.1
		c-0.3,0.6-0.6,1.1-0.8,1.4c-0.6,0.7-2.5,0.7-4.4,0.7c-1.7,0-3.4-0.1-4.5,0.5c-1.6,0.8-2.6,1.6-4.2,2.7c-0.2,0.2-0.4,0.3-0.7,0.5
		c0,0.6,0,1.2,0,1.8c0.7-0.5,1.2-0.9,1.7-1.3c1.5-1.2,2.4-1.9,4-2.6c0.8-0.4,2.4-0.4,3.9-0.3c2.2,0,4.5,0.1,5.4-1.1
		c0.3-0.4,0.6-0.8,0.9-1.6c0.2-0.4,0.4-0.8,0.5-1.2c0.2-0.4,0.4-0.8,0.6-1.3c0,0,0,0,0,0c0.7-1.4,1.7-3.1,3-2.8
		c5.1,0.8,8.3,3,11.9,5.6c1.6,1.1,3.3,2.3,5.3,3.4c0-0.5-0.1-1-0.1-1.5c-1.6-1-3-2-4.3-2.9C-323.3,96.8-326.7,94.4-332.3,93.5z"/>
	<path class="st0" d="M-339,76c-0.9,0.2-1.6,0.9-2.2,2.1l0,0c-0.4,0.9-0.7,1.9-1,2.9c-0.3,1-0.6,1.9-1,2.7c-0.4,0.8-0.8,1.3-1.3,1.5
		c-2,0.9-3.9,2.9-5.8,5c-0.8,0.9-1.6,1.7-2.5,2.6c0,0.3,0,0.5,0.1,0.8c1-0.9,2-2,2.9-3c1.9-2.1,3.8-4,5.7-4.9
		c0.6-0.3,1.1-0.8,1.5-1.7c0.4-0.8,0.7-1.8,1-2.8c0.3-1,0.6-2,1-2.8l0,0c0.5-1.1,1.1-1.7,1.9-1.9c5.6-1.4,11,5.2,15.9,11
		c2.4,2.9,4.8,5.7,6.8,7c0-0.2-0.1-0.5-0.1-0.7c-1.9-1.4-4-3.9-6.3-6.6C-327.4,81.3-333,74.5-339,76z"/>
	<path class="st0" d="M-366.6,185c1.9-0.4,3.9-0.9,5.4-0.6c1.4,0.3,4.5,1.7,7.2,2.9c1.4,0.6,2.7,1.2,3.8,1.7
		c0.4-0.3,0.9-0.5,1.3-0.8c-1.2-0.5-2.9-1.2-4.7-2c-3-1.3-6-2.7-7.6-3.1c-1.8-0.4-4,0.1-6.1,0.5c-0.7,0.2-1.4,0.3-2,0.4
		c-0.6,0.6-1.3,1.1-1.9,1.5C-369.7,185.7-368.1,185.4-366.6,185z"/>
	<path class="st0" d="M-377.8,192c1.9,0.1,3.1-0.4,3.6-1.6c0.4-0.8,0.4-1.9,0.4-2.8c0-0.1,0-0.3,0-0.4c-0.5,0.2-1,0.5-1.5,0.7
		c0,0.7-0.1,1.3-0.3,1.8c-0.2,0.5-0.7,1-2.4,0.9c-0.7,0-1.5-0.6-2.2-1.5c-0.5,0.1-1,0.1-1.6,0.2C-380.5,190.8-379.2,191.9-377.8,192
		z"/>
	<path class="st0" d="M-247.8,182.7c-0.8,1.8-1.4,3.7-2,5.3c-0.5,1.5-1,2.9-1.5,3.9c-0.3,0.6-0.6,1-0.8,1.3c-0.8,0.8-1.7,1.1-2.7,1
		c0.4,0.2,0.8,0.3,1.2,0.5c0.7-0.1,1.3-0.5,1.9-1.1c0.3-0.3,0.6-0.8,0.9-1.4c0.5-1,1-2.4,1.5-3.9c0.5-1.6,1.1-3.3,1.9-5
		C-247.5,183-247.6,182.8-247.8,182.7z"/>
	<path class="st0" d="M-400.9,182.7c0.6,0,1.2,0,1.8-0.1c-0.4-0.4-0.8-0.8-1.2-1.3c-0.3,0-0.6,0-1,0c-6.4,0.2-13.1,0.4-19.2-0.7
		c-3.2-0.6-5.9-0.9-8.2-1.2c0.5,0.5,1,1,1.5,1.5c1.9,0.3,4.1,0.6,6.6,1C-414.1,183.1-407.4,182.9-400.9,182.7z"/>
	<path class="st0" d="M-422.2,171.4c2.2,1.1,7.6,0.9,13.3,0.7c1,0,2.1-0.1,3.1-0.1c-0.1-0.2-0.2-0.3-0.2-0.5c-1,0-2,0.1-3,0.1
		c-5.6,0.2-10.9,0.3-13-0.7c-0.8-0.4-2-0.8-3.6-1.3c-4.3-1.4-10.8-3.5-15-7.3c0.2,0.4,0.4,0.8,0.6,1.2c4.3,3.3,10.3,5.3,14.3,6.5
		C-424.1,170.7-422.9,171.1-422.2,171.4z"/>
	<path class="st0" d="M-253.6,174.2c-0.1-0.2-0.2-0.4-0.3-0.6c-2,1.8-3.6,3.7-4.5,5.5c-0.2,0.5-0.4,1-0.5,1.4
		c-0.9,4-4.3,6.1-10.1,6.1c0.2,0.2,0.5,0.3,0.8,0.5c4.8-0.2,7.9-1.7,9.3-4.7c0.3-0.5,0.5-1.1,0.6-1.8c0.1-0.4,0.3-0.9,0.5-1.3
		C-257,177.7-255.4,175.9-253.6,174.2z"/>
	<path class="st0" d="M-446.8,127.5c2-0.1,4.1-0.1,6.2-0.2c0.5,0,1.1,0,1.7-0.1c5.8-0.2,16.7-0.5,20.8-3.2c1-0.7,2.4-0.9,3.9-0.9
		c0-0.4,0-0.9,0-1.3c-1.9,0-3.6,0.3-4.9,1.2c-3.8,2.5-14.4,2.8-20.1,3c-0.6,0-1.2,0-1.7,0.1c-2.1,0.1-4.2,0.1-6.2,0.2
		c-1.3,0-2.5,0.1-3.7,0.1c0,0.4,0.1,0.9,0.2,1.3C-449.4,127.6-448.2,127.5-446.8,127.5z"/>
	<path class="st0" d="M-378.8,36c1.3-3,3-5.8,5.2-8.3c-0.2,0-0.5-0.1-0.7-0.1c-2.1,2.5-3.7,5.3-5.1,8.3
		C-379.2,35.9-379,35.9-378.8,36z"/>
	<path class="st0" d="M-446.7,105.3c4.1-0.7,8-2.1,11.8-3.5c1-0.4,2.1-0.8,3.1-1.1c2.5-0.9,4.7-1.9,6.6-2.9c0.8-0.5,1.6-1,2.4-1.6
		c1-0.8,2.1-1.6,3.3-2.1c1.2-0.5,3.3,0.2,5.7,1.4c0-0.2,0-0.4,0-0.5c-2.4-1.2-4.6-2-6-1.4c-1.3,0.5-2.4,1.3-3.4,2.1
		c-0.7,0.5-1.5,1.1-2.3,1.6c-1.9,1.1-4,2-6.6,2.9c-1,0.4-2.1,0.8-3.1,1.1c-3.7,1.4-7.6,2.8-11.6,3.5c-1.5,0.2-2.9,0.3-4.4,0.1
		c0,0.2,0,0.3,0,0.5C-449.8,105.5-448.3,105.5-446.7,105.3z"/>
</g>
<path class="st1" d="M72.3,98.6l7.4,3.4c19.7,8.9,30.7,21.2,30.7,40.9c0,25.8-19.7,43.8-53.8,43.8c-32.2,0-53.6-14.6-53.6-37.5
	c0-18.2,15.2-29.4,33.7-33.7l-4.2-2.1C18.7,106.9,7.9,95,7.9,75.6c0-24.3,19.3-41.7,48.7-41.7c29.2,0,47,13.3,47,34.7
	C103.6,85.5,88.2,95.9,72.3,98.6z M41.6,117.7c-11.2,7.8-15,17.6-15,29.4c0,19.1,11.9,32.2,30.3,32.2c17.4,0,28.8-9.1,28.8-25.8
	c0-12.5-7.8-19.1-19.7-24.3L41.6,117.7z M67.4,96.1C76.3,89.8,82,81.5,82,68.4c0-15.7-9.1-27.1-25.6-27.1
	c-14.6,0-24.1,9.1-24.1,22.7c0,13.1,7,18.2,18.6,23.9L67.4,96.1z M184.5,144.4H118v-5.7L193.6,36h21.2v99.1h25v9.3h-25v18.8
	c0,11.6,2.5,13.3,17.6,14.8v6.6h-65.6V178c15.2-1.5,17.8-3.2,17.8-14.8V144.4z M184.5,135.1V64.1l-52.7,70.9H184.5z M267.6,156
	c8.2,0,14.7,6.5,14.7,14.9c0,8.6-6.5,14.9-14.7,14.9c-8.2,0-14.9-6.3-14.9-14.9C252.7,162.5,259.4,156,267.6,156z M341.8,144.4
	h-66.5v-5.7L350.9,36H372v99.1h25v9.3h-25v18.8c0,11.6,2.5,13.3,17.6,14.8v6.6H324V178c15.2-1.5,17.8-3.2,17.8-14.8V144.4z
	 M341.8,135.1V64.1L289,135.1H341.8z"/>
</svg>
