<?xml version="1.0" encoding="utf-8"?>
<!-- Generator: Adobe Illustrator 19.2.1, SVG Export Plug-In . SVG Version: 6.00 Build 0)  -->
<svg version="1.1" id="Layer_1" xmlns="http://www.w3.org/2000/svg" xmlns:xlink="http://www.w3.org/1999/xlink" x="0px" y="0px"
	 viewBox="0 0 150.1 200" style="enable-background:new 0 0 150.1 200;" xml:space="preserve">
<style type="text/css">
	.st0{fill:none;stroke:#A06628;stroke-width:0.9686;stroke-miterlimit:10;}
</style>
<path class="st0" d="M96.1,13.1c1.1,2.1,2.1,3.1,0.8,4.7c0.6,0.3,2.6-1.7,2.5-1.6c3.5,6.7,6.3,6.1,10.8,10.6
	c2.5,2.5,15.2,8.3,15.6,9.3C123,51,115,103.3,115,103.3s2.6,15.9,6.5,22.7c13.7-9.5,24.8,19.9,27.3,31.8c0.8,3.7-2.1,3.6-3.1,6.2
	c0-0.1-0.3,0.1-0.3,0.1c-0.1-0.7-0.1-1.1-0.6-0.5c0,0-0.3-0.1-0.3-0.2c0.2-3.3,1.5-5.8,0-9.4c0-0.1-0.2-0.3-0.2-0.4
	c-0.2,0.5,0.4,0.8,0.6,1.3c-0.1,0.1-0.1,3.8,0,4.2c-0.1-0.1-1.4-1.1-1.2,0.8c-1.2-1.5-0.1-2.9-1.6-5.2c-0.5,0,0.2-0.5,0.1-0.7
	c-0.1,0-0.1-0.1-0.2-0.1c-0.2,0.2-0.3,0.2-0.5,0.1c-0.3,0.2-0.4,2.8-1.1,2.9c0,0-0.2-0.3-0.3-0.3c-0.1-0.1-0.3-0.1-0.4-0.2
	c0.1-0.1-0.2-1.6-0.4-1.7c0.1-0.2,1.6-0.7,1.5-2.5c0.3,0.2,0.6-0.4,0.6-0.8c-0.3-0.1-2.1,3-2.4,2.4c0.1-0.1,0-0.2-0.1-0.2
	c0-1.3-0.8-1.4-0.8-1.4c0,0.2-0.3-1.8-0.2-1.5c0.1-0.4,3.3-2,2.5-0.8c-1.6-5.5-2.6-9.3-2.7-10.4c-1.6-4.5-4.8-8.9-7-15.2
	c-0.2,0.4-0.2,0.5,0,0.8c-0.1,0.1-0.1,0.1,0,0.1c-1.2,1.4,0.3,5.6-0.1,7.5c-0.4-0.6-0.1,1-0.1,0.8c0.2,0.3-5.6-7.6-3.3-7.1
	c-0.1,4-1.2,0-1.6-0.2c0.1,0.9-0.8,0.2-1.1,0c0,0.5-0.4-0.3-0.3-0.2c0,0.6,1.9,4.7,2.4,5.2c-0.2,0-0.3,0.1-0.3,0.2
	c-0.6-0.6-2.1-0.6-2.3,0.6c-2.4-4.5-6.7-8.5-10.6-13.4c0.9,0.9,2.3-2.5,2.1-3.5c-7.9-1-15.2-5.3-20-9.1c-0.9-0.7-1.4-1.1-1.8-2.1
	c-2.8,1.4-1.8,1.1-4.3,1.4c0.4-0.2,1.1-0.8,0.1-0.9c1.2-0.7,2.1-0.6,4-0.6c-0.1-0.2-0.6-0.6,0.1-0.7c0.3,0.3-1.9-0.1-0.2-0.3
	c0.5,0.5-2.5-1.3-2.8-0.7c-0.1-0.8,1.5-0.3,2.2-0.7c-2.9-2.2-1.5,1.2-1.3-2.2c-2.8-1-1.5-0.4-3-1.4c-4.4,2,0.2,1-1.6-0.3
	c-0.3,1-0.6-0.3-0.5-0.3c-0.1,0.9-1.7,1.5-1.9,1.5c0.5,3-0.4,1.7-1.4,4.4c0.2,0.5,1.3,0.8,1.4,1.5c-0.1,0-0.1,0-0.2,0.1
	c-0.5-0.2-0.6,0.4-0.6,0.6c0.1,0.1,0.7-0.7,0.8-0.3c0.2,0.1-1.1,0.6-1.1,0.5c-1.1-0.9-3.1-1.8-4.5-3.1c-0.5,0.2-8.8,4.2-9,3.7
	c-0.3-0.8-1.7-0.7-2.5-0.6c0.2-0.4,0-0.8-0.5-0.8c0.1-0.1,0.2-0.2-0.2-0.3c0.1-0.2,0.2-0.4,0.3-0.6c-0.1,0.1,0.9-0.1,0.5-0.3
	c0.9-0.6,3,0.4,3.4-0.1c0,0,0.3-0.4,0.3-0.5c0.3-0.3,0.7-0.3,1.1-0.6c0,0-0.4,0-0.2-0.1c-3.9,4.9,0.4-10.6,3.9-7.5
	c-0.6-0.5,4.4,0.8,3.7,1c-0.2-0.1,0.9,0,0.6,0c0.2,0.1,0.1-0.8,0.1-0.8c-0.8-0.1-0.6-1.3-0.1-1.6c-5.1,0.8-6.8,0.6-11.1,2.6
	c-2.8,1.3-6.9,2.7-6,2.3c-1.9,0.8-2.9,2.1-5.2,3.1c0.1,0.9,2.2,1.5,2.8,3.6c-6,1.9-10.3,1.9-14.8,4c-4,1.9-11.1,3.9-14,4.2
	c-0.5,0-3.8,0.4-7.8,1.2c-0.6-0.2,0.8-0.2,0.5-0.1c-2.2-0.8-5.5-3.3-6.7-4.3c0,0-0.7-0.4-0.7-0.3c-6.9,3.6-2.7,1.2-5.4-0.5
	c-3,0.1-4.7,1.6-12.2,0c0,0,0.2-0.7,0.2-0.7c0.1-0.1,0.1-0.1,0-0.2c0,0,0.2-0.5,0.2-0.5c9.1-0.1,7.1,1.6,18.2-0.2
	c3.8-0.6,2.3,3.3,2.9,3.7c0.1,0,0-0.3,0-0.3c1.4-0.3-0.1-0.3,1.1,0.4c0.4-0.1,0.3,0.4,0.5,0.5c0.3-0.1-0.2-0.7,0.3-0.4
	c4-1.3,15.5-5.1,19-9.4c0.9-1.1,3.1-1.9,5-3.9c0.1,0.1,0.3-0.9,0.3-0.9c-4.1-1.5-3.3-0.1-5.8-2.9c-2-0.2-1.3,3-2.8,3.1
	c-0.1,0-0.4-0.2-0.5-0.2c0-0.2-0.2-0.4-0.3-0.5c-5.6-4.5,0.3-3.2-8.8-6.8c0.4-0.5-0.8-1.4-1.1-1.6c0.3-0.3,0.9,0.6,0.9,0.5
	c2.4-3.7,3.2-6.8,5.7-10.6c-0.2-0.1-1.1,0.7-0.5-0.3c-4.3-3.3-5.2-6.5-8.1-9.3c0.5-1.2,3.7-1.7,4.3-2.2c-4-6.9-0.8-4.8,7.3-9.5
	c3.4-2,11.2,2.3,13,0.9c2.7-2,6.3-4.9,7.5-5.9c0,0,0.5-0.7,0.5-0.7c0.1,0-0.1-0.8,0-1c-0.1,0-0.3-1-0.3-1.2c-1.2,0-6.1,1.3-7.1,1
	c-1.5-1.5-7.8-7.5-7.3-12.3c0.2-2.2,1.9,0.7,2.1-0.8c0.4-1.1-3-3.9-3-5.6c0.1,0,0.2-0.2,0.2-0.4c8.2,0.6,8.5-0.2,15.1,2.3
	c0.1,0.1,0,0.5,0.3,0.6c0.9,1.5,2.9,3.8,5.8,7c0,0,0.2-0.8,0.1-0.8c0.1-0.5-1.8-4.3-1.7-6.1c0-0.1,0.2-0.2,0.2-0.3
	c0,0,1,5.7,1.8,4.7c0,0-0.4-0.3-0.4-0.3c-0.9-2.4,1.8-2.9,1.8-2.8c-1.3-1.9-8.4-9.6-4.7-14c0.1-0.1-1.8-3.9-1.9-4.4
	c9.8-0.8,17.7-3.2,28.7-4.2C86.4,13,95.2,13,96.1,13.1z"/>
</svg>
