<?xml version="1.0" encoding="utf-8"?>
<!-- Generator: Adobe Illustrator 19.2.1, SVG Export Plug-In . SVG Version: 6.00 Build 0)  -->
<svg version="1.1" id="Layer_1" xmlns="http://www.w3.org/2000/svg" xmlns:xlink="http://www.w3.org/1999/xlink" x="0px" y="0px"
	 viewBox="0 0 150.1 200" style="enable-background:new 0 0 150.1 200;" xml:space="preserve">
<style type="text/css">
	.st0{fill:none;stroke:#A06628;stroke-miterlimit:10;}
</style>
<path class="st0" d="M17.3,118c-5.5,0.6-3.5-6.3-4.3-9.8c6.7-2.1,3.9-11.7,6.4-15.5c2.3-3.5,6.6-4.4,6.1-8.4c-0.2-1.2-4-2.3-4.3-2.8
	c-0.9-1.6-0.8-4.3-1.7-6.2c-2-4.3-3.3-6.4-3.6-10.7c3.3-2.2-1.1-17-0.7-21.1c0.4-3.6-2.1-4.7,2.9-5.8c3.1-0.7,5.7,4.1,7.5,3.7
	c6.2-1.6,3.8-19.7,4-25.3c27.4,0.8,55,0.7,82.3,0.2c7-0.1,14-0.3,20.9-0.5c0.7,33.5,1.9,67,2.8,100.5c0.4,15.1,0.8,30.2,1.2,45.3
	c-14.5,0.1-30.7,3-45,0.6c-11.4-1.9-23.2-8.6-34.1-12.6c-13.7-5-28.9-9.2-41.9-15.9c-4-2.1-6-1.9-5.2-5c0.8-3.2,4.9-2.2,5.8-3.5
	C17.9,123.1,18.9,120.4,17.3,118z"/>
</svg>
