<?xml version="1.0" encoding="utf-8"?>
<!-- Generator: Adobe Illustrator 19.2.1, SVG Export Plug-In . SVG Version: 6.00 Build 0)  -->
<svg version="1.1" id="Layer_1" xmlns="http://www.w3.org/2000/svg" xmlns:xlink="http://www.w3.org/1999/xlink" x="0px" y="0px"
	 viewBox="0 0 150.1 200" style="enable-background:new 0 0 150.1 200;" xml:space="preserve">
<style type="text/css">
	.st0{fill:none;stroke:#A06628;stroke-width:0.7937;stroke-miterlimit:10;}
</style>
<path class="st0" d="M15.9,11.3c13.8,0.3,27.8,0.6,41.6,0.8c15,0.1,30,0.2,45.1,0c8.7-0.1,17.4-0.2,26.1-0.4c0.1,1.4,2.2,3,2,5
	c-0.3,3-2.7,4.1-4.3,6.8c-0.8,1.3-2.2,2.5-3.3,4.3c6.9-0.1,16-2.4,18.5,3.2c-2.2-4.8-3.5,4.1-1,2.1c-1.4,1.2-5.4,1.6-6.2,2.6
	c-2.1,2.7,1.7,2.2,2.3,2.2c0,0,0,0.1,0,0c-1.8,2.3-1.2,2.2-1.1,4.2c0,0-0.1,0.4-0.1,0.5c-0.1,0.1-0.1,0.1-0.2,0.2
	c-3.4-2.4-3.6,0.3-3.6,3.5c0-0.1-0.1-0.1-0.1,0c-1.5-2.8-1.7-2.4-2.7,1.1c2.4-1.2,1.8,3.9,1.3,5.9c-0.6,2.5-0.2,0.1-1.8,3.6
	c-1,2.1-2.2,0.3-2.8,1.3c-0.8,1.2,1.1,3.1,1.3,2.9c-1.9,2.3-2.8,5.4-5.5,1.8c0.3,2.3,0.4,7.8-1.4,2.9c0,0-0.6,0.1-0.6,0.1
	c0.5,2.9,2.5,6.5-0.3,3.2c-0.5,4.1,0.3,8.8-2.7,12.2c0.1,0.1-0.7,0-0.7,0c-0.3-0.7,0.2-0.9,0.1-1.6c-2.4,1.1-2.6,2.2-4.3,5.2
	c-0.9-0.3-1.4-0.9-2.2-1.2c-0.1-0.1-0.2,0.3-0.2,0.3c4.5,2.8,0.8,2.3,0.8,2.2c0,1.9,2.2,3.9-2.1,4.6c-0.4,0.9,1.4,3.2-0.8,0.5
	c-2.6,2.5,0.5,1.7-0.8,5.7c0.8-2.4-0.3,5.2-0.2,1.4c0-0.9-2.1,0.6-2.2,0.9c0.4-0.8,1.5,3.1,1.5,3c0-0.9-2.8-2-3.6-1
	c-0.9,1.2,2.8,1.2,2.3,2c-1.3,2.1-2.8,2.9-2.6,5.9c2.7-1.2,3.7-1.6,0.7,1c0,0,0,0.1,0,0.1c1-0.4,2.3-0.6,3.8-1.6
	c0.1,0.1,0.1,0.1,0.2,0.1c-2,2.1-2.6,4.4-1,6.7c0.8-1,0.3-0.9,1.3-1.4c-0.1,4-2.6,3.8-4,5.6c-1.3,1.7,5.4,0.9-2.3,3.2
	c-3.4,1-8.5,0-12,0c-10.2,0-58.1,3.5-61.6-3.7c-1.3-2.8,0.2-12.9,0-14.6c-1-0.1-1.1-0.1-2,0.5c-0.9-1.2-0.4-0.9-2.3-1.1
	c0,0.5,0.6,0,0.6,0.9c-0.2-0.2-1.2-0.4-1.5-0.1c-0.1-0.3,0.6-0.7,0.4-1c-0.3,0.2-0.9,0.9-1.3,1c0,0-0.1-0.1-0.1,0
	c-0.1,0,0.4-0.6,0.2-0.8c-1.5,1.1-1.1,0.6-2.7,1.2c-0.1-0.1-0.2-0.4-0.3-0.4c-0.2-0.2,0.8-0.3,0.5-0.9c-0.8-0.1-1.4,0-2.4-0.6
	c0.1-0.6,0.6-0.7,0.7-1.2c-0.3-0.4-0.6,0.4-1,0c0.5-15.4,1.4-30.9,2.3-46.3c0.5-9.7-0.6-19-1.7-28.7C15.5,22.8,13.3,12.8,15.9,11.3z
	"/>
</svg>
