<?xml version="1.0" encoding="utf-8"?>
<!-- Generator: Adobe Illustrator 19.2.1, SVG Export Plug-In . SVG Version: 6.00 Build 0)  -->
<svg version="1.1" id="Layer_1" xmlns="http://www.w3.org/2000/svg" xmlns:xlink="http://www.w3.org/1999/xlink" x="0px" y="0px"
	 viewBox="0 0 150.1 200" style="enable-background:new 0 0 150.1 200;" xml:space="preserve">
<style type="text/css">
	.st0{fill:none;stroke:#A06628;stroke-width:0.9145;stroke-miterlimit:10;}
</style>
<path class="st0" d="M8.2,10.8c5.8,0.2,11.5,0.3,17.2,0.4c6.2,0.1,18.8-2.5,24.2,0.1c1.8,0.9,1.7,3.3,2.8,4
	c4.2,2.5,10.2,2.8,16.7,3.2c11.4,0.6,22.9,1.2,34.3,1.9c-0.5,2.7,1.3,6.1,3.4,3.2c1.8-2.4-1.4-5.6,0.2-7.6c0.7-0.9,7.9-0.6,9.4,0.8
	c2.7,2.3,3.5,13.4,5.1,18.6c1.9,6,4.5,12,7.6,17.6c6.7,11.7,9.5,24.7,14.8,38.3c3.5,9.1,5.2,22,2.5,31.9c-0.2,0.7-0.3,1.7-0.5,2.5
	c-0.5-0.7-0.2-1.1-0.6-1.7c-5.1,4.5-1.6,10-7.9,12.6c-10,4.1-9.2-1.4-12.7-8.7c-1.7-3.5-4.7-8.7-8.9-5.1c-2.4-4-3-15.6-8.6-13.7
	c-0.5-1.2-1.2-3.6-1.5-4.6c0.1,0,0.1,0,0.1-0.1c1,0.1,0.9,0.7,1.6,0.8c0.6-2.3,0.7-4.9,0.5-6.2c-2,1.7-2,3.1-3.7,5.1
	c-2-6.4-6.4-12.2-9.7-17.6c2.7,1.4,7.5-5.7,5.4-8.4c-0.1,0-0.2-0.1-0.3-0.2c0,0.3,0.2,2.2,0.1,2.3c-0.6-2.1-1.8-2.5-4.7-2.9
	c0.5,0.2,2.1,1.3,2.9,1.6c-0.7,2.2-2,4.6-3.1,5.9c-1.1-2.6-1.7-4.9-2-7.6c0.3,0.1-0.1,1.2-0.1,1.2c1.9-7.3,6.2-19.4,0.7-25.1
	c-1.4-1.4-2.3-3.1-5.2-1.4c-3.3-7.3-14.5-24.2-24.9-19.9c-1,0.4,1.1,2.7,0.4,3.1c-1.2,0.7-2.3-0.7-3.3-0.1c-2.3,1.6-4.9,2.9-7.2,4.2
	c-0.1-0.2,0.2-1.2,0.3-1.1c-0.1-0.1-0.2-0.2-0.3-0.3c-2.3,1.8-6,1.9-8.6,2.8c-0.6-1.9-1.3-2.8-0.9-4.7c0.8,6.3,2.9,2.3,1.1,0.4
	c-1.6-1.6-3-3.1-4.7-4.5c-4.5-3.6-10.5-6.5-16.5-7.3c-6.5-0.8-13.4,0.7-19.7,1.8c0.3-0.3,1.1-0.5,1.3-0.7c-0.1,0.2-0.9,0-0.9,0.1
	c0-0.1,0-0.1-0.1-0.1c0,0,0-0.3,0-0.3c1-0.7,1.7-1.5,2.7-2.4c-0.1-0.1-0.1-0.1-0.1-0.2c-0.1-0.1-4.7-8.8-4.6-9.1
	c0.1-0.7,0.4-2.4,0.6-3.1C4.4,10.8,6.7,10.4,8.2,10.8z M122.3,146.4c0.7,0.7,1.4,1.1,2,1.9c-2,0-2.3,0.5-4-0.1
	c-1.7,1.7-3.5,2.3-6.1,2.8c-0.1,0.1-0.1-0.6,0-0.6c2.8-0.7,5.6-2.6,7.1-4.1C121.7,146.9,121.5,146.5,122.3,146.4z M144.3,132.4
	c0.6-1.2,1.2-2.3,1.6-3.6c-1.5,6-4.8,10.2-9.1,13.8c0-0.1,0-0.2,0.2-0.2c1.7-1.9,2.7-3,3.2-4.5c1.5-0.5,2.1-1.6,2.1-3.9
	C143.2,134,143.8,133.4,144.3,132.4z M105.5,107.4c-0.5-1.3-1.4-2.2-1-3.3c0.2,3.3,1.8,5.4,4.7,5.4
	C106.4,111.1,106.9,108.9,105.5,107.4z M48.2,40c0.1,0.4,2-0.9,1.1,1.1C46.2,40.2,48.2,39.9,48.2,40z M55.4,39.5
	c0.4-0.2,1.5-1.2,1.6-1.2c-2.1,2.3-5.1,3.8-7.6,2.9C51.9,41.9,52.7,40.5,55.4,39.5z M131.7,145.4c0.1,0-2.7,1.6-3.7,2.1
	c0,0-0.3-0.4-0.3-0.4C129.1,146.5,130.1,146.1,131.7,145.4z M107.4,150.4C109.2,150.7,107.2,150.3,107.4,150.4L107.4,150.4z
	 M123.1,146.1C124.1,146.4,125.1,146.7,123.1,146.1L123.1,146.1z M92.9,76.1c0.2,2-0.2-0.8-0.3-1.4C93.3,74.6,92.8,75.4,92.9,76.1z
	 M133.7,144.3C133.7,144.2,134,144.9,133.7,144.3L133.7,144.3z M135.9,143C135.7,143.1,134.2,144.8,135.9,143L135.9,143z
	 M125.2,147.8C125.4,147.6,124,149,125.2,147.8L125.2,147.8z M132.3,145.1C132.5,144.9,131.6,145.8,132.3,145.1L132.3,145.1z"/>
</svg>
