<?xml version="1.0" encoding="utf-8"?>
<!-- Generator: Adobe Illustrator 19.2.1, SVG Export Plug-In . SVG Version: 6.00 Build 0)  -->
<svg version="1.1" id="Layer_1" xmlns="http://www.w3.org/2000/svg" xmlns:xlink="http://www.w3.org/1999/xlink" x="0px" y="0px"
	 viewBox="0 0 150.1 200" style="enable-background:new 0 0 150.1 200;" xml:space="preserve">
<style type="text/css">
	.st0{fill:none;stroke:#A06628;stroke-width:0.7373;stroke-miterlimit:10;}
</style>
<path class="st0" d="M99.2,52.6c2,4.5,19.5,2.2,14.8,9.8c-0.6,1-6.9,3.2-8.4,2.7c-3.2-1.2-1.9-3.2-4.1-6
	C100.9,58.2,91.3,54.3,99.2,52.6z M62.8,33.8c2.3,3.2,2.5,5.1,4.5,7.9c0.7-0.8,0.2-0.7,1.2-1.2c0.6,1.2,1.5,2.8,2.3,4.1
	c-2.2,2.2-6,0.6-8,0.1c-5.2-1.3-5.4-1.9-8.7-7.6C57.7,37.7,60.7,34.9,62.8,33.8z M22.8,18.5c4.1-0.2,6,4.1,3.5,7.5
	c-3.7,5-13.4,0.6-10.6-4.8C16.9,18.8,21.4,18.5,22.8,18.5z M87.8,48.2c1.5-0.1,5.1,1.1,8.1,0.6c-2.9,5.1-11,1.5-16,1.7
	c0.2-0.7,1.2-3.2,1.4-3.4C83.3,47.6,85.6,47.6,87.8,48.2z M88,55.4C103.4,55.6,80.4,64.3,88,55.4L88,55.4z M2.5,30.7
	c-0.3-3.2,2.3-5.7,4.7-5.3C6.1,27.3,4.3,29.9,2.5,30.7z M99.9,64.6c0.6,2.8-0.4,3.3-3.7,2.2C97.2,65.6,98.5,65.2,99.9,64.6z
	 M-6.2,34C-6.1,34.2-5.6,35.2-6.2,34L-6.2,34z M67.2,41.1C67,41.2,67.1,41.1,67.2,41.1L67.2,41.1z M125.4,111.3
	c-8,1.8-8.8-13.3-9.8-19.3c-0.7-4,0.5-3.2,1.6-6.9c0.4-1.3,2.2-2.3,2.5-3.2c0.5-1.9-3.3-4.7-2.1-6.2c1.8-2.4,15.8,3.2,19.2,6.7
	c2.5,2.6,1.5,4.4,3.1,6.5c-0.3-0.4,6.7,4.3,6.7,5.2C147,101.4,128.8,103.5,125.4,111.3z"/>
</svg>
