<?xml version="1.0" encoding="utf-8"?>
<!-- Generator: Adobe Illustrator 19.2.1, SVG Export Plug-In . SVG Version: 6.00 Build 0)  -->
<svg version="1.1" id="Layer_1" xmlns="http://www.w3.org/2000/svg" xmlns:xlink="http://www.w3.org/1999/xlink" x="0px" y="0px"
	 viewBox="0 0 150.1 200" style="enable-background:new 0 0 150.1 200;" xml:space="preserve">
<style type="text/css">
	.st0{fill:none;stroke:#A06628;stroke-width:0.7138;stroke-miterlimit:10;}
</style>
<path class="st0" d="M12.9,70.4c0-1.4-0.9-2.3,1.1-2.5c0,0.1,0.1-0.4,0-0.4c0-1.7-2.3-9,2.7-10.3c2.7-0.7,4.2,2.7,6.5,2.7
	c4.8-0.1,0.8,0,3-2.4c0.1-0.1,2.6-4.3,2.8-4.5c1.1-1.4,4.1-1.8,4.6-2.4c-0.8,1,0.8-5.3,1.1-5.8c-0.9,1.8,4.3-3.2,2.1-2.6
	c1.4-0.4,2.4,1.1,4.5,0c-3.7,1.9,5.1-0.6,1-0.3c0,0,0.6-1.1,0.6-1.3c0.9,0.4,6.1,3.5,8,3.3c1.8-0.1,2.6-2.8,6.4-3.6
	c-1.5,0.3,3.9,2.8,3,2.1c0.3,0.4-0.3,1-0.2,1.6c2.2-1.7,3.6-4,3.6-6.4c0.6-0.3,2.1-0.7,2.9-1.1c0.9,2.5,2.4,3.9,4.7,4.9
	c0,0,0.1,0,0.1,0c0,0,0-0.1,0,0c2.7-2,5.2-7.1,7.3-9.6c1-1.2,3-4.5,3.7-5.1c0.9-0.9-0.7-2.1,0.7-3.2c1-0.8,3.4,0.9,3.4,0.9
	c2.5-1,4.4-2.1,7.2-2.2c-0.2-4.2-2.8-9.5,5.1-7.1c2,0.6,2.3,2.1,4.8,3.7c2.8,1.9,3.1,2.4,7.1,3.7c4.1,1.3,7.4,3.3,12.4,3
	c4.3-0.3,2.3-2.8,5.8-1.4c-0.3-0.1,4.7,4.4,4.8,4.6c2,4.5,0.3,6.4,2.1,10.8c0,0,0.9,0.3,1,0.3c-0.4,1.3,1.9,5.2,3.3,7
	c0.6,0.8,2,0.6,2.1,0.6c0,0,0.2,0,0.2,0c0.2,1,0.7,1.1,0.8,2.2c1.6-0.2,1.6,0.5,3.1,0.1c-4.7,4.6-10,7.1-13.6,10.9
	c-1.4,1.4-1.9,3.7-3.5,5.1c-2.4,2.1-5.7,3.5-9.4,5.1c-9.1,3.7-22.2,1.6-33,1.4c-15-0.2-28.9,0.3-43.7-0.6c-3.9-0.2-5.7-0.4-9.4-1.1
	c3.1,7.3-19.7,3.2-25.2,3.3C9.8,70.6,10.4,71.2,12.9,70.4z M7,73.6C5.7,71.1,6,71.7,7,73.6L7,73.6z"/>
</svg>
