<?xml version="1.0" encoding="utf-8"?>
<!-- Generator: Adobe Illustrator 19.2.1, SVG Export Plug-In . SVG Version: 6.00 Build 0)  -->
<svg version="1.1" id="Layer_1" xmlns="http://www.w3.org/2000/svg" xmlns:xlink="http://www.w3.org/1999/xlink" x="0px" y="0px"
	 viewBox="0 0 150.1 200" style="enable-background:new 0 0 150.1 200;" xml:space="preserve">
<style type="text/css">
	.st0{fill:none;stroke:#A06628;stroke-width:0.9145;stroke-miterlimit:10;}
</style>
<path class="st0" d="M33.9,83.2c5.3,0.8,5.7,0.8,10.5-1.4c5.3-9.5,6.9-20.1,11.9-27.8c7.1-11,16-24.3,26.4-36.3
	c7.9,5.8,5.3,3.9,13.4,7.3c5.3,2.2,8.1-6.5,13.8,3.3c7.7,13.3,0.3,43.1,1.6,49.9c0.9,4.4,7.7,10.3,8.4,18.1c0.6,7,5.3,5.7-0.3,17.3
	c-1,2-1-3-0.4-3.1c-5.3,3.7-7.8,5-12.9,3.9c-3.6,3-2.1,3.8-5.4,7c-1.2-0.4-2.1-4.7-3.4-5.5c-0.8,1.1-0.1,0.8-1.2,0.2
	c-0.1,0.4-0.3,1.3-0.9,1c0,3.9,2.2,1.4-1,7.2c-0.2,0-0.3,0-0.5,0c-0.1-0.1-0.8-1.1-1.1-0.9c-0.7-2.6,1.5-4.3,0.7-6
	c-2.1,0.5-0.4,1.6-1.6-0.7c-4,0.7,0.4,3.1-2.4,7c-3.7-3.9-4.1-7.1-5.4-8.5c-0.8,1.4-2.4,0.6-2.8,0.5c-6.7,16.8-14.2,14.6-21,19.4
	c-4,2.9-2.7,1-7,2.1c-1.3-0.9,1.3-3.7,0.4-4.6c-1.5,2.3-12.2,17.3-14.8,16.4c0.6,0.2-2.9,6.6-3.5,7.6c-0.1-0.1-0.8,0.3-0.8,0.3
	c0,0-0.2-1.2-0.7-0.5c-1.8-3.4-2.2-5.6-3.8-8.8c-2-4,1.3-9.4,0.4-15.8C28.7,116.9,33.2,98.2,33.9,83.2z M80.1,126.9
	C83,127.2,84.2,127.3,80.1,126.9L80.1,126.9z M87.1,124.7C85.4,124.1,84,123.6,87.1,124.7L87.1,124.7z M79.9,121.4
	C87.1,115,76.2,124.6,79.9,121.4L79.9,121.4z M91.8,125.3C90.6,127.3,90.4,127.8,91.8,125.3L91.8,125.3z M86.8,128.1
	C86.6,129.9,86.2,132.7,86.8,128.1L86.8,128.1z M90.5,119.4C88.6,123.1,90.8,118.6,90.5,119.4L90.5,119.4z M83.3,123.1
	C82.7,123.7,82.3,124.2,83.3,123.1L83.3,123.1z M112.2,118.3C111.4,115.5,111.5,115.9,112.2,118.3L112.2,118.3z M93.8,125.7
	C93.2,125,93.5,125.3,93.8,125.7L93.8,125.7z M96.3,123.2C96.3,123.3,95.2,125.2,96.3,123.2L96.3,123.2z M50.8,136
	C50.8,135.6,50.9,138.7,50.8,136L50.8,136z M79.8,135.7C81,134.9,79.3,136,79.8,135.7L79.8,135.7z M93.1,127.6
	C93.4,128.7,93.2,128.1,93.1,127.6L93.1,127.6z M48.9,138.3C48.7,138.9,48.4,140.3,48.9,138.3L48.9,138.3z M90.4,124.3
	C90.4,124.3,91.7,125.4,90.4,124.3L90.4,124.3z M89.6,127.2C89.6,128,89.7,128.4,89.6,127.2L89.6,127.2z M67.6,131.7
	C66.4,133,68.5,130.8,67.6,131.7L67.6,131.7z M50.3,137.5C48.6,138.4,49.5,137.9,50.3,137.5L50.3,137.5z M48.9,137.8
	C48.3,138.6,48.2,138.8,48.9,137.8L48.9,137.8z M51.3,137.3C51.1,137.6,50.3,138.9,51.3,137.3L51.3,137.3z M69.9,137
	C69.9,137.1,69.3,138.2,69.9,137L69.9,137z"/>
</svg>
