<?xml version="1.0" encoding="utf-8"?>
<!-- Generator: Adobe Illustrator 19.2.1, SVG Export Plug-In . SVG Version: 6.00 Build 0)  -->
<svg version="1.1" id="Layer_1" xmlns="http://www.w3.org/2000/svg" xmlns:xlink="http://www.w3.org/1999/xlink" x="0px" y="0px"
	 viewBox="0 0 150.1 200" style="enable-background:new 0 0 150.1 200;" xml:space="preserve">
<style type="text/css">
	.st0{fill:none;stroke:#A06628;stroke-width:0.7902;stroke-miterlimit:10;}
</style>
<path class="st0" d="M70.5,117.6c-3.3-5,1.3-14.2,2.7-18.9c2.3-7.6,2.7-12,6.8-16.3c0.8-0.9,5.4-5.1,7.3-6.5
	c-1,2.4-2.6,7.8-1.1,10.7c0.7-2.8,1.5-3.3,2.2-5.4c-0.7,1.7-0.9,3.6-1.9,5.5c0,0,0.1,0.1,0.1,0.2c3.2-1.6,2.1-5.5,3.5-8.9
	c2.4-5.6,2.2-4.6,7.9-6.8c0,0-0.2-0.1-0.1-0.2c-5.7-0.3-1.1-6.2-1.6-8.3c4.7-0.9,9.6,1.6,14.4,4.1c1.9,1,10,4.3,11.5,5.6
	c2.2,2,2.5,5,4,7.9c-6.6-2.1-0.9,3-0.5,5.6c0.4,2.6,0.5,8.3-0.5,11c-1.2,3.3-16.8,13.8-7.5,17.1c5.6,2,6.8-9.7,13-10
	c8-0.5,7.4,10.2,8.8,16.8c1.5,6.8,3.5,13.1-0.7,19.2c0.4-0.5-1.8,0.9-1.6,0.8c1.6-3.3-0.8-5.7-1.7-1.1c-4.1,3.9-5.9,12-9.7,16.4
	c-1.3,1.5-1.6,1.5-1.6,3.8c-17.3,1.9-31.1-0.4-48.7-0.7c-4.3-0.1-8.6-0.2-12.9-0.3c8.7-4.6,13.1-20.4,11.5-29.8
	C73.6,125.1,71.4,121.6,70.5,117.6z M6.6,39.5c7.1-2.9,14.1-4.3,20.8-7.5c4.6-2.2,8.7-7.7,14.1-10.3c3.7-1.8,8.2-3.3,11,0.2
	c-5-0.3-14.2,8-12.8,14.3c1.6-1.8,3.2-2.5,5.2-4.1c0,0.1,0,0.1,0.2,0.1c0,0.3-1,0.9-1,1c0.1,0.1,0.1,0.2,0.2,0.3
	c5.4-0.5,7.3,1.4,9.5,4.1c5.1,6.2,1.8,3.3,9.4,5.6c2.6,0.8,2.5,2.8,5.2,2.4c0-0.9,0.4-2.3,0.4-2.9c0,0.2,0.4,0.2,0.5,0
	c0.1,4.5,5.9-1.3,9.5-2.1c5.2-1.1,13.9-2.9,18.9-2.5c-5.6,8.4,4,7.9,8.2,7.7c1.4-0.1,4-3.1,5.8-1.2c2.2,2.3-0.8,7.3-2.3,8
	c1.8-0.1,1.9,0.6,3.8,1.1c0,2.5,5.2,5.4,3.4,0.6c1-0.2,6.1,0.3,5.7,2.5c-0.6,3.3-3.6,1.1-5.9,1.3c-3.2,0.3-9.7-0.1-11.6-0.5
	c-2.6-3.3-3.9-0.3-3,2.8c-3.1-0.6-6.1-5.5-10.3-5.8c-3.7-0.3-7.6,2.8-10.1,3.9C76,55.4,69.8,63,69.2,66c-3.8-3.6,3.2-3.7,1.6-6.5
	c-1.2-2.2-6,3.2-7.4,4.8c-0.2-1.1-0.5-2.6-0.6-3.9c-0.1,0-0.2,0-0.3-0.2c-1.3,5-10.2,12.2-10.2,17.6c-2.5-1-1.4-2.9-2-3.6
	c1.8,1.8-1.6-7.4-1.1-2.7c0-0.1-1.8-0.1-1.7-0.1c0-0.1,0-0.1-0.1-0.1c1-2.1,1-2.8,1.2-5.1c2.7-2.9-1.6-3.8-2.9-5.6
	c-1.1-1.4-1.4-2.6-3.7-4.3c-2.1-1.6-5.1-0.4-6.8-1c-4.2-1.4-18.7-6.1-24-10.2c-2.1-1.6-1.9-4.1-3.7-4.9C7.2,40.1,6.6,39.6,6.6,39.5z
	 M88.1,63.3c-0.2,5.1-2.2,3.9-1-0.7C88.6,62.9,87.7,63.2,88.1,63.3z M103.6,61.4c-0.5-0.7-1-0.8-0.9-1.6c0.9,0.5,3.4,1.7,3.8,1.9
	c0.2,0.6,0.5,0.5,1.1,0.8C105.7,64.8,105.4,62.7,103.6,61.4z M78.9,77c0.1,0.5,1.2,1,0.9,2.4C77.9,78.8,79.1,77.8,78.9,77z
	 M77.8,80.6c-0.4-0.4-1.7,0.9-0.7-0.8C78.5,79.6,77.3,80.1,77.8,80.6z"/>
</svg>
