<?xml version="1.0" encoding="utf-8"?>
<!-- Generator: Adobe Illustrator 19.2.1, SVG Export Plug-In . SVG Version: 6.00 Build 0)  -->
<svg version="1.1" id="Layer_1" xmlns="http://www.w3.org/2000/svg" xmlns:xlink="http://www.w3.org/1999/xlink" x="0px" y="0px"
	 viewBox="0 0 150.1 200" style="enable-background:new 0 0 150.1 200;" xml:space="preserve">
<style type="text/css">
	.st0{fill:none;stroke:#A06628;stroke-width:0.7902;stroke-miterlimit:10;}
</style>
<polygon class="st0" points="5.5,47.1 5.5,46.8 5.5,46.5 5.5,46.4 5.6,46.1 5.6,45.6 5.6,45.5 5.7,45.2 5.8,44.1 5.8,43.8 5.8,43.5 
	5.8,43.4 5.8,42.7 5.9,42.3 5.9,41.7 6.1,40.4 6.1,40.3 6.3,37.2 6.6,34 7.1,34 7.2,34.1 11,34.4 12.6,34.5 13.2,34.5 13.6,34.6 
	15.8,34.8 17.5,34.9 19.2,35 21.1,35.1 21.7,35.2 23.9,35.3 25,35.3 26.4,35.4 26.6,35.5 26.9,35.5 27.1,35.5 28.4,35.6 28.5,35.6 
	30.2,35.7 30.6,35.7 32.5,35.9 33.4,35.9 33.5,35.9 33.8,35.9 35.4,36 35.7,36 36,36 36.2,36 37.5,36.1 37.6,36.1 38,36.1 
	38.9,36.1 38.9,36.1 38.9,36.1 39,36.1 39,36.2 39.1,36.2 39.1,36.2 39.2,36.2 40,36.2 47.1,36.5 47.2,36.5 49,36.5 49.6,36.6 
	50.5,36.6 51.1,36.6 51.1,36.6 51.6,36.6 52.7,36.7 53.8,36.7 56.7,36.8 59.2,36.8 61.5,36.9 61.8,36.9 62.1,36.9 62.3,36.9 
	63.4,36.9 65,36.9 66.6,37 67.3,37 68.3,37 70.8,37 71.3,37 73.2,37 78.7,37 78.8,37 78.8,37 79.2,37 79.4,37 79.9,37 80,37 
	81.1,37 81.5,37 83,37 83.5,37 84.2,37 84.3,37 89.2,37 89.8,37 92.6,36.9 96.1,36.9 96.3,36.8 96.4,36.8 96.5,36.8 98.5,36.8 
	101.4,36.8 102.2,36.7 104.2,36.7 108.1,36.5 110.4,36.4 110.4,36.4 111.6,36.4 111.7,36.4 112,36.4 113.1,36.4 113.2,36.4 
	114.2,36.3 114.6,36.3 114.7,36.3 115.9,36.3 116,36.3 116.7,36.2 117.6,36.2 119.1,36.1 119.7,36.1 121.1,36 121.5,36 121.6,36 
	121.9,36 122.5,36 123.7,35.9 123.8,35.9 124,35.9 124,35.9 124.3,35.9 125.2,35.8 125.3,35.8 127.6,35.7 128,35.6 129.6,35.6 
	130.7,35.5 132.1,35.4 133.3,35.3 135.9,35.2 138.7,35 138.7,35.2 138.8,35.5 138.8,35.6 138.8,35.6 138.8,35.7 138.8,35.8 
	138.8,35.9 138.8,36 138.8,36 138.8,36.4 138.8,36.5 138.8,36.6 138.9,36.7 138.9,36.9 138.9,37 138.9,37 138.9,37.1 138.9,37.2 
	138.9,37.2 138.9,37.3 138.9,37.5 139,38.2 139,38.4 139,38.5 139,38.9 139,39.1 139,39.2 139,39.6 139.1,40.3 139.1,40.5 
	139.1,40.6 139.1,40.6 139.1,40.6 139.1,40.7 139.1,40.8 139.2,41.1 139.2,41.2 139.2,41.2 139.2,41.3 139.2,41.7 139.2,41.8 
	139.2,41.9 139.2,42.2 139.3,42.5 139.3,42.6 139.3,42.8 139.3,42.9 139.3,43 139.3,43.3 139.3,43.4 139.4,43.9 139.4,44 
	139.4,44.1 139.4,44.1 139.4,44.2 139.4,44.6 139.4,44.8 139.4,45.1 139.4,45.2 139.4,45.2 139.4,45.3 139.4,45.3 139.5,45.4 
	139.5,46 139.5,46.3 139.5,46.4 139.5,46.4 139.6,46.7 139.6,46.9 139.6,47.1 139.6,47.2 139.6,47.4 139.6,47.6 139.6,47.6 
	139.7,48.4 139.7,48.4 139.7,48.4 139.7,48.7 139.7,48.9 139.8,49.3 139.8,49.3 139.8,49.4 139.8,49.8 139.9,51.3 139.9,51.7 
	139.9,51.8 140,52.2 140,52.4 140,52.5 140.1,53.5 140.1,53.9 140.1,54 140.2,54.3 140.2,54.4 140.2,54.9 140.2,54.9 140.2,54.9 
	140.2,55 140.2,55.9 140.3,57.1 140.4,57.9 140.4,58.1 140.4,58.3 140.5,59.6 140.6,60.7 140.6,61 140.6,61.7 140.6,62.1 
	140.7,62.6 140.7,62.8 140.7,62.9 140.8,63.8 140.8,63.8 140.8,63.8 140.8,63.9 140.8,63.9 140.8,64.8 140.9,65.8 140.9,65.8 
	141,66.3 141,66.8 141,67 141,67.1 141,67.2 141,67.3 141,67.4 141.1,67.5 141.1,67.7 141.1,67.7 141.1,68.7 141.1,69.3 141.2,69.5 
	141.2,69.7 141.2,70 141.3,71.2 141.3,71.6 141.4,72.9 141.4,73 141.4,73 141.4,73.1 141.4,73.2 141.5,74.3 141.5,74.5 141.6,75.8 
	141.6,76 141.7,76.6 141.7,77 141.8,78.7 141.8,78.9 141.9,79.4 141.9,79.6 141.9,80.4 142,81.4 142,81.6 142.1,83 142.1,83.1 
	142.3,85 142.3,86 142.4,87 142.4,87.2 142.4,87.3 142.6,89.2 142.8,92.4 142.8,92.6 142.8,92.8 142.9,93.3 142.9,93.4 142.9,93.6 
	142.9,94 143,95.2 143.1,95.5 143.1,96 143.1,96.1 143.2,98.2 143.3,99.7 143.5,101.8 143.5,101.8 143.3,101.8 141,101.9 
	139.1,102.1 138.4,102.1 136.1,102.3 136.1,102.3 136.1,102.3 135.3,102.3 134.9,102.3 134.9,102.3 131.9,102.5 131.9,102.5 
	131.8,102.5 131.6,102.5 131.1,102.5 129.7,102.6 127.7,102.7 125.4,102.8 125,102.8 122,103 121.3,103 121.3,103 121.2,103 
	121.1,103.1 120,103.2 118.1,103.3 117.1,103.3 114.1,103.4 113.5,103.5 109.7,103.6 109.6,103.6 109.6,103.6 109.4,103.6 
	108.5,103.6 108.3,103.6 107.8,103.6 107.5,103.6 107.4,103.6 107.1,103.6 106.9,103.6 106.8,103.6 105,103.6 104.8,103.6 
	104.6,103.6 104.5,103.6 104.2,103.6 103.6,103.6 102.6,103.7 101.2,103.7 101.1,103.7 99.5,103.8 97.9,103.8 97.6,103.8 
	96.5,103.8 96.5,103.8 94.7,103.9 93.9,103.9 93.8,103.9 93.7,103.9 93.5,103.9 93.3,103.9 90.6,104 89.8,104 89.6,104 89.1,104 
	88.6,104 88.4,104 86.3,104 85.2,104 84,104 83.9,104 83.6,104 83.4,103.9 81.5,103.9 81.4,103.9 80.7,103.9 80.2,104 80.1,104 
	80,103.9 79.8,104 77.8,104 76.7,104 75.7,104 75.1,104 74.4,104 74.2,104 72.8,104 72.7,104 72.4,103.9 71.5,103.9 70.4,104 
	69.4,104 68.9,104 68.7,104 68.4,104 68,104 67,104.1 66.2,104 66.2,104 64.4,104 63.8,103.9 63.7,103.9 63.4,103.8 60.4,103.8 
	60.2,103.8 60.2,104.9 60.2,104.9 60.2,106 60.1,108 60.1,108.4 60.1,109.4 60.1,110.1 60.1,110.2 60.1,112.7 60,112.6 60,112.6 
	59.6,112.5 59.6,112.4 59.6,112.4 59.5,112.4 59.4,112.3 59.2,112.3 59.1,112.2 59.1,111.9 59,111.6 58.8,111.4 58.7,111.4 
	58.6,111.3 58.6,111.1 58.6,111 58.5,111 58.3,110.9 58,110.8 58,110.7 58,110.4 58,110.2 58.1,110.1 57.8,109.8 57.7,109.6 
	57.6,109.6 57.5,109.5 57.5,109.3 57.5,109.2 57.5,109.2 57.4,109.1 57.2,108.8 56.9,108.4 56.7,108.3 56.7,108.4 56.6,108.3 
	56.4,108.1 56.4,108.1 56.3,107.9 56.3,107.9 56.2,107.8 56.1,107.9 56,108 56.1,108 56,108.3 56,108.4 55.8,108.6 55.7,108.5 
	55.7,108.4 55.5,108.4 55.5,108.4 55.4,108.5 55.2,108.5 55,108.6 55,108.6 55,108.6 54.9,108.7 55,108.9 55,109 55.2,109.1 
	55.2,109.1 55.1,109.3 55,109.5 54.9,109.6 54.8,109.7 54.7,109.8 54.7,109.8 54.5,110.2 54.5,110.3 54.5,110.4 54.5,110.5 
	54.5,110.7 54.7,110.9 54.9,111 55,111.2 55.1,111.2 55.1,111.4 55.1,111.4 54.7,111.4 54.5,111.3 54.5,111.3 54.2,111.1 
	54.1,111.1 54,111.1 53.9,111 53.8,111 53.7,111 53.7,111 53.5,111.1 53.4,111.2 53.3,111.2 53.1,111.1 53,111.1 52.9,111.1 
	52.6,111 52.5,111 52.3,111 52.2,111.2 52.1,111.3 52.1,111.3 52,111.3 51.9,111.3 51.8,111.3 51.7,111.4 51.6,111.5 51.5,111.5 
	51.1,111.7 51,111.8 50.9,111.8 50.8,111.7 50.6,111.5 50.5,111.3 50.5,111.1 50.4,111 50.3,110.9 50.1,110.9 50,110.9 49.9,111 
	49.7,111 49.4,111 49.4,111 49.3,111.1 49.2,111.2 49.1,111.2 49,111.3 48.8,111.3 48.6,111.2 48.4,111.1 48.4,111.2 48.4,111.3 
	48.3,111.4 48.1,111.3 48,111.3 47.9,111.3 47.8,111.3 47.6,111.4 47.6,111.5 47.6,111.5 47.5,111.5 47.2,111.4 47.2,111.3 
	47.1,111.2 46.8,111.1 46.6,111.3 46.6,111.3 46.1,111.1 46,111 46,110.9 46,110.8 45.9,110.7 45.8,110.6 45.7,110.6 45.4,110.6 
	45.3,110.7 45.1,110.8 45.1,110.8 45,110.9 45,110.9 45,111 45,111 45,111.1 44.9,111.1 44.6,111.1 44.5,111.2 44.5,111.3 
	44.5,111.9 44.4,112 44.3,112.2 44.3,112.3 44.2,112.3 44.1,112.6 43.8,112.5 43.5,112.3 43.4,112.3 43.2,112.1 43.1,112.1 43,112 
	42.9,112.2 42.7,112.3 42.6,112.3 42.6,112.2 42.5,112.1 42.2,111.9 42.1,111.9 41.8,112 41.7,112 41.6,111.9 41.5,111.8 
	41.2,111.8 40.8,111.8 40.8,111.8 40.8,111.8 40.7,111.8 40.5,111.7 40.4,111.6 40.3,111.5 40.1,111.5 39.9,111.6 39.7,111.7 
	39.6,111.8 39.6,111.8 39.4,111.8 39.2,112.1 39,112.3 38.9,112.3 38.8,112.5 38.7,112.7 38.7,112.8 38.8,113.1 38.9,113.2 
	38.9,113.4 38.9,113.5 38.9,113.6 38.9,113.6 38.8,113.7 38.7,113.8 38.5,113.9 38.4,113.9 38.2,113.7 38.2,113.6 38.1,113.5 
	38.1,113.5 38,113.2 37.9,113.2 37.7,113.1 37.3,112.9 37.2,112.7 37,112.6 37,112.6 36.9,112.6 36.7,112.3 36.6,112.1 36.6,111.8 
	36.5,111.5 36.5,111.4 36.5,111.1 36.5,111 36.4,110.8 36.3,110.6 36.3,110.5 36.3,110.3 36.1,110.2 36.1,110.1 36,110 35.9,109.8 
	35.8,109.7 35.9,109.7 36,109.5 36,109.4 36.2,109.4 36.2,109.4 36.3,109.3 36.3,109.1 36.2,109 36.1,108.9 36,108.8 36,108.6 
	36.1,108.5 36.1,108.4 35.9,108.2 35.7,108.1 35.7,107.9 35.7,107.7 35.7,107.6 35.6,107.4 35.4,107.2 35.3,107.2 35.3,107 
	35.4,106.9 35.4,106.8 35.3,106.8 35.1,106.7 35.1,106.7 35,106.7 34.8,106.5 34.8,106.5 34.7,106.3 34.5,106.2 34.2,106 
	34.1,105.9 34,105.9 33.9,106 33.7,106 33.7,106 33.6,106.1 33.5,106.2 33.4,106.3 33.1,106.4 32.9,106.5 32.7,106.4 32.7,106.3 
	32.9,106.3 32.9,106.2 32.7,105.9 32.7,105.9 32.5,105.6 32.4,105.6 32,105.5 31.6,105.1 31.6,105.1 31.6,104.9 31.5,104.8 
	31.5,104.8 31.5,104.7 31.4,104.4 31.4,104.3 31.2,104 31.2,104 31.2,103.9 31.2,103.8 31.2,103.6 31.4,103.6 31.4,103.7 
	31.5,103.7 31.7,103.6 31.8,103.6 31.8,103.5 31.8,103.2 31.8,103.1 31.8,102.8 31.9,102.7 31.9,102.7 31.8,102.3 31.8,102.3 
	31.8,102.1 31.8,101.9 31.7,101.7 31.7,101.8 31.6,101.8 31.4,101.8 31,101.2 31.2,101.1 31.2,101 31.2,100.9 31.1,100.9 
	31.1,100.9 30.9,100.9 30.7,100.9 30.6,100.9 30.5,100.7 30.4,100.6 30.4,100.5 30.3,100.2 30.3,100.2 30.2,100 30.2,100 30.2,99.9 
	30.3,99.8 30.2,99.5 30,99.4 29.9,99.2 29.8,99.1 29.7,99 29.7,98.9 29.6,98.8 29.6,98.6 29.4,98.6 29.4,98.5 29.3,98.5 29.2,98.4 
	29.2,98.3 29.2,98.2 29.2,98.2 29.2,98.1 29.2,98.1 29.2,98.1 29.2,97.9 29.1,97.8 29,97.7 29,97.7 28.9,97.6 28.7,97.2 28.7,97.1 
	28.7,96.9 28.7,96.5 28.8,96.4 28.8,96.4 28.8,96.2 28.8,96.2 28.8,96.1 28.8,96.1 28.6,95.9 28.5,95.8 28.4,95.8 28.4,95.7 
	28.4,95.6 28.5,95.5 28.5,95.4 28.4,95.3 28.2,95.1 28.2,95 28.4,94.9 28.5,94.6 28.5,94.5 28.5,93.9 28.5,93.9 28.4,93.9 
	28.1,93.9 28.1,93.9 28,93.9 27.7,93.9 27.7,93.9 27.7,93.8 27.9,93.1 28.1,93 28.1,93 28.1,92.9 28.1,92.8 28.1,92.7 28.1,92.5 
	28.1,92.4 27.9,92.4 27.7,92.2 27.5,92.1 27.3,92.2 27.2,92.2 27.2,92.2 27,92.2 27,92.1 27,92.1 27,91.9 27.1,91.8 27.1,91.7 
	27,91.6 27,91.6 26.9,91.5 26.7,91.3 26.7,91.1 26.6,91.1 26.6,91 26.5,91 26.5,91 26.3,90.8 26.2,90.7 26.1,90.7 26,90.7 
	25.7,90.8 25.7,90.9 25.7,91.1 25.7,91.3 25.7,91.5 25.7,91.5 25.7,91.6 25.6,91.6 25.5,91.6 25.5,91.6 25.1,92 24.9,92.2 
	24.9,92.3 24.9,92.4 24.8,92.5 24.8,92.6 24.7,92.6 24.6,92.6 24.5,92.6 24.4,92.6 24.4,92.6 24.3,92.8 24.3,92.9 24.3,92.9 
	24.2,93.1 24,93.1 23.9,93.1 23.7,93.2 23.6,93.2 23.5,93.4 23.4,93.4 23.2,93.3 23.1,93.2 23,93.2 22.9,93.2 22.8,93.3 22.9,93.4 
	22.9,93.6 22.8,93.6 22.7,94 22.6,94.2 22.4,94.3 22.1,94.4 21.8,94.6 21.7,94.5 21.5,94.3 21.5,94 21.4,94 21.2,93.8 20.9,93.6 
	20.7,93.4 20.7,93.3 20.7,93.2 20.5,93.1 20.4,93.1 20.4,92.8 20.4,92.8 20.3,92.8 20.2,92.7 20.2,92.8 20.1,92.8 19.9,92.8 
	19.8,92.8 19.8,92.7 19.8,92.6 19.6,92.6 19.4,92.7 19.3,92.6 19.3,92.3 19.4,92.2 19.4,92.1 19.5,92 19.5,92 19.5,91.8 19.4,91.7 
	19.3,91.5 19.3,91.4 19.3,91.4 19.6,91.2 19.6,91.2 19.7,91.2 19.8,91.2 19.9,91.1 20.1,90.9 20.2,90.4 20.1,90.3 20.1,90.1 
	20.1,90.1 20.1,90 20,90 19.7,89.7 19.6,89.5 19.5,89.3 19.4,89.1 19.4,89.1 19.5,89 19.7,88.9 20.1,88.3 20.1,88.2 20.1,88.2 
	20,88.2 20,88.2 20.1,88.1 20.1,88 20.2,87.9 20.4,87.9 20.4,87.9 20.6,87.9 20.8,87.8 20.9,87.8 21.1,87.9 21.3,87.9 21.6,87.5 
	21.6,87.4 21.6,87.4 21.6,87.3 21.5,87.1 21.4,87.1 21.3,87 21.1,86.6 21.1,86.5 21.3,86.3 21.3,86.2 21.3,85.9 21.2,85.8 
	21.1,85.7 20.9,85.6 20.8,85.5 20.7,85.5 20.7,85.4 20.7,85.3 20.7,85.2 20.7,85.1 20.7,84.9 20.7,84.9 20.6,84.9 20.6,84.9 
	20.5,84.8 20.5,84.7 20.6,84.6 20.7,84.5 20.8,84.4 20.8,84.4 20.9,84.3 20.9,84.1 21,83.8 21,83.8 20.9,83.7 20.8,83.6 20.7,83.5 
	20.7,83.5 20.5,83.4 20.3,83.3 20.2,83 20.2,82.9 20.4,82.6 20.4,82.6 20.6,82.6 20.7,82.6 20.8,82.8 20.9,82.7 21.1,82.6 
	21.2,82.5 21.3,82 21.3,81.9 21.3,81.8 21.2,81.5 21.2,81.4 21.2,81.4 21.1,81.3 21.1,81.1 21.1,81 21.1,80.9 21.2,80.9 21.4,80.9 
	21.5,80.8 21.5,80.7 21.6,80.7 21.5,80.4 21.5,80.3 21.6,80.1 21.7,79.9 21.8,79.9 21.8,79.5 21.8,79.4 21.7,79 21.9,78.8 22,78.7 
	22.1,78.7 22.2,78.6 22.3,78.2 22.3,78.1 22.3,77.9 22.3,77.8 22.3,77.7 22.1,77.6 22.1,77.5 22.1,77.2 22.1,77.1 22.1,77.1 
	22.1,77.1 22.2,77.1 22.3,77 22.3,77.1 22.4,77.1 22.4,77.1 22.6,77.1 22.7,77 22.8,76.8 22.7,76.7 22.7,76.7 22.7,76.6 22.8,76.4 
	22.8,76.2 22.9,76.1 23,76 23,75.9 23,75.9 23,75.8 22.9,75.8 22.9,75.7 23,75.6 23.1,75.4 23.1,75.1 23.1,74.8 23.1,74.7 
	23.1,74.6 23.1,74.5 23,74.5 22.7,74.4 22.7,74.3 22.5,74.4 22.3,74.4 22.2,74.5 22.1,74.5 22,74.4 21.6,74.6 21.6,74.7 21.5,74.9 
	21.2,74.9 21.1,74.8 21,74.7 20.8,74.7 20.6,74.6 20.4,74.6 20.1,74.8 20,74.8 20,74.8 19.9,74.7 19.8,74.6 19.8,74.5 19.8,74.5 
	19.8,74.4 19.7,74.3 19.5,74.3 19.5,74.2 19.5,74.1 19.5,74 19.6,73.9 19.7,73.7 19.8,73.5 19.7,73.4 19.7,73.3 19.5,73.1 
	19.5,73.1 19.2,73 19.2,73 19.2,72.9 19.1,72.9 19,72.9 18.9,72.9 18.9,72.9 18.9,73 18.8,73.3 18.7,73.3 18.6,73.3 18.4,73.3 
	18.3,73.5 18.3,73.5 18.2,73.6 18.2,73.6 18.1,73.6 17.9,73.3 17.8,73.3 17.9,73.1 17.9,73.1 18,73 18,73 18.1,73 18.2,72.9 
	18.2,72.8 18.2,72.5 18,72.2 17.9,72.2 17.7,72.1 17.6,72.1 17.5,72.1 17.4,72 17.3,71.9 17.2,71.7 17.1,71.7 17.1,71.6 17.1,71.6 
	17.1,71.6 17,71.6 16.9,71.6 16.8,71.6 16.7,71.5 16.6,71.3 16.5,71.2 16.4,71.1 16.4,71 16.4,71 16.5,70.9 16.4,70.8 16.3,70.8 
	16.2,70.7 16.3,70.6 16.3,70.6 16.4,70.4 16.4,70.4 16.4,70.2 16.4,70.1 16.4,70 16.5,69.9 16.5,69.8 16.5,69.7 16.4,69.6 
	16.3,69.6 16.1,69.5 16.1,69.5 16,69.4 15.9,69.2 15.7,68.9 15.7,68.8 15.7,68.8 15.4,68.7 15.4,68.7 15.4,68.8 15.2,68.8 
	15.2,68.7 15.2,68.7 15.1,68.5 15,68.3 15,68.2 15,68 15,67.9 14.9,67.9 14.9,67.7 14.9,67.6 14.9,67.6 14.9,67.6 14.8,67.5 
	14.7,67.4 14.6,67.5 14.6,67.4 14.5,67.2 14.4,67.1 14.4,67.1 14.3,66.9 14.3,66.8 14.3,66.7 14,66.4 13.9,66.3 13.8,66 13.6,65.8 
	13.5,65.7 13.4,65.7 13.3,65.6 13.2,65.6 13.1,65.5 13.1,65.4 13.1,65.2 13,65.1 12.7,65 12.7,65 12.6,65 12.6,64.9 12.6,64.8 
	12.6,64.6 12.7,64.6 12.7,64.4 12.6,64.3 12.5,64.2 12.5,64.2 12.4,64.2 12.4,64 12.4,63.8 12.2,63.7 12.1,63.7 12,63.7 11.9,63.7 
	11.9,63.6 11.8,63.6 11.5,63.6 11.4,63.6 11.3,63.4 11.3,63.4 11.2,63.3 11.1,63.3 10.9,63.3 10.7,63.2 10.6,63.1 10.5,63.1 
	10.3,62.9 10.1,62.8 10.1,62.8 10.1,62.6 10,62.5 9.9,62.3 9.9,62.2 9.9,62 9.9,62 9.8,62 9.7,61.9 9.7,61.7 9.6,61.7 9.6,61.7 
	9.4,61.5 9.4,61.5 9.3,61.4 9.2,61.4 9,61.4 9,61.5 8.9,61.4 8.9,61.3 8.8,61.1 8.4,60.8 8.2,60.8 8.1,60.7 8.1,60.6 8.1,60.6 
	8.1,60.6 8,60.5 8,60.5 8,60.3 8.1,60.2 8.2,60.1 8.5,60.1 8.6,60.1 8.7,60.2 8.8,60.1 8.9,60 8.9,60 8.9,59.8 8.9,59.8 8.8,59.8 
	8.6,59.6 8.6,59.6 8.5,59.4 8.5,59.3 8.4,59.3 8.4,59.2 8.3,59.2 8.3,59.1 8.3,59.1 8.3,59 8.3,58.9 8.3,58.8 8.3,58.8 8.2,58.8 
	8,58.7 7.9,58.6 7.9,58.5 8,58.4 8.1,58.2 8.3,58.1 8.5,58.1 8.7,57.8 8.7,57.5 8.7,57.3 8.5,57.1 8.4,57.1 8.3,57 8.3,56.7 
	8.3,56.6 8.4,56.5 8.4,56.4 8.4,56.2 8.4,56.1 8.3,55.9 8.1,55.7 8.1,55.7 8,55.7 7.9,55.7 7.8,55.6 7.8,55.5 7.8,55.4 7.8,55.2 
	7.8,55.1 7.7,55 7.6,55 7.5,55 7.4,55.1 7.3,55 7.3,54.9 7.3,54.7 7.3,54.7 7.2,54.6 7.1,54.5 7.2,54.1 7.2,54 7.2,53.8 7,53.6 
	6.9,53.5 6.9,53.5 6.9,53.4 6.6,53.5 6.6,53.4 6.6,53.4 6.5,53.3 6.5,53.2 6.4,53.1 6.3,52.9 6.2,52.8 6.2,52.7 6.2,52.7 6.1,52.6 
	6.1,52.6 6.1,52.5 6,52.3 6,52.2 5.8,52.2 5.7,52 5.7,51.9 5.7,51.8 5.6,51.6 5.6,51.5 5.5,51.4 5.4,51.3 5.4,51.2 5.3,51.2 
	5.3,51.2 5.2,51.1 5.2,51.1 5.2,51.1 5.2,50.7 5.3,49.7 5.3,49.7 5.3,49.6 5.3,49.4 5.3,49.3 5.4,48.6 5.4,48 "/>
</svg>
