<?xml version="1.0" encoding="utf-8"?>
<!-- Generator: Adobe Illustrator 19.2.1, SVG Export Plug-In . SVG Version: 6.00 Build 0)  -->
<svg version="1.1" id="Layer_1" xmlns="http://www.w3.org/2000/svg" xmlns:xlink="http://www.w3.org/1999/xlink" x="0px" y="0px"
	 viewBox="0 0 150.1 200" style="enable-background:new 0 0 150.1 200;" xml:space="preserve">
<style type="text/css">
	.st0{fill:none;stroke:#A06628;stroke-width:0.7902;stroke-miterlimit:10;}
</style>
<polygon class="st0" points="22.3,99.9 22.3,99.1 22.4,96.6 22.4,96.5 22.4,96.4 22.4,96.4 22.4,95.6 22.4,95 22.4,94.7 22.4,94.6 
	22.4,94.5 22.4,94.4 22.4,92.3 22.4,92 22.5,91.2 22.5,91 22.5,89.9 22.5,89.8 22.5,88.5 22.5,87.7 22.5,85.6 22.5,83.9 22.5,82.9 
	22.6,81.9 22.6,79.3 22.7,72.6 22.7,71.7 22.7,70.5 22.8,66.3 22.8,66 22.8,65.7 22.8,65.4 22.8,65.1 22.8,64.4 22.8,64.2 
	22.8,63.5 22.8,62.3 22.8,61 22.9,57.8 22.9,57.6 22.9,57.3 22.9,57 22.9,56.8 22.9,56.7 22.9,56.4 22.9,56.1 22.9,56 22.9,55.7 
	22.9,55.4 22.9,55.1 22.9,54.8 22.9,54.6 22.9,54.4 22.9,54.3 22.9,54.2 22.9,54.1 22.9,53.6 22.9,53.6 22.9,53.5 22.9,53.3 
	22.9,53.2 22.9,52.8 22.9,52.7 22.9,52.3 22.9,52 22.9,51.7 22.9,51.4 22.9,51.1 23,50.8 23,50.5 23,49.9 23,49.9 23,49.7 23,49.5 
	23,49.4 23,49.2 23,48.9 23,48.6 23,48.5 23,48.3 23,48.2 23,48.1 23,47.6 23,47.2 23,47.1 23,46.5 23,46.1 23,45.8 23,45.1 
	23,44.7 23,44 23.1,43.7 23.1,43.6 23.1,42.5 23.1,42.3 23.1,42.3 23.1,42.2 23.1,41.8 23.1,41.5 23.1,40.5 23.1,39.8 23.1,37.4 
	23.1,36.9 23.1,36.8 23.1,36.6 23.1,35.9 23.1,34.3 23.1,33.9 23.1,33.1 23.2,32.3 23.2,31.7 23.2,30.8 23.2,29.7 23.2,29.1 
	23.2,28.5 23.2,26.7 23.3,25.2 23.3,24.8 23.3,23.3 23.3,23.2 23.3,22.2 23.3,21.5 23.3,21.2 23.3,21.1 23.3,21.1 23.3,20.5 
	23.3,19.2 23.3,19 23.3,18.4 24.1,18.4 24.8,18.4 24.9,18.4 28.5,18.4 30.3,18.4 30.7,18.4 32.2,18.4 33.5,18.4 34.9,18.5 
	35.9,18.5 36.4,18.5 37.1,18.5 37.1,18.5 38.2,18.5 38.3,18.5 40.6,18.5 40.8,18.5 41.4,18.5 41.7,18.5 42.9,18.5 43.6,18.5 
	43.7,18.5 43.9,18.5 45.2,18.5 46.4,18.5 48.2,18.5 48.3,18.5 49.6,18.5 49.6,18.5 50.3,18.5 51,18.5 51.4,18.5 54.3,18.4 
	55.3,18.4 56.8,18.4 58,18.4 58.9,18.4 59.4,18.4 60.1,18.4 60.8,18.4 60.9,18.5 62.4,18.5 63,18.5 64.3,18.5 64.5,18.5 65.1,18.5 
	65.3,18.5 67.3,18.4 67.7,18.4 68.8,18.4 70,18.4 70.1,18.4 70.3,18.4 70.9,18.4 71.7,18.4 72.4,18.4 73.1,18.4 74.2,18.4 
	75.8,18.3 76,18.3 76,18.3 80.8,18.2 81.7,18.2 82.4,18.2 84,18.1 84.2,18.1 84.3,18.1 84.4,18.1 85.1,18.1 85.2,18.1 85.5,18.1 
	85.6,18.1 85.6,18.1 85.9,18.1 88.9,18 89.4,18 90.5,17.9 90.8,17.9 91.1,17.9 92.7,17.9 93.2,17.9 96,17.8 97.8,17.8 98.3,17.7 
	99.3,17.7 99.7,17.7 101.5,17.6 101.7,17.6 102.2,17.6 102.2,17.6 103.1,17.6 103.3,17.6 103.6,17.6 104.1,17.5 104.3,17.5 
	104.4,17.5 104.6,17.5 105.1,17.5 105.3,17.5 106.2,17.4 106.7,17.4 110.3,17.2 115.1,17 119.1,16.8 120.4,16.8 122.1,16.7 
	123.2,16.6 124.3,16.6 125,16.5 125.8,16.5 125.9,16.5 126.3,16.5 127.7,16.4 127.8,18.3 127.8,18.3 128,22.4 128.1,23.4 
	128.1,24.6 128.1,24.9 128.1,25.8 128.2,26.6 128.2,26.6 128.2,27.1 127.6,27.2 127.6,27.2 127.7,29.6 127.8,31.1 127.8,31.7 
	127.9,33 128.1,36.8 128.1,38.7 128.2,41.5 128.2,41.7 128.3,42 128.3,42.3 128.3,42.4 128.4,43.6 128.4,45.4 128.5,46.1 128.7,51 
	128.9,54.1 128.9,54.3 128.9,54.9 128.9,55.5 128.9,55.6 128.9,55.7 129,56.1 129,56.4 129,56.6 129,56.8 129,57.1 129.1,58.8 
	129.2,60.5 129.2,61.7 129.3,62.7 129.3,64 129.4,64.9 129.4,65.9 129.5,66.6 129.5,67 129.5,67 129.5,67.7 129.6,68.6 129.6,70 
	129.6,70.5 129.7,71.1 129.7,71.1 129.7,71.2 129.7,72 129.7,72.2 129.7,72.3 129.7,72.4 129.7,72.5 129.7,72.5 129.7,72.6 
	129.7,72.6 129.7,72.7 129.7,72.7 129.7,72.8 129.7,72.8 129.7,72.9 129.7,72.9 129.7,73.3 129.8,74.3 129.8,74.5 129.8,74.8 
	129.8,75.5 130,78.6 130,78.9 130,79 130,79.1 130,79.3 130,79.7 130.1,80 130.1,80.1 130.1,80.1 130.1,80.2 130.1,80.3 130.1,80.6 
	130.1,81 130.1,81.6 130.1,82.2 130.2,83.1 130.2,83.2 130.2,84.3 130.2,84.8 130.3,86.5 130.3,86.7 130.3,87.5 130.3,88.1 
	130.3,88.4 130.3,88.6 130.3,88.8 130.3,89 130.3,89.1 130.4,90.3 130.5,94.2 130.5,95.5 130.6,95.8 130.6,97 130.6,97.1 
	130.6,97.9 130.7,99.6 130.7,99.9 130.7,100.6 130.7,100.7 130.7,101.2 130.7,101.7 130.7,101.8 130.7,102.1 130.7,102.4 
	130.7,102.6 130.8,103.4 130.8,103.5 130.8,104.8 130.9,105.2 130.9,105.4 130.9,105.6 130.9,105.7 130.9,105.8 130.9,106.3 
	130.9,106.3 130.9,107 131,107.2 131,107.4 131,107.6 131,108.2 131,108.5 131,108.7 131,108.9 131,109.1 131.1,109.3 131.1,109.4 
	131.1,110.2 131.1,110.7 131.1,111.2 131.1,111.2 131.2,111.5 131.2,112 131.2,112.5 131.2,112.9 131.4,116.9 131.6,121 
	131.6,121.5 131.6,122.3 131.7,124.1 131.3,124.2 131.3,124.2 130.4,124.2 128.9,124.3 128,124.3 127.9,124.3 127.8,124.3 
	126.9,124.4 121.9,124.5 119.8,124.6 119.6,124.6 119.1,124.6 116.8,124.7 114.9,124.8 114.1,124.8 109.2,125 108.8,125 108.5,125 
	104.8,125.1 102.8,125.2 102.8,125.2 100.3,125.3 99.6,125.3 99,125.3 97.7,125.3 94.8,125.4 94.8,125.4 94,125.4 93.8,125.5 
	93.7,125.5 93.5,125.5 93.5,125.5 93.4,125.5 92.5,125.5 90,125.5 89,125.6 88.4,125.6 88.3,125.6 85.9,125.6 82.8,125.7 
	82.5,125.7 80.6,125.7 80,125.7 79.7,125.7 78.6,125.7 77.9,125.8 76.9,125.8 75.6,125.8 74.6,125.8 74.2,125.8 74.1,125.8 
	72.1,125.9 71.9,125.9 71,125.9 70.6,125.9 70.4,125.9 70.3,125.9 69.8,125.9 69.4,125.9 68.4,125.9 67.6,125.9 67.6,125.9 
	67.5,125.9 67.5,125.9 67.2,125.9 67.1,125.9 67,125.9 67,125.9 66.9,126 66.8,126 66.6,126 66.5,126 66.5,126.1 66.4,126.1 
	66.3,126.1 66.3,126.2 66.2,126.2 66.2,126.4 66.2,126.4 66.3,126.6 66.4,126.6 66.5,126.5 66.5,126.6 66.6,126.7 66.5,126.7 
	66.5,126.8 66.4,126.9 66.4,126.9 66.5,127 66.6,126.9 66.6,126.9 66.6,127.1 66.5,127.1 66.5,127.2 66.5,127.3 66.5,127.4 
	66.4,127.5 66.4,127.5 66.4,127.6 66.4,127.6 66.5,127.6 66.6,127.6 66.7,127.6 66.7,127.7 66.6,127.7 66.6,127.7 66.5,127.8 
	66.4,127.8 66.3,127.9 66.3,127.9 66.2,128 66.1,128.1 66.1,128.2 66.1,128.2 66.1,128.3 66.2,128.3 66.2,128.3 66.3,128.3 
	66.3,128.4 66.4,128.4 66.4,128.5 66.4,128.5 66.3,128.5 66.3,128.6 66.3,128.7 66.3,128.7 66.3,128.8 66.3,128.9 66.4,128.9 
	66.4,129 66.5,129.1 66.5,129.1 66.7,129.2 66.8,129.2 66.9,129.3 66.9,129.4 66.9,129.5 66.8,129.6 66.9,129.7 67,129.7 
	67.1,129.7 67.1,129.8 67.2,129.9 67.3,129.9 67.3,130 67.5,130 67.5,130 67.5,130 67.6,130 67.6,130 67.7,130 67.8,130.1 
	67.9,130.1 67.9,130.1 68,130.2 68,130.2 68.1,130.3 68.1,130.3 68.2,130.4 68.2,130.4 68.3,130.5 68.3,130.5 68.3,130.6 
	67.5,130.6 67,130.6 66.9,130.6 64.2,130.6 59.7,130.7 59.6,130.7 59.6,130.7 56.8,130.7 54.1,130.7 51.8,130.7 50.7,130.7 
	44.2,130.7 43.7,130.7 37.4,130.7 37.4,132 37.4,132.1 37.4,134.4 37.3,136.8 37.3,140.4 28.1,140.3 26.6,140.3 25.5,140.3 
	25.3,140.3 21.8,140.3 21.8,137.1 21.9,136.7 21.9,133.8 21.9,130.3 22,130 22,129.3 22,128.9 22,128.7 22,127.6 22,125.7 22,125.3 
	22,124.4 22,124.2 22,124 22,122.8 22.1,116.8 22.2,112 22.2,111.3 22.2,111.2 22.2,111.1 22.2,111 22.2,109.4 22.2,109.2 
	22.2,108.1 22.3,106.6 22.3,103 22.3,102.9 22.3,102.4 22.3,102.1 22.3,101.5 "/>
</svg>
