<?xml version="1.0" encoding="utf-8"?>
<!-- Generator: Adobe Illustrator 19.2.1, SVG Export Plug-In . SVG Version: 6.00 Build 0)  -->
<svg version="1.1" id="Layer_1" xmlns="http://www.w3.org/2000/svg" xmlns:xlink="http://www.w3.org/1999/xlink" x="0px" y="0px"
	 viewBox="0 0 150.1 200" style="enable-background:new 0 0 150.1 200;" xml:space="preserve">
<style type="text/css">
	.st0{fill:none;stroke:#A06628;stroke-miterlimit:10;}
</style>
<polygon class="st0" points="7,105.8 8.9,97.9 8.7,97.6 9,97.1 9,97.1 9.6,96.7 9.6,96.7 14.8,75 14.7,74.9 15.4,71.5 15.6,71.4 
	15.6,71.3 15.6,71.2 15.5,71.2 15.8,66.9 15.6,67 15.6,67 15.6,66.9 15.9,66.7 15.9,66.7 16.1,65.6 16,65.6 16,63.3 15.9,63.2 
	16.1,61.8 16.1,61.7 16.1,61.7 16.3,61.6 17,58.4 17.1,58.4 17.4,56.7 17.3,56.7 17.1,56.6 18.2,49.9 17.6,49.9 17.6,49.8 
	18.1,49.7 18.5,47.2 18.4,47.2 18.3,46.3 18.4,46.2 18.5,46.2 18.8,44.5 18.7,44.3 19.1,40.8 19,40.7 19,40.5 18.5,39.9 18.5,35.5 
	19,34.9 19,34.9 19.1,34.8 19.4,34.8 18.5,28.9 18.2,28.8 18.5,28.6 18.7,28.6 18.8,28.9 18.8,29.1 18.8,29.2 19.8,29.7 19.8,29.8 
	20.1,30.3 20.9,30.6 20.9,30.6 21.1,30.5 21.2,30.3 21.1,30.3 20.9,30 20.8,30 20.8,29.9 20.8,29.8 23.9,29.4 24,29.3 24.7,29.3 
	24.8,28.9 25.1,28.8 25.4,29.1 26.1,28.6 26.1,28.4 27.4,28.3 28,29.1 27.9,30.3 28.9,31.1 32.3,30.3 37.9,35.8 38.5,40.1 
	38.6,40.1 38.6,43.1 43.9,45.4 44.9,45.1 45.3,45.3 45.6,45.8 49,45 49.1,45.1 51.8,43.9 52,43.6 52.3,43.7 52.8,43.3 52.8,43 
	64.2,43.2 64.5,44.5 64.7,44.7 65.4,44.7 65.5,44.6 65.5,44.6 65.6,44.7 65.8,44.4 65.8,44.3 66.7,43.6 68.7,43.6 69.2,43.9 
	74.6,41.4 76,42.5 91.4,37.1 92.2,37.5 135.1,34.3 137.9,38.4 138,38.4 138,38.3 138,38.3 138.1,38.3 138.1,38.3 138.1,38.2 
	138.2,38.2 138.2,38.2 138.2,38.1 138.7,38.1 138.7,38.1 138.9,38.2 139.2,38.9 139.3,38.9 139.5,39.1 140,39 140,39 140.7,39.1 
	141.3,39.7 141.4,39.7 141.4,39.7 141.5,39.7 142.7,42.3 142.7,42.3 143,43.3 137.2,58.3 137.7,59.3 136.1,62.6 136.1,62.8 
	134,64.3 134,64.8 134,64.9 133.9,64.9 133.3,66.7 133.2,66.8 133.1,67.8 132.7,68.1 132.7,68.3 132.8,68.4 132.5,69.2 132.2,69.3 
	131.7,70.2 131.6,70.1 131.5,70.2 131.5,70.3 131.5,70.3 131.4,72.2 131.3,72.2 132.2,73.7 132,74.2 131.8,74.3 131.8,74.3 
	131.8,74.3 131.7,74.6 132.6,75.5 133.2,75.4 133.2,75.3 133.3,75.3 133.3,75.2 133.5,75 133.5,75 133.5,74.9 133.8,74.9 
	134.6,76.1 134.6,76.1 134.7,76.1 134.7,76.1 134.7,76.1 134.8,76.1 134.8,75.7 135,75.6 135.9,75.7 136.1,76.8 136.1,76.8 
	136.5,76.9 136.6,76.8 137.3,77.1 137.4,77.6 136.7,79.2 136.1,79.4 136.2,80.3 136.7,80.5 136.9,80.9 136.5,82.1 136.4,82.2 
	136.4,82.2 136.3,82.4 136.4,82.4 136.4,82.5 136.4,82.5 136.2,84.6 136.2,84.6 136.1,84.6 136.1,84.7 135.9,84.6 135.7,84.8 
	135.7,91 135.8,91.1 137.4,128.7 84.9,130.2 84.9,130.1 62.9,130.1 62.9,130 10.6,128.6 9.6,127.4 9.1,127.3 8.2,125.6 8.2,125.2 
	8,124.7 8.1,124.7 8.2,124.6 7.1,120.5 7.2,120.5 7.8,112.9 7.1,112.4 7.2,112.1 6.8,110.9 6.4,110.8 6.4,110.9 6.1,110.9 
	5.6,108.4 7,105.8 "/>
</svg>
