<?xml version="1.0" encoding="utf-8"?>
<!-- Generator: Adobe Illustrator 19.2.1, SVG Export Plug-In . SVG Version: 6.00 Build 0)  -->
<svg version="1.1" id="Layer_1" xmlns="http://www.w3.org/2000/svg" xmlns:xlink="http://www.w3.org/1999/xlink" x="0px" y="0px"
	 viewBox="0 0 150.1 200" style="enable-background:new 0 0 150.1 200;" xml:space="preserve">
<style type="text/css">
	.st0{fill:none;stroke:#A06628;stroke-width:0.7902;stroke-miterlimit:10;}
</style>
<polygon class="st0" points="7.3,71.5 7.4,71.3 7.4,70.2 7.4,69.8 7.5,68.5 7.5,68.5 7.5,68.3 7.6,67.7 7.6,67.1 7.6,66.6 7.7,64.2 
	7.7,63.9 7.8,60.9 8.1,60.9 8.1,60.8 8.3,57.7 8.3,57.7 8.4,55.5 8.6,52.4 8.6,52.2 8.6,51.4 8.6,51 8.7,49.3 8.7,48.5 8.8,48.3 
	8.8,48.3 8.8,47.3 8.8,47.1 8.8,47.1 8.8,46.9 9.1,42.1 9.2,39.1 9.2,39 9.2,38.8 9.2,37.2 11.4,37.3 13.6,37.4 14.5,37.4 
	15.7,37.5 15.8,37.5 16,37.5 16.7,37.5 17.4,37.5 17.8,37.6 18.9,37.6 19.9,37.7 19.9,37.7 20.2,37.7 20.3,37.7 21,37.7 21,37.7 
	22.1,37.8 22.5,37.8 23.1,37.8 23.2,37.8 23.7,37.8 23.8,37.8 24.7,37.9 25.1,37.9 25.4,37.9 25.8,37.9 26.1,37.9 26.4,37.9 
	26.7,37.9 27.1,38 27.6,38 27.7,38 28.5,38 28.9,38 29.6,38 29.8,38 30.7,38.1 31.6,38.1 31.9,38.1 32.7,38.1 32.8,38.1 33.2,38.2 
	33.3,38.2 33.6,38.2 33.8,38.2 34.1,38.2 34.5,38.2 35,38.2 35.2,38.2 35.4,38.2 36.3,38.3 36.7,38.3 36.8,38.3 36.9,38.3 
	37.2,38.3 37.5,38.3 37.6,38.3 37.8,38.3 37.9,38.3 38,38.3 38,38.3 38.1,38.3 38.4,38.3 38.8,38.4 38.8,38.4 39.2,38.4 39.4,38.4 
	40.6,38.4 41.2,38.4 41.5,38.4 41.9,38.5 41.9,38.5 42,38.5 42.2,38.5 42.2,38.5 42.4,38.5 42.5,38.5 42.6,38.5 42.8,38.5 
	42.8,38.5 43,38.5 43.5,38.5 43.5,38.5 43.9,38.5 45,38.5 45,38.5 45.1,38.5 45.1,38.5 45.4,38.5 45.7,38.5 47,38.5 47.2,38.6 
	47.6,38.6 47.9,38.6 48.1,38.6 48.6,38.6 48.7,38.6 49.1,38.6 49.1,38.6 49.2,38.6 49.7,38.6 49.8,38.6 50.1,38.6 50.2,38.6 
	50.5,38.6 50.6,38.6 51,38.7 51.5,38.7 52.4,38.7 52.6,38.7 52.7,38.7 54.6,38.7 54.7,38.7 55.1,38.8 55.9,38.8 56,38.8 56.1,38.8 
	56.6,38.8 56.7,38.8 57,38.8 57.5,38.8 57.7,38.8 58.5,38.8 58.9,38.8 58.9,38.8 59.3,38.8 59.4,38.8 59.5,38.8 59.6,38.8 
	59.9,38.8 60,38.8 60.6,38.8 60.7,38.8 62.8,38.9 62.9,38.9 63.1,38.9 63.2,38.9 63.5,38.9 63.6,38.9 64.4,38.9 64.6,38.9 
	65.7,38.9 66.5,38.9 66.6,38.9 66.8,38.9 67.3,38.9 67.6,38.9 68.6,38.9 69,38.9 71,39 71.2,39 71.9,39 72.4,39 72.5,39 72.6,39 
	72.8,39 74.8,39 75,39 75.1,39 77,39 77.3,39 77.5,39 78,39 78.1,39 78.5,39 78.7,39 79.8,39 80.6,39 82,39 82.7,39 84.3,39 
	84.3,39 84.9,39 85.3,39 85.7,39 86.8,39 87.1,39 88.8,39 88.9,39 89.6,39 89.7,39 90.4,39 90.7,39 90.8,39 91.4,39 91.9,39 
	92.2,39 92.5,39 92.6,39 92.9,39 93.5,39 93.7,39 93.9,39 95.6,39 95.7,39 95.8,39 97.3,39 97.9,39 99.1,39 99.1,39 99.5,39 
	100.1,39 100.6,39 101,39 101.2,39 101.3,38.9 101.7,38.9 101.7,38.9 102.2,38.9 103.3,38.9 103.5,38.9 103.8,38.9 104,38.9 
	104.4,38.9 106,38.9 106.6,38.9 106.9,38.9 107.7,38.9 108.2,38.9 108.8,38.9 110.4,38.8 111.6,38.8 111.7,38.8 111.9,38.8 
	113.1,38.8 113.7,38.8 114.7,38.7 115.1,38.7 115.3,38.7 115.6,38.7 117,38.7 117.4,38.7 118.7,38.6 118.8,38.6 119.1,38.6 
	119.6,38.6 120.2,38.6 121.3,38.6 121.8,38.5 122.9,38.5 123.3,38.5 123.8,38.5 123.9,38.5 124,38.5 124,38.5 126.2,38.5 
	126.8,38.4 126.9,38.4 128.4,38.4 129.9,38.3 130.3,38.3 130.6,38.3 132.1,38.2 132.4,38.2 132.4,38.2 132.8,38.2 133,38.2 
	133.8,38.1 134.2,38.1 134.3,38.1 135,38.1 135.1,38.1 135.2,38.1 135.8,38.1 135.9,38.1 136,38 136.5,38 137,38 137.2,38 137.2,38 
	137.6,38 138,38 138.3,38 138.7,38 139,38 139.3,38 139.4,38 139.6,37.9 139.8,37.9 140,37.9 140,38.1 140,38.3 140,38.3 140,38.4 
	140,38.4 140,38.5 140,38.5 140,38.5 140,38.6 140,38.7 139.9,38.7 140,38.8 140,39 140,39.1 139.9,39.1 139.9,39.4 139.9,39.5 
	139.9,39.6 139.9,39.7 139.9,39.8 139.9,40.1 139.9,40.2 139.9,40.3 139.8,40.4 139.8,40.5 139.8,40.6 139.8,40.8 139.8,40.8 
	139.7,40.9 139.6,41 139.6,41 139.5,41.1 139.4,41.4 139.3,41.4 139.3,41.5 139.3,41.5 139.2,41.6 139.1,41.6 139,41.7 139,41.7 
	139,41.8 138.9,42 138.8,42.1 138.8,42.1 138.8,42.2 138.8,42.4 138.7,42.7 138.5,42.9 138.5,42.9 138.4,43 138.3,43.1 138.3,43.1 
	138.1,43.2 137.7,43.5 137.1,43.9 137,44 136.9,44.2 136.8,44.2 136.4,44.6 136.4,44.6 136.3,44.7 136.2,44.7 136.1,44.8 
	135.7,45.2 135.7,45.2 135.6,45.2 135.5,45.2 135.5,45.3 135.4,45.4 135.4,45.5 135.3,45.8 135.3,46 135.3,46 135.3,46.2 
	135.2,46.3 135.2,46.4 135.2,46.5 135.3,46.5 135.4,46.6 135.4,46.7 135.5,46.7 135.6,46.8 136.2,47.6 136.2,47.6 136.4,47.7 
	136.5,47.9 136.6,48.1 136.9,48.4 137,48.6 137.1,48.9 137.2,48.9 137.3,49.2 137.3,49.3 137.3,49.4 137.3,49.5 137.4,49.6 
	137.4,49.8 137.5,50 137.6,50 137.7,50.1 137.9,50.5 138.1,50.7 138.1,50.7 138.1,50.8 138.1,50.8 138.2,50.8 138.2,50.9 138.3,51 
	138.3,51 138.4,51.1 138.4,51.1 138.5,51.1 138.6,51.1 138.7,51.1 138.8,51.2 139.1,51.1 139.2,51.1 139.4,51.1 139.5,51.1 
	139.6,51.2 139.9,51.3 140.2,51.4 140.3,51.5 140.4,51.6 140.6,51.7 140.9,51.8 141,51.8 141.2,51.8 141.3,51.9 141.6,52.1 
	141.7,52.1 141.8,52.3 141.9,52.3 142.1,52.6 142.1,52.6 142.1,52.8 142.2,52.9 142.3,53.1 142.3,53.1 142.3,53.2 142.4,53.2 
	142.4,53.3 142.4,53.3 142.4,53.4 142.5,53.5 142.5,53.6 142.6,53.6 142.6,53.7 142.6,53.7 142.6,53.8 142.6,53.9 142.6,54 
	142.7,54.1 142.7,54.5 142.7,55.2 142.8,56 142.8,56.1 142.8,56.1 142.8,56.8 142.8,57.4 142.8,57.5 142.9,58.1 142.9,58.2 
	142.9,58.9 142.9,59.2 142.9,59.6 142.9,59.6 142.9,59.6 142.9,60 142.9,60.2 142.9,60.3 143,61.7 143,61.8 143,62.2 143.1,63.5 
	143.1,63.6 143.1,63.9 143.1,64 143.2,66.1 143.2,66.2 143.2,66.3 143.2,66.4 143.2,66.5 143.2,66.6 143.2,66.8 143.3,67.2 
	143.3,68.3 143.3,68.7 143.3,69 143.4,70.4 143.4,70.5 143.5,72.6 143.5,72.7 143.5,73.1 143.5,73.3 143.5,73.6 143.5,74.1 
	143.5,74.4 143.5,74.5 143.6,74.7 143.6,74.8 143.6,75.2 143.6,75.9 143.6,76.5 143.7,76.6 143.7,77 143.7,77.2 143.7,77.4 
	143.7,77.6 143.7,77.7 143.7,77.7 143.7,78.1 143.7,78.1 143.7,78.4 143.7,78.5 143.8,78.8 143.8,78.8 143.8,79.1 143.8,79.2 
	143.8,79.2 143.8,79.5 143.8,79.5 143.8,79.9 143.8,79.9 143.8,80.2 143.9,81.3 143.9,83.5 144,85.3 144,85.4 144,85.6 144,85.7 
	144,85.7 144,86 144,86.1 144,86.4 144,86.4 144.1,86.8 144.1,86.8 144.1,87.1 144.1,87.5 144.1,87.5 144.1,87.9 144.1,87.9 
	144.2,89.3 144.2,89.4 144.2,90 144.3,91.1 144.3,91.5 144.3,92.2 144.4,94.1 144.4,94.4 144.5,96 144.5,96.1 144.5,96.6 
	144.5,96.6 144.5,96.7 144.6,98.8 143.2,98.8 142.1,98.9 141.9,98.9 141.9,99 141.9,99 142,99.1 142.1,99 142.1,99 142.2,99.1 
	142.2,99.2 142.3,99.3 142.2,99.4 142.2,99.6 142.3,99.7 142.2,99.8 142.1,99.8 142,100 141.9,100.1 141.9,100.2 141.9,100.2 
	142.1,100.5 142.1,100.6 142.2,100.6 142.2,100.6 142.3,100.6 142.4,100.6 142.4,100.6 142.5,100.7 142.6,100.7 142.5,100.7 
	142.5,100.8 142.5,100.8 142.5,100.9 142.6,100.9 142.7,101 142.8,101.2 142.9,101.3 143.2,101.5 143.3,101.4 143.3,101.4 
	143.4,101.4 143.4,101.5 143.4,101.5 143.4,101.6 143.4,101.7 143.5,101.7 143.5,101.7 143.5,101.9 143.5,102 143.5,102 
	143.4,102.1 143.4,102.3 143.4,102.5 143.4,102.6 143.5,102.7 143.4,102.7 143.4,102.7 143.4,102.8 143.4,102.8 143.4,102.9 
	143.3,102.9 143.3,102.9 143.3,103.1 143.4,103.4 143.5,103.5 143.5,103.6 143.4,103.7 143.4,103.7 143.4,103.9 143.2,103.9 
	143.1,104 143,104 143,104 142.9,104 142.8,104 142.7,104 142.7,104 142.7,103.9 142.7,103.9 142.6,103.9 142.5,103.9 142.5,104 
	142.5,104 142.5,104 142.5,104.1 142.6,104.4 142.5,104.5 142.5,104.5 142.5,104.5 142.4,104.5 142.4,104.5 142.4,104.7 
	142.5,104.7 142.6,104.7 142.8,104.8 142.9,104.9 142.9,104.9 143,104.9 143,104.9 143,104.9 143,105 143.1,105.1 143,105.2 
	142.9,105.2 142.9,105.3 142.8,105.3 142.7,105.4 142.7,105.5 142.8,105.5 142.8,105.6 142.9,105.8 143,105.8 143,105.7 
	143.2,105.7 143.2,105.7 143.3,105.7 143.4,105.7 143.5,105.8 143.6,105.8 143.7,105.9 143.7,105.9 143.8,105.9 143.9,105.9 
	144,105.8 144.1,105.7 144.3,105.7 144.5,105.8 144.5,105.9 144.6,106.1 144.6,106.1 144.6,106.2 144.5,106.3 144.6,106.5 
	144.6,106.7 144.7,106.7 144.7,106.7 144.7,106.8 144.7,106.8 144.7,106.9 144.7,107 144.7,107 144.7,107.1 144.7,107.2 
	144.7,107.3 144.7,107.5 144.8,107.6 144.9,107.7 144.9,107.7 144.9,107.7 145,107.7 145.2,108 145.2,108.1 145.2,108.2 
	145.3,108.2 145.3,108.3 145.3,108.5 145.1,108.7 145.1,108.8 144.9,108.9 144.9,109 144.9,109.1 145,109.1 145,109.1 145,109.2 
	145,109.2 145,109.4 145,109.6 144.9,109.7 144.9,109.7 144.8,109.8 144.8,109.8 144.7,109.7 144.6,109.7 144.5,109.9 144.4,110 
	144.4,110.1 144.4,110.1 144.2,110.1 144.1,110.1 144.1,110.1 144,110.1 143.9,110.3 143.9,110.3 143.9,110.4 144,110.4 144,110.3 
	144.1,110.4 144,110.6 144,110.6 144,110.6 144,110.7 144.1,110.7 144.2,110.8 144.3,110.9 144.3,110.9 144.4,110.9 144.4,111 
	144.4,111.1 144.4,111.2 144.4,111.2 144.4,111.3 144.4,111.4 144.3,111.4 144.3,111.4 144.2,111.4 144.2,111.4 144.1,111.5 
	144.1,111.6 144.1,111.6 144.1,111.7 144,111.8 144,111.8 143.9,111.8 143.9,111.9 144,112 144.1,112.1 144.2,112.1 144.3,112.2 
	144.3,112.3 144.3,112.5 144.2,112.7 144.2,112.7 144.2,112.7 144.1,112.7 144,112.9 144,113 144.1,113 144,113.1 144,113.1 
	144,113 144,113 143.9,113 143.9,113 143.6,113.2 143.6,113.3 143.6,113.3 143.6,113.4 143.7,113.6 143.7,113.7 143.7,113.7 
	143.7,113.7 143.6,113.7 143.6,113.7 143.6,113.8 143.7,113.9 143.7,113.8 143.9,113.9 143.9,114 143.9,114.1 143.9,114.1 
	143.8,114.1 143.7,114.1 143.7,114.2 143.7,114.2 143.7,114.4 143.6,114.5 143.6,114.5 143.5,114.5 143.5,114.6 143.5,114.8 
	143.6,114.9 143.6,114.9 143.6,114.9 143.7,114.9 143.7,114.9 143.6,115.1 143.5,115.2 143.4,115.2 143.4,115.3 143.4,115.3 
	143.5,115.3 143.5,115.4 143.5,115.4 143.5,115.5 143.5,115.5 143.4,115.5 143.4,115.4 143.4,115.4 143.4,115.4 143.4,115.4 
	143.3,115.5 143.3,115.6 143.3,115.6 143.2,115.5 143,115.4 143,115.5 142.9,115.5 142.9,115.6 143,115.7 143,115.8 142.9,115.9 
	142.9,116 142.8,116 142.8,116 142.7,116 142.7,116.2 142.8,116.2 142.8,116.2 142.8,116.3 142.8,116.3 142.8,116.4 142.8,116.6 
	142.8,116.6 142.6,116.8 142.6,116.8 142.6,116.8 142.4,116.8 142.3,116.8 142.3,117 142.2,117.1 142.2,117.2 142.1,117.2 
	142.1,117.2 142.1,117.3 142.1,117.4 142.2,117.5 142.3,117.5 142.3,117.5 142.4,117.5 142.4,117.6 142.4,117.6 142.2,117.6 
	142.2,117.7 142.1,117.8 142.1,117.9 142,118 142,118 142,118.1 142.2,118.3 142.3,118.3 142.3,118.3 142.3,118.6 142.3,118.7 
	142.2,118.7 142.2,118.8 142.4,118.9 142.5,119 142.5,119 142.5,119 142.6,119.1 142.7,119.1 142.7,119 142.7,119 142.8,119 
	142.8,119 142.9,119 142.9,119.1 142.9,119.2 142.9,119.2 143,119.3 143.2,119.4 143.3,119.4 143.3,119.4 143.3,119.5 143.3,119.5 
	143.2,119.6 143.2,119.6 143.2,119.6 143.3,119.6 143.4,119.6 143.4,119.5 143.4,119.5 143.5,119.7 143.6,119.8 143.6,119.8 
	143.6,119.8 143.5,119.8 143.5,119.9 143.6,119.9 143.6,119.9 143.8,119.9 143.9,119.9 143.9,120 144,120.1 143.9,120.2 
	143.9,120.2 144,120.2 144,120.3 144,120.3 144.1,120.3 144.1,120.3 144.2,120.4 144.4,120.6 144.4,120.7 144.4,120.7 144.4,120.8 
	144.4,120.9 144.3,120.9 144.3,120.9 144.2,120.9 144.1,120.9 144.1,121 144.1,121 144.1,121.1 144.2,121.1 144.2,121.1 
	144.3,121.1 144.3,121 144.4,121 144.4,121 144.4,121 144.5,121 144.5,121.1 144.6,121.2 144.6,121.3 144.7,121.5 144.7,121.5 
	144.7,121.6 144.7,121.6 144.8,121.7 144.9,121.7 144.9,121.8 144.8,121.8 144.8,121.8 144.8,121.9 144.9,121.9 144.9,121.9 
	144.9,122 145,122 145,122 145,122 144.9,122.1 144.9,122.1 144.8,122.1 144.8,122.1 144.8,122.2 144.8,122.2 144.8,122.3 
	144.8,122.4 144.9,122.5 145.2,122.5 145.2,122.7 145.2,123 145.2,123.1 145.2,123.2 145.2,123.2 145,123.4 144.9,123.4 145,123.5 
	145.1,123.6 145.2,123.5 145.2,123.6 145.3,123.7 145.3,123.8 145.3,123.9 145.3,124 145.3,124 145.3,124 145.5,124 145.6,124 
	145.9,124.1 145.6,124.2 145.5,124.3 145.3,124.3 145.3,124.4 145,124.4 144.8,124.3 144.7,124.2 144.7,124.2 144.5,124 144.5,124 
	144.5,123.9 144.4,123.8 144.4,123.6 144.3,123.5 144.2,123.5 144.1,123.5 144,123.4 143.9,123.4 143.8,123.4 143.7,123.4 
	143.6,123.5 143.5,123.5 143.5,123.5 143.5,123.5 143.3,123.7 143.2,123.8 143.1,123.8 143.1,123.8 143,123.8 142.9,123.8 
	142.9,123.8 142.9,123.8 142.8,123.8 142.8,123.8 142.5,123.6 142.4,123.5 142.4,123.4 142.4,123.2 142.3,123.2 142.3,123 
	142.3,122.9 142.3,122.8 142.3,122.8 142.2,122.7 142.2,122.6 142.2,122.6 142.1,122.5 142.1,122.5 142,122.5 141.9,122.4 
	141.8,122.3 141.8,122.3 141.5,122.2 141.5,122.2 141.4,122.1 141.4,122.1 141.3,122 141.1,121.8 140.9,121.5 140.8,121.4 
	140.8,121.3 140.8,121.1 140.8,121.1 140.8,120.9 140.8,120.9 141,120.6 141.1,120.5 141.1,120.5 141.1,120.4 141.2,120.4 
	141.2,120.4 141.2,120.4 141.2,120.3 141.2,120.2 141.1,120.1 141,120 140.5,119.9 140.4,119.9 140.4,119.9 140.3,119.9 
	140.3,119.9 140.2,119.9 140.2,119.9 140.1,119.9 140.1,119.9 140,119.9 140,119.9 139.8,120 139.5,120 139.5,120 139.4,120 
	139.3,119.9 139.1,119.9 139.1,119.9 139.1,119.8 139.1,119.8 139.1,119.5 139.1,119.3 139,119.1 138.9,119 138.8,118.9 
	138.7,118.9 138.6,118.9 138.5,118.9 138.2,118.8 138.2,118.8 137.9,118.6 137.7,118.5 137.4,118.5 137.2,118.4 137.2,118.4 
	137.1,118.4 137.1,118.3 137.1,118.3 136.8,118.4 136.7,118.4 136.7,118.5 136.5,118.6 136.4,118.6 136.3,118.7 136.2,118.7 
	136.1,118.7 136,118.7 136,118.6 136,118.6 136,118.5 136.1,118.3 136.1,118.2 136.1,118.2 135.9,117.9 135.8,117.8 135.7,117.7 
	135.7,117.7 135.5,117.7 135.3,117.7 135,117.7 134.9,117.7 134.9,117.7 134.8,117.7 134.8,117.7 134.7,117.6 134.3,117.5 
	134.1,117.4 134,117.4 133.8,117.5 133.7,117.5 133.6,117.5 133.5,117.5 133.2,117.6 132.9,117.5 132.9,117.5 132.8,117.4 
	132.8,117.3 132.8,117.3 132.8,117.3 132.7,117.2 132.7,117.2 132.6,117.1 132.6,117.1 132.5,116.9 132.3,116.8 132.3,116.8 
	132.2,116.8 132.1,116.8 132,116.8 131.8,116.7 131.8,116.7 131.6,116.7 131.5,116.7 131.4,116.6 131.4,116.6 131.4,116.5 
	131.3,116.3 131.3,116.3 131.2,116.2 131.2,116.1 131.2,115.8 131.2,115.7 131.2,115.7 131.1,115.7 131,115.6 130.9,115.6 
	130.9,115.5 130.6,115.5 130.6,115.5 130.5,115.5 130.3,115.6 130.1,115.6 130.1,115.5 129.9,115.5 129.7,115.3 129.7,115.3 
	129.6,115.3 129.6,115.3 129.6,115.2 129.5,115.3 129.5,115.3 129.4,115.3 129.3,115.4 129.2,115.4 129.2,115.4 129.1,115.5 
	129,115.5 129,115.5 128.6,115.6 128.5,115.5 128.5,115.5 128.3,115.4 128.3,115.3 128,115.3 127.9,115.3 127.8,115.3 127.7,115.3 
	127.7,115.3 127.7,115.3 127.6,115.3 127.6,115.3 127.5,115.3 127.4,115.4 127.4,115.5 127.4,115.6 127.3,115.7 127.1,115.8 
	127.1,115.8 126.9,115.8 126.8,115.8 126.8,115.8 126.7,115.8 126.6,115.8 126.3,115.8 126.2,115.8 126.1,115.7 126,115.7 
	126,115.6 125.9,115.6 125.7,115.7 125.5,115.8 125.5,115.8 125.4,115.8 125.3,115.8 125.2,115.8 124.9,115.9 124.7,115.8 
	124.4,115.8 124.2,115.7 124.1,115.6 123.9,115.6 123.8,115.7 123.8,115.7 123.8,115.7 123.7,115.8 123.5,115.8 123.3,115.9 
	123.3,115.9 123.2,116 123.1,116 123.1,116 122.9,116 122.6,116.1 122.3,116 122,116 121.4,115.9 121.3,115.9 121.2,115.9 
	121,115.9 120.7,115.8 120.5,115.8 120.4,115.7 120.2,115.7 120,115.5 120,115.5 119.9,115.5 119.8,115.5 119.8,115.5 119.7,115.5 
	119.7,115.5 119.6,115.5 119.5,115.6 119.4,115.6 119.3,115.7 119.2,115.7 119.1,115.8 119.1,115.8 119.1,115.9 119.1,116 
	119.1,116 119.1,116.1 119,116.3 118.9,116.6 118.9,116.8 118.8,116.8 118.8,116.9 118.6,117.3 118.5,117.4 118.4,117.5 
	118.3,117.5 118.3,117.6 118.2,117.6 118.1,117.8 118,117.9 117.8,118 117.7,118 117.6,118 117.3,118 117,118.2 116.9,118.2 
	116.8,118.2 116.7,118.2 116.6,118.3 116.6,118.2 116.2,118.2 116.2,118.2 116.1,118.2 116.1,118.1 116.1,118.1 116,118.1 
	116,118.1 115.9,118.1 115.8,118 115.7,118 115.7,117.9 115.7,117.8 115.6,117.7 115.3,117.5 115.2,117.4 115.1,117.3 114.9,117.1 
	114.9,117.1 114.5,116.8 114.5,116.8 114.3,116.5 114.1,116.3 114,116.4 113.8,116.4 113.7,116.4 113.6,116.4 113.3,116.3 
	113,116.2 112.9,116.1 112.8,116.1 112.7,116 112.6,115.9 112.5,115.9 112.5,115.8 112.2,115.7 112.2,115.6 112.1,115.6 112,115.5 
	111.9,115.5 111.6,115.5 111.3,115.4 111.1,115.3 110.9,115.3 110.8,115.3 110.7,115.2 110.7,115.2 110.6,115.1 110.6,115 
	110.5,115 110.5,114.9 110.4,114.8 110.4,114.8 110.2,114.8 110.2,114.8 109.9,114.6 109.9,114.6 109.6,114.5 109.4,114.4 
	109.3,114.3 109,114.2 108.9,114.2 108.8,114.2 108.8,114.2 108.7,114.2 108.7,114.2 108.6,114.2 108.5,114.2 108.5,114.1 
	108.5,114.1 108.4,114 108.3,113.9 108.3,113.8 108.2,113.8 108.1,113.8 107.9,113.4 107.7,113 107.6,112.8 107.5,112.5 
	106.7,112.5 106.4,112.5 106.3,112.5 104.5,112.6 104.5,112.6 103.8,112.6 103.1,112.6 102.7,112.6 102.7,112.6 102,112.6 
	101.6,112.6 100.9,112.6 100.4,112.7 100.2,112.7 100.1,112.7 99.8,112.7 99.4,112.7 99,112.7 98.3,112.7 98,112.7 97.9,112.7 
	97.2,112.7 96.9,112.7 96.8,112.7 96.5,112.7 95.8,112.7 95.8,112.7 95.5,112.7 95.4,112.7 95,112.7 94.7,112.7 94,112.7 
	93.6,112.7 93.5,112.7 93,112.7 92.9,112.7 91.9,112.7 91.5,112.7 91.5,112.7 91.4,112.7 91,112.7 90.7,112.7 89.7,112.7 
	89.6,112.7 89.3,112.7 89.3,112.7 88.5,112.7 87.8,112.7 86.3,112.8 86,112.8 85.5,112.8 85.4,112.8 85.1,112.8 85,112.8 
	84.7,112.8 84.2,112.8 84.2,112.8 83.8,112.8 83.6,112.8 83.6,112.8 83.4,112.8 83.2,112.8 82.7,112.8 82.5,112.8 82.3,112.8 
	82.2,112.8 82,112.8 81.4,112.8 81.3,112.8 80.8,112.8 80.6,112.8 80.6,112.8 79.8,112.8 79.8,112.8 79.4,112.8 79.3,112.8 
	77.7,112.7 77.6,112.7 76.3,112.7 74.8,112.7 74.7,112.7 73.5,112.7 73.4,112.7 72,112.7 71.3,112.7 70.2,112.7 70.1,112.7 
	69.9,112.7 69.8,112.7 68.4,112.7 68.4,112.7 68.3,112.7 67.6,112.7 66.6,112.7 66.2,112.7 65.1,112.7 64,112.7 63.6,112.7 
	63.3,112.7 63.2,112.7 62.3,112.7 62.2,112.7 61.6,112.7 61.4,112.7 60.7,112.7 59,112.7 57.4,112.6 57.3,112.6 53.5,112.6 
	52.3,112.6 51.8,112.6 51.7,112.6 50.9,112.5 50.8,112.5 50,112.5 48.4,112.5 45.9,112.4 44.9,112.3 44.8,112.3 42.8,112.3 
	42.4,112.3 41.7,112.2 41.6,112.2 36.6,112.1 36.6,112.1 35.7,112.1 35.2,112.1 35.1,112.1 35.1,112.1 34.2,112 33,112 32.6,112 
	32.6,112 31.2,111.9 30.4,111.9 28.6,111.8 28.2,111.8 27.7,111.8 24.8,111.7 22.4,111.6 22.3,111.6 18.8,111.5 18.5,111.4 
	18.4,111.4 17.4,111.4 15.5,111.3 15.2,111.3 14.2,111.2 14.2,111.2 13.4,111.2 12.8,111.2 11.7,111.2 9.8,111.1 9.8,111.1 9,111 
	7.8,111 7,110.9 6.6,110.9 5.4,110.8 5.6,107.5 5.6,106.7 5.8,103.6 5.8,103.4 5.8,103.3 5.8,102.7 5.9,101.1 5.9,100.1 6,98.9 
	6,98.3 6.1,96.9 6.1,96.4 6.1,96.2 6.3,92.1 6.3,92.1 6.5,89.5 6.6,87.4 6.7,85.1 6.8,82.8 6.8,82.3 6.9,81.3 7,79.6 7.1,77.7 
	7.1,77.7 7.1,76.7 7.1,76 7.3,72.9 7.3,72.2 "/>
</svg>
