<?xml version="1.0" encoding="utf-8"?>
<!-- Generator: Adobe Illustrator 19.2.1, SVG Export Plug-In . SVG Version: 6.00 Build 0)  -->
<svg version="1.1" id="Layer_1" xmlns="http://www.w3.org/2000/svg" xmlns:xlink="http://www.w3.org/1999/xlink" x="0px" y="0px"
	 viewBox="0 0 150.1 200" style="enable-background:new 0 0 150.1 200;" xml:space="preserve">
<style type="text/css">
	.st0{fill:none;stroke:#A06628;stroke-width:0.7902;stroke-miterlimit:10;}
</style>
<path class="st0" d="M7.2,62.5c-0.9-0.7-1.3-0.7-1.6,0.1c-0.1-0.1-0.1-0.1-0.2-0.2c3.5-0.7-0.7-2,2-0.4h0.1c2.1-3.4-0.4-1.4,2.5-2.2
	c0-0.1,0.1-0.3,0.1-0.3c0.2-1.5,0.2-0.8,0.9-2.6l-0.1-0.1c0,0-0.1,0,0,0c-2.7-1.2,0.2-2.4,2.8-3c0.1-2.6-2.4,0.3,0.8-1.2
	c-1.7-3.7,2.5-4-0.6-7.2v-0.1c0,0,0.1-0.1,0-0.1l0.1-0.1c1,0.1,1.8,0.2,2.6,0.2c0,0,0.1-0.6,0-0.6c-0.2-0.4-1.5-0.3-1.3-1.1
	c1.3-1.8,1-0.7,1.5-3.4c-0.8-0.2,0.9,0.1,0.9,0c2.9,0.7,25.9,2.9,23.5-3c13,2.7,29.5,1.4,43.7,1.5c15.4,0.2,30.1,0.2,45.4-0.4
	c6-0.2,11.6-0.9,17.2-1c-0.7,2.2-0.7,3.4-0.8,5.7c-2.1-0.5-7.4,4-7.7,4.2c-1.3,0.9-5.1,3.1-6.9,3.9c1.4-0.7-3.7-0.1-5,0.7
	c-1.1,0.7-3,3.2-5.1,4.6c-4.3,2.8-9.6,4.8-13.3,7.8c0.2-0.2-2.6,2.5-2.6,2.4c-1.6,2.4-2.7,4.1-7.5,5.4c-6,1.5-15.3,0.2-21.5,0.1
	C54.6,71.8,32,73,9.5,70.6c-2.2-0.2-4.4-0.2-6.6-0.3c1.5-0.8,2.3-1.9,4.1-2.5l0.2-0.3C5.9,65.9,5.8,64.4,7.2,62.5z"/>
</svg>
