<?xml version="1.0" encoding="utf-8"?>
<!-- Generator: Adobe Illustrator 19.2.1, SVG Export Plug-In . SVG Version: 6.00 Build 0)  -->
<svg version="1.1" id="Layer_1" xmlns="http://www.w3.org/2000/svg" xmlns:xlink="http://www.w3.org/1999/xlink" x="0px" y="0px"
	 viewBox="0 0 405 405" style="enable-background:new 0 0 405 405;" xml:space="preserve">
<style type="text/css">
	.st0{fill:#ffffff;stroke:#FFFFFF;stroke-width:8;stroke-miterlimit:10;}
</style>
<path class="st0" d="M357,105.2c-11.3,5-23.3,8.4-36,9.9c13-7.8,22.9-20.1,27.6-34.7c-12.1,7.2-25.6,12.4-39.8,15.2
	c-11.4-12.2-27.8-19.8-45.8-19.8c-34.7,0-62.8,28.1-62.8,62.7c0,4.9,0.6,9.7,1.6,14.3c-52.2-2.6-98.4-27.6-129.3-65.6
	c-5.4,9.3-8.5,20-8.5,31.5c0,21.8,11.1,41,27.9,52.2c-10.3-0.3-20-3.1-28.4-7.8c0,0.3,0,0.5,0,0.8c0,30.4,21.6,55.8,50.3,61.5
	c-5.3,1.4-10.8,2.2-16.5,2.2c-4,0-8-0.4-11.8-1.1c8,24.9,31.2,43.1,58.6,43.6C122.5,287,95.5,297,66.1,297c-5.1,0-10.1-0.3-15-0.9
	c27.8,17.8,60.8,28.2,96.2,28.2c115.4,0,178.5-95.6,178.5-178.5c0-2.7-0.1-5.4-0.2-8.1C337.9,128.8,348.6,117.7,357,105.2z"/>
</svg>
