<?xml version="1.0" encoding="utf-8"?>
<!-- Generator: Adobe Illustrator 19.2.1, SVG Export Plug-In . SVG Version: 6.00 Build 0)  -->
<svg version="1.1" id="Layer_1" xmlns="http://www.w3.org/2000/svg" xmlns:xlink="http://www.w3.org/1999/xlink" x="0px" y="0px"
	 viewBox="0 0 150.1 200" style="enable-background:new 0 0 150.1 200;" xml:space="preserve">
<style type="text/css">
	.st0{fill:none;stroke:#A06628;stroke-width:0.9145;stroke-linejoin:round;stroke-miterlimit:10;}
</style>
<path class="st0" d="M18.1,108c-3.8-0.1-7.6-0.3-11.4-0.7c3.9-2.1,9.1-2.6,11.9-4.7c3-2.3,3.7-4.1,7.4-6.8c1.8-1.3,9.6-6.2,10.2-5.9
	c-0.4,0.3-0.8,0.4-1.2,0.7c2.5,4.4,3,4.5,8,4.8c1.1,0.1,1.8-1,2.3-1.6c2.1,3.5,8.3,1.4,8.3-1.6c1.6,1.6,3.7,0.5,5.7-0.9
	c1.3,0.8,2.1,0.9,3.8-0.9c0.1-0.1-0.8,0.2-0.8-0.1c0.3-0.3,1.1-1.1,1.8-1.9c-2.2-2.9,2.1-5.4,4.2-8.3c1.6-2.3,2.8-4.9,4-6.9
	c1-1.6,0.9-2.8,1.4-4.4c9.2,5.8,4.6,1.4,9.4-3.3c0.5-0.5,0.8-1.3,1.1-1.9c0.6,0.7,1.4,1.1,2,1.8c0.7-1.5,1.8-2.3,2.5-3.5
	c-0.1,0-0.1,0.6,0,0.6c0,0,0.1,0,0.1,0c3.1-2.2,3.6-5.3,5.7-8.5c0.4-0.6,0.2-2,0.2-3c2.8,2.3,5.5,4.5,8.3,6.8c0.3-2.3,1.2-3.5,3-3.6
	c3.6-0.2,1.4,3.2,1.8,3.7c2.1,2.2,7.2,2.3,7.9,5.5c0.5,2.4-1.3,4.7-3.3,4.5c-1.4,3-1.3,9.1,3.3,4.8c1,6.3,10.4,5.6,12.8,11.7
	c0.1,0.2-0.9,3-0.1,4.2c-1.2,0-3.2-0.4-3.8-0.5c-0.7-2.1-2.4-3.8-4.2-4.8c-0.1,0.1-0.2,0.2-0.3,0.2c2.5,2.6,3.8,5.9,8,6.2
	c-0.4,0.5-0.7,0.5-1,0.9c0.3,0,1,0.7,1-0.1c0.7,1.6,1,2.5,0.5,4.2c-0.7-0.7-1.8-1.2-2.4-1.8c0.1,0.2,0.7,1.9,1.1,2.6
	c-0.9,0.1-1.9,0.8-2.5,0.9c0.7,0.3,0.9,0.2,1.8,0.1c0.2,0.2-0.2,1.3-0.1,1.3c1.9,0.4,1.9,0.6,1.7,3.2c0,0-1.4,0.7-1.8,0.9
	c-2.3-2.4-3.5-5.7-6.5-4.9c1.6,0,0.2,0.6,1.9,0.1c-0.1,3.2,2.6,4,3.9,6.4c1.3-1.5,2.7-1.9,5.3-0.9c3.3,1.3,2.9,2.8,4.6,7.5
	c-17.4,0.5-34.6,0.9-52.1,0.8c-14.2-0.1-28.6-0.2-42.6-1.8C35.5,108.5,25.8,108.4,18.1,108z M133.9,89.7c1.1-2.9,4.1-6.3,2.7-7.2
	c1.8-2.3,4.5-2.4,8.3-2.9c-1.1,3.5-3,2.7-4.5,5.3c-1.3,2.3-1.2,4.6-2,6.9c-1,2.9-4.1,10.2-5.7,3.9C132.3,94.3,133.5,91.2,133.9,89.7
	z M132.4,81.4C132.2,81.7,132,82.2,132.4,81.4L132.4,81.4z M133.1,83.8C132.4,84.3,132.9,84,133.1,83.8L133.1,83.8z"/>
</svg>
