<?xml version="1.0" encoding="utf-8"?>
<!-- Generator: Adobe Illustrator 19.2.1, SVG Export Plug-In . SVG Version: 6.00 Build 0)  -->
<svg version="1.1" id="Layer_1" xmlns="http://www.w3.org/2000/svg" xmlns:xlink="http://www.w3.org/1999/xlink" x="0px" y="0px"
	 viewBox="0 0 150.1 200" style="enable-background:new 0 0 150.1 200;" xml:space="preserve">
<style type="text/css">
	.st0{fill:none;stroke:#A06628;stroke-width:0.9145;stroke-miterlimit:10;}
</style>
<path class="st0" d="M74.7,35.9C74.2,35.7,74.3,35.7,74.7,35.9L74.7,35.9z M74.6,24.1C74.5,23,74.5,23.8,74.6,24.1L74.6,24.1z
	 M24.7,12.2C24.7,11.2,24.7,11.7,24.7,12.2L24.7,12.2z M66.7,23.9C77.2,22.5,62.4,24.5,66.7,23.9L66.7,23.9z M57.3,10.6
	C57.1,10.5,56.1,9.9,57.3,10.6L57.3,10.6z M77.6,23.9C78.2,22.5,77.5,24.2,77.6,23.9L77.6,23.9z M75.7,34
	C74.9,39.4,75.4,35.9,75.7,34L75.7,34z M78.2,38.6C78.8,39.6,79,39.9,78.2,38.6L78.2,38.6z M76.5,37.2
	C76.5,38.9,76.5,39.5,76.5,37.2L76.5,37.2z M28.2,23.9C28.1,23.8,27.8,23.5,28.2,23.9L28.2,23.9z M58.1,12.6
	C57.3,10.7,57,9.9,58.1,12.6L58.1,12.6z M38.7,18C38.8,17.6,39,17.1,38.7,18L38.7,18z M27.6,24.7C27.6,24.5,27.8,24.1,27.6,24.7
	L27.6,24.7z M27,24.3C26.9,23.8,27,24.1,27,24.3L27,24.3z M79.5,39.6C80.1,39.4,80.3,39.4,79.5,39.6L79.5,39.6z M55.3,13.5
	C61.8,17.8,56.7,14.4,55.3,13.5L55.3,13.5z M42.2,18.7C45.2,17.5,42.6,18.5,42.2,18.7L42.2,18.7z M44.8,20.7
	C44.6,20.3,44.4,20,44.8,20.7L44.8,20.7z M41.9,15.1C43.9,14.5,43,14.8,41.9,15.1L41.9,15.1z M71.7,29.4C72,28.8,72,28.8,71.7,29.4
	L71.7,29.4z M82.3,29.7c5.7,6,11.5,4.5,22.5,9c-1.1-6.1-0.4-5.1-3-11.4c1.6,0.4,4.1,1.2,3-2.3c-0.1,0,2.2,1.6,2.1,0
	c0.7,0.4,2,4,3.3,5.6c0.1,0.5,2.9,0.4,2.6,0.1c-1.3-2,1.1-0.8,1.3-0.6c-0.6-0.9-0.5-1.4,0.2-1.6c-6.6-5-14.4-6.1-21-8
	C90.7,25.2,86.9,24.6,82.3,29.7z M80.2,30.5C80.9,32.2,80.4,30.8,80.2,30.5L80.2,30.5z M83.6,25.7C83.8,25,83.9,24.5,83.6,25.7
	L83.6,25.7z M91.9,24.6C92.6,24.4,93,24.3,91.9,24.6L91.9,24.6z M84.7,25.1C84.5,24.9,84.1,24.5,84.7,25.1L84.7,25.1z M116.6,32.6
	C117,30.7,117,30.8,116.6,32.6L116.6,32.6z M121.9,162.7C126.9,162,124.3,162.3,121.9,162.7L121.9,162.7z M92.4,21.7
	C92,21,91.5,20.1,92.4,21.7L92.4,21.7z M116.2,31.8C116,31.6,115.5,31.2,116.2,31.8L116.2,31.8z M88.9,24.9
	C88.8,24.4,88.9,24.7,88.9,24.9L88.9,24.9z M91.2,34.5C91.8,34.6,92.3,34.7,91.2,34.5L91.2,34.5z M81.7,21.9
	C82,22.5,80.8,20.2,81.7,21.9L81.7,21.9z M80.3,23.9C84.1,20,79.7,24.6,80.3,23.9L80.3,23.9z M94.1,23.1
	C94.2,23.1,94.5,23.5,94.1,23.1L94.1,23.1z M104.5,171.1C105.1,171.8,104.8,171.5,104.5,171.1L104.5,171.1z M94.7,23.7
	C94.6,23.6,94.4,23.3,94.7,23.7L94.7,23.7z M112.9,167.7C113.4,166.3,113.3,166.7,112.9,167.7L112.9,167.7z M108.4,33.3
	C108,33.2,107.6,33,108.4,33.3L108.4,33.3z M107.3,34.1C108.9,34.3,108.4,34.3,107.3,34.1L107.3,34.1z M42,20.1
	C42.4,20.3,42.6,20.6,42,20.1L42,20.1z M50.5,22C50.5,22,50.1,22.4,50.5,22L50.5,22z M70.1,54.3C70.7,54.9,70.6,54.8,70.1,54.3
	L70.1,54.3z M51.5,22.6C51.1,22.6,51,22.6,51.5,22.6L51.5,22.6z M51.8,30.1C51.5,29.7,51.5,29.7,51.8,30.1L51.8,30.1z M49.5,34.2
	C49.7,34.7,49.7,34.6,49.5,34.2L49.5,34.2z M59.2,35.8c6.4,0.2,6.2-1.3,14.9-1.5c-1.1-2.8-1.9-0.9,0.8-2.2
	c-4.9-3.6-12.9-9-25.3-14.1c-1.1,1.7,6.9,3.4,3.4,5.6c-11.7-2.9-14.3-1.2-25.8,1.7c-0.2-0.1,0.2-0.4-0.8-0.2c7,2,18.6,5.3,18.7,5.4
	C50,27.8,54.2,29.7,59.2,35.8z M49.7,32.7C45.2,35.1,44.1,35.7,49.7,32.7L49.7,32.7z M51.2,29C51.4,29.4,51.4,29.4,51.2,29L51.2,29z
	 M51.6,32.8C51.5,32.8,52.5,33.2,51.6,32.8L51.6,32.8z M51.3,30.7C52.2,29.6,49.5,32.8,51.3,30.7L51.3,30.7z M50.9,22.2
	C50.9,22.2,50.5,22.6,50.9,22.2L50.9,22.2z M60.6,42.9C59.6,45.2,60.3,43.6,60.6,42.9L60.6,42.9z M61.5,43.7
	C62.1,44.1,63.1,44.7,61.5,43.7L61.5,43.7z M22.7,13.3C23.1,13.1,23.1,13,22.7,13.3L22.7,13.3z M65.4,36.4
	C65.1,36.1,66.5,37.9,65.4,36.4L65.4,36.4z M66.5,34.2C66.8,34.7,66.8,34.6,66.5,34.2L66.5,34.2z M68,36.5
	C66.4,36.2,65.8,36.1,68,36.5L68,36.5z M67.1,35C67.8,34.4,67.3,34.8,67.1,35L67.1,35z M66.2,33.9C65.5,35.2,64.6,37,66.2,33.9
	L66.2,33.9z M68.3,34.7C67.7,34.9,67.6,34.9,68.3,34.7L68.3,34.7z M135.8,169.3c-21.6,0.9-53.8-14.2-69.6-3
	c-3.9,2.8-7.5,18.3-7.3,23.5C86.1,183.5,113.7,183,135.8,169.3z M19.5,27.9C19.8,28.3,20,28.6,19.5,27.9L19.5,27.9z M19.1,27
	C16.3,30.6,17,29.7,19.1,27L19.1,27z M13.8,41.7C13.5,42.6,13.5,42.6,13.8,41.7L13.8,41.7z M19,26.1C19.3,26.6,19.2,26.5,19,26.1
	L19,26.1z M16.3,29.7C16.6,30.4,16.5,30.3,16.3,29.7L16.3,29.7z M22.7,12.7C21.9,12.8,20.8,13.1,22.7,12.7L22.7,12.7z M18.2,26.9
	C18,26.5,18,26.5,18.2,26.9L18.2,26.9z M17.2,27.7C17.4,27,17.3,27.4,17.2,27.7L17.2,27.7z M17.6,27.1
	C17.5,26.6,17.6,26.9,17.6,27.1L17.6,27.1z M22.6,25.7C22.9,26.3,23,26.5,22.6,25.7L22.6,25.7z M36,36.4
	C35.9,37.3,35.9,37.4,36,36.4L36,36.4z M22.5,18.3C20.9,19.2,21.3,19,22.5,18.3L22.5,18.3z M36,36.2C35.8,36,35.3,35.6,36,36.2
	L36,36.2z M38.3,33.8C38.6,34.5,38.8,35.1,38.3,33.8L38.3,33.8z M36.8,36.8C37,37,37.5,37.4,36.8,36.8L36.8,36.8z M24.8,22.8
	C22.4,23.3,23.4,23.1,24.8,22.8L24.8,22.8z M48.5,33.6C48.7,33.9,49.1,34.6,48.5,33.6L48.5,33.6z M24.5,27.1
	C24.8,28.1,24.7,27.6,24.5,27.1L24.5,27.1z M24.9,23.3C26.1,24.9,26,24.8,24.9,23.3L24.9,23.3z"/>
</svg>
