<?xml version="1.0" encoding="utf-8"?>
<!-- Generator: Adobe Illustrator 19.2.1, SVG Export Plug-In . SVG Version: 6.00 Build 0)  -->
<svg version="1.1" id="Layer_1" xmlns="http://www.w3.org/2000/svg" xmlns:xlink="http://www.w3.org/1999/xlink" x="0px" y="0px"
	 viewBox="0 0 150.1 200" style="enable-background:new 0 0 150.1 200;" xml:space="preserve">
<style type="text/css">
	.st0{fill:none;stroke:#A06628;stroke-width:0.7138;stroke-miterlimit:10;}
</style>
<path class="st0" d="M3.3,40.4c0.5-2.4,1.7-3.2,0.1-5.5c0,0,0.1-0.1,0.1-0.1c7.8,1,15.9,7.4,23.3,8.3c2.3,0.3,3.2-0.1,5-1.5
	c1.3,2,3,3.1,5,3.4c0.5-2.4,0.3-0.6,1.6-2.3c-0.4,1.4-0.3,1.1-0.2,2.7c0.2,0,0.3-0.1,0.5-0.1c0.6-0.6-0.4-0.8,1-1.4
	c-0.6,1.9,0,1.5-0.8,2.5c1,1.2,0.9,2.2,2,3.3c-1.3,1.2-1.4,2.1-2.8,3.7c0.1,0.1,0.2,0.2,0.3,0.3c2-2.2,2.8-2.9,2.3-5.4
	c2.3,1.9,3.1,4,1,5.3c1.2,2.3,1.1,3.8,0,6c2,1.1,1.4,2.1,3.1,3.7c-2.3,0.5-1.4,1.2-2.8,0.8c-0.2,0-0.3,0-0.5,0
	c0,0.2-0.3,0.9-0.5,0.9c0.4,0.4,1.6,1.3,2.4,1.7c0.1,0,0.2-0.1,0.2-0.1c0.1-0.2,0.3-0.4,0.4-0.5c1.5-1.4,1.6-4.6-0.1-7.7
	c0.7-0.5,0.8,0.1,1.5-0.4c-2.7-3.9,1.9-9.2,0.9-12.9c-0.5-1.9-1.8-3.3-2.5-4.3c0.4,1.8,0,2.4,1.5,4.8c-6.2-3.5,0.8-5.5-3.3-10.5
	c-2.5,0.4-1.2,1.2-1.8-0.8c-0.3-0.6-0.8,0.4-0.8,0.4c1.9-1.2,1.3-1.6,4.1-0.3c0,0,0-0.1,0-0.1c0-1-0.8-2-1.1-2.7
	c2.4-0.2,0.7-8.3-1.4-3.2c-0.3-1-1.8-3.1-1.6-2.5c-1.1-2.7-1.1-3-1.9-4.2c4.4-5.8,30.6-1.1,38.8-1.1c21.2,0,42.4-0.7,63.5-1.6
	c0.7,13.4,1.2,26.8,1.9,40.2c0.5,10.3,0.9,23.7,2.5,32.2c0.6,3,0.6,5.2,1.8,8.1c-14.3,0.2-30.5-0.1-43.7,3c-7.3,1.8-13.9,5-21.5,6.8
	c-2.2,0.5-2.6-1.3-4.7-1c-1.5,0.2-3.5,2.5-4.9,2.6c-1.9,0.1-3.8,0.7-5.3,0.6c-4.6-0.4-6.8-3.5-13.3-1.5c-3.9,1.2-6.3,3.8-10.8,2.3
	c-6.5-2.2-3.8-3.1-5.9-8.4c-3.1-7.9-3.6-5-9.8-7.3c-3.7-1.4-4.1-3.3-8-3.7c-2.4-0.3-4-0.3-5.9,0c0.8-3.2,0.8-6.7,0.8-10
	c0,0,0.3-0.1,0.3-0.1c-0.1,1.2,0.2,3.2,0.2,4.9c0.3-0.1,1.2-0.3,0.8-0.9c1.4-1.1,0.2-3.3,2.8-5.7c-1.3,0.3-1.1-0.5-2.3,0.2
	c-2.3-0.9-2.6-2.3-3-5.5c0,0,0.4-0.1,0.4-0.2c0.7,0.3,0.2,0.9,0.7,1.4c0,0,0.1,0,0.1,0c1.2-0.5,2.3-1.6,3.9-2.2
	c-2.1-1.9-5-4.1-4.8-0.1c-0.1-0.1-1.1,0.6-1.1,0.4c1.7-9.6-4.4-19.4-7.1-27C3.7,45.2,3.5,42.2,3.3,40.4z M34.1,30.6c0.1-2.9,2-4,5-2
	c0,0,0,0.1,0,0c-1.2,2.2-0.3,5.8-2.9,6.4c-1.6,0.3-6.5-3.3-4.2-5.5C31.7,29.9,36,32.1,34.1,30.6z M39.3,38.2c0.5-1.6,1.2-2.4,2-2.7
	c0.5,0.6,1.5,2.2,1.8,3.1c-2.5,0.1-1.2,1-3,1.9c0.6,1.3,1.4,2.8,2.1,4.6c1-0.5,0.1-0.4,0.4-1.2c2.7,1.7,2.8,2.4,2.5,5.2
	c-0.9-0.6-2.7-1.5-3-1.7C41.6,43.5,38.4,41.8,39.3,38.2z M39.6,30.1c0.1,0.9,1.5,1.2-0.1,1.9C38.8,31,39.6,30.9,39.6,30.1z
	 M39.7,26.3c0.6,1,1.4,1.8,1.8,2.9C40.1,28.2,40.2,27.3,39.7,26.3z M41.5,31.5C40.8,32.1,40.8,32.2,41.5,31.5L41.5,31.5z M31.5,28
	c-0.2,0.7,2.1,0.9,0.6,1.2C29,27.2,31.4,28.2,31.5,28z M34.1,27C34,27.9,33.9,28.5,34.1,27L34.1,27z M33.2,19.4
	C34.7,20.4,34.1,20,33.2,19.4L33.2,19.4z M39.8,29.8C40.5,30,40.9,30.2,39.8,29.8L39.8,29.8z M46.3,46C46.6,47.3,46.2,45.9,46.3,46
	L46.3,46z"/>
</svg>
