<?xml version="1.0" encoding="utf-8"?>
<!-- Generator: Adobe Illustrator 19.2.1, SVG Export Plug-In . SVG Version: 6.00 Build 0)  -->
<svg version="1.1" id="Layer_1" xmlns="http://www.w3.org/2000/svg" xmlns:xlink="http://www.w3.org/1999/xlink" x="0px" y="0px"
	 viewBox="0 0 150.1 200" style="enable-background:new 0 0 150.1 200;" xml:space="preserve">
<style type="text/css">
	.st0{fill:none;stroke:#A06628;stroke-width:0.9145;stroke-miterlimit:10;}
</style>
<path class="st0" d="M24.7,109.3c-5,0.5-3.2-5.8-3.9-9c6.1-1.9,3.6-10.7,5.9-14.2c2.1-3.2,6-4,5.6-7.7c-0.2-1.1-3.7-2.1-3.9-2.6
	c-0.8-1.5-0.7-3.9-1.6-5.7c-1.8-3.9-3-5.9-3.3-9.8c3-2-1-15.5-0.6-19.3c0.4-3.3-1.9-4.3,2.7-5.3c2.8-0.6,5.2,3.7,6.9,3.4
	c5.7-1.5,3.5-18,3.7-23.1c25.1,0.7,50.3,0.6,75.3,0.2c6.4-0.1,12.8-0.3,19.1-0.5c0.6,30.6,1.7,61.3,2.6,91.9
	c0.4,13.8,0.7,27.6,1.1,41.4c-13.3,0.1-28.1,2.7-41.2,0.5c-10.4-1.7-21.2-7.9-31.2-11.5c-12.5-4.6-26.4-8.4-38.3-14.5
	c-3.7-1.9-5.5-1.7-4.8-4.6c0.7-2.9,4.5-2,5.3-3.2C25.3,113.9,26.2,111.5,24.7,109.3z"/>
</svg>
